<svg width="203" height="120" viewBox="0 0 203 120" fill="none" xmlns="http://www.w3.org/2000/svg">
<g clip-path="url(#clip0_1_10)">
<path d="M45.3933 37.0243H43.1342C39.3506 37.0243 35.6269 38.0137 32.3281 39.8962L18.5532 47.1366C7.01242 53.7175 2.81896 61.922 0.959648 79.7822L0 90.6403C0.0349872 98.6013 6.40265 105.03 14.2448 105.03C18.8631 105.03 23.1965 102.757 25.8655 98.9311L29.7091 93.4259L45.3933 102.356V37.0243Z" fill="#B6DAFF"/>
<path d="M9.10663 75.7129C9.00667 75.7129 8.9067 75.6824 8.82173 75.6114C8.61681 75.449 8.58182 75.1547 8.74176 74.9467L27.6748 50.3636C27.8348 50.1556 28.1246 50.1201 28.3296 50.2824C28.5345 50.4448 28.5695 50.7391 28.4095 50.9471L9.47649 75.5302C9.38653 75.6469 9.24658 75.7129 9.11163 75.7129H9.10663Z" fill="white"/>
<path d="M11.3358 72.6888H7.84709C7.59219 72.6888 7.38226 72.4757 7.38226 72.2169C7.38226 71.9582 7.59219 71.7451 7.84709 71.7451H11.3358C11.5907 71.7451 11.8006 71.9582 11.8006 72.2169C11.8006 72.4757 11.5907 72.6888 11.3358 72.6888Z" fill="white"/>
<path d="M29.909 94.3087C29.909 94.3087 29.864 94.3087 29.839 94.3037C29.5841 94.2631 29.4092 94.0246 29.4492 93.7658L34.4723 59.8163C34.5123 59.5575 34.7472 59.38 35.0021 59.4205C35.257 59.4611 35.432 59.6996 35.392 59.9584L30.3688 93.9079C30.3338 94.1413 30.1339 94.3087 29.909 94.3087Z" fill="#5798F7"/>
<path d="M18.7581 47.1316L21.0173 35.6239L18.4932 36.6235C17.1237 37.1613 15.6043 36.3647 15.2494 34.9186L14.9245 33.5893C14.6246 32.3614 15.2844 31.1031 16.454 30.6667C17.6685 30.2202 19.013 30.8088 19.5228 32.0113L19.7927 32.6455C19.7927 32.6455 18.5782 28.424 20.5625 24.781L30.1439 25.3543L30.8787 40.5152L18.7631 47.1265L18.7581 47.1316Z" fill="white"/>
<path d="M30.3139 25.1869L29.3293 27.2773L20.5525 24.786L19.5728 31.6206L19.5179 32.0164C19.123 31.0828 18.2283 30.5196 17.2787 30.5196C17.0038 30.5196 16.7189 30.5652 16.444 30.6718C16.439 30.6718 16.434 30.6718 16.429 30.6768L15.5443 29.1953C14.0299 26.6634 15.3544 23.3704 18.1784 22.6296L20.1526 22.1121L17.2087 20.7776C16.9738 20.6711 16.8688 20.392 16.9738 20.1536C17.0788 19.9151 17.3537 19.8085 17.5886 19.9151L20.7424 21.3459C18.5182 19.3214 13.8699 14.8818 13.2102 12.5731C12.3355 9.51864 14.0699 6.32715 17.0788 5.44429C20.0827 4.55636 23.2315 6.317 24.1012 9.3715C24.8209 11.8932 22.8616 19.154 22.1619 21.5945L26.4753 20.4631C29.2143 19.7476 31.5334 22.6043 30.3139 25.197V25.1869Z" fill="#5798F7"/>
<path d="M18.5582 49.2423C18.5282 49.2423 18.4982 49.2423 18.4732 49.2321C18.2183 49.1814 18.0534 48.9379 18.1034 48.6791L20.4075 36.3698L19.3479 36.7909C18.3983 37.1664 17.3386 37.1055 16.434 36.6336C15.5293 36.1567 14.8696 35.3093 14.6246 34.3098L14.4747 33.7009C14.1148 32.2346 14.8995 30.7378 16.294 30.2202C17.7385 29.6875 19.3429 30.3927 19.9527 31.8236C20.0526 32.062 19.9427 32.3411 19.7078 32.4426C19.4729 32.5441 19.198 32.4324 19.098 32.194C18.6881 31.2198 17.5936 30.7428 16.6139 31.1031C15.6643 31.4532 15.1345 32.468 15.3744 33.4675L15.5243 34.0764C15.7042 34.8172 16.1941 35.4413 16.8588 35.7914C17.5236 36.1415 18.3083 36.1821 19.008 35.9081L20.8524 35.1825C21.0123 35.1216 21.1872 35.1521 21.3172 35.2586C21.4471 35.3702 21.5071 35.5427 21.4771 35.7102L19.018 48.8567C18.978 49.085 18.7781 49.2423 18.5632 49.2423H18.5582Z" fill="#5798F7"/>
<path d="M30.8737 41.809C30.6288 41.809 30.4188 41.6111 30.4088 41.3574L29.849 29.2054C29.7541 27.1606 28.3196 25.4152 26.3553 24.9535C26.1054 24.8926 25.9505 24.6389 26.0055 24.3852C26.0654 24.1315 26.3103 23.9742 26.5653 24.03C28.9344 24.5831 30.6637 26.6938 30.7787 29.1598L31.3385 41.3118C31.3485 41.5705 31.1536 41.7938 30.8937 41.8039H30.8737V41.809Z" fill="#5798F7"/>
<path d="M25.9205 38.7342C24.471 38.7342 23.0965 38.1964 22.0169 37.1917L20.7024 35.9689C20.5125 35.7913 20.4975 35.492 20.6724 35.2992C20.8473 35.1064 21.1422 35.0911 21.3322 35.2687L22.6467 36.4915C23.6313 37.4048 24.9008 37.8564 26.2304 37.7752C27.5599 37.6941 28.7644 37.0801 29.6341 36.0552L30.2589 35.3144C30.4238 35.1165 30.7187 35.0911 30.9136 35.2637C31.1086 35.4311 31.1336 35.7305 30.9636 35.9283L30.3389 36.6691C29.3092 37.8919 27.8698 38.6226 26.2853 38.719C26.1654 38.7291 26.0404 38.7291 25.9205 38.7291V38.7342Z" fill="#5798F7"/>
<path d="M17.4036 34.7867C17.2287 34.7867 17.0587 34.6853 16.9788 34.5077C16.8738 34.2692 16.9788 33.9901 17.2087 33.8836L17.7435 33.635L17.1937 33.3559C16.9638 33.2392 16.8688 32.955 16.9838 32.7216C17.0987 32.4882 17.3786 32.3918 17.6085 32.5085L19.033 33.229C19.1929 33.3102 19.2929 33.4777 19.2929 33.6603C19.2929 33.843 19.1829 34.0053 19.018 34.0815L17.5935 34.7411C17.5286 34.7715 17.4636 34.7817 17.3986 34.7817L17.4036 34.7867Z" fill="#5798F7"/>
<path d="M23.1365 30.961C22.9066 30.961 22.6867 30.9052 22.4817 30.7936C22.1569 30.616 21.9269 30.3268 21.837 29.9767C21.772 29.723 21.9169 29.4642 22.1668 29.3982C22.4168 29.3323 22.6717 29.4794 22.7366 29.7331C22.7616 29.8295 22.8266 29.9107 22.9216 29.9614C23.0265 30.0172 23.1515 30.0325 23.2714 29.9969C23.3914 29.9614 23.4964 29.8904 23.5563 29.7889C23.6113 29.6976 23.6313 29.5961 23.6063 29.4997C23.5413 29.246 23.6863 28.9872 23.9362 28.9213C24.1861 28.8553 24.441 29.0025 24.506 29.2562C24.601 29.6063 24.541 29.9767 24.351 30.2912C24.1611 30.5957 23.8662 30.8189 23.5164 30.9103C23.3914 30.9458 23.2664 30.961 23.1415 30.961H23.1365Z" fill="#5798F7"/>
<path d="M23.0965 35.1622C24.0793 35.1622 24.8759 34.3535 24.8759 33.3559C24.8759 32.3583 24.0793 31.5496 23.0965 31.5496C22.1138 31.5496 21.3172 32.3583 21.3172 33.3559C21.3172 34.3535 22.1138 35.1622 23.0965 35.1622Z" fill="#F9D346"/>
<path d="M24.376 34.0155C24.1561 34.0155 23.9812 33.8379 23.9762 33.6146C23.9762 33.3914 24.1511 33.2087 24.371 33.2036L26.0604 33.1833H26.0654C26.2853 33.1833 26.4603 33.3609 26.4653 33.5842C26.4653 33.8074 26.2903 33.9901 26.0704 33.9952L24.381 34.0155H24.376Z" fill="#5798F7"/>
<path d="M24.3111 34.4366C24.3111 34.4366 24.2661 34.4366 24.2461 34.4315C24.0262 34.396 23.8812 34.188 23.9162 33.9647L24.0312 33.2341C24.0662 33.0159 24.2711 32.8637 24.491 32.8992C24.7109 32.9347 24.8559 33.1428 24.8209 33.366L24.7059 34.0967C24.6759 34.2945 24.506 34.4366 24.3111 34.4366Z" fill="#5798F7"/>
<path d="M18.9181 38.7494C18.9181 38.7494 18.8731 38.7494 18.8481 38.7494C18.5932 38.7139 18.4183 38.4704 18.4532 38.2116L18.9031 35.0962C18.9381 34.8374 19.178 34.6599 19.4329 34.6954C19.6878 34.7309 19.8627 34.9744 19.8277 35.2332L19.3779 38.3486C19.3429 38.582 19.143 38.7545 18.9181 38.7545V38.7494Z" fill="#F9D346"/>
<path d="M36.0023 35.9052L39.1981 35.5602L41.8307 60.6916C41.9242 61.5847 41.2846 62.3885 40.4049 62.4835C39.5252 62.5784 38.7334 61.9291 38.6399 61.0361L36.0073 35.9046L36.0023 35.9052Z" fill="white"/>
<path d="M40.2303 62.9621C39.7604 62.9621 39.3056 62.7998 38.9307 62.4953C38.5009 62.1402 38.231 61.6378 38.171 61.0797L35.487 35.4818L39.6055 35.0353L42.2895 60.6332C42.3495 61.1913 42.1895 61.7393 41.8397 62.1757C41.4898 62.612 40.995 62.886 40.4452 62.9469C40.3702 62.9571 40.2952 62.9571 40.2203 62.9571L40.2303 62.9621ZM36.5166 36.319L39.1007 60.9782C39.1307 61.2878 39.2806 61.5617 39.5205 61.7545C39.7554 61.9474 40.0553 62.0387 40.3602 62.0032C40.985 61.9372 41.4398 61.3639 41.3748 60.7296L38.7908 36.0704L36.5216 36.314L36.5166 36.319Z" fill="#F9D346"/>
<path d="M36.4866 35.9588C42.4518 35.9588 47.2876 31.0497 47.2876 24.9941C47.2876 18.9384 42.4518 14.0294 36.4866 14.0294C30.5213 14.0294 25.6855 18.9384 25.6855 24.9941C25.6855 31.0497 30.5213 35.9588 36.4866 35.9588Z" fill="white"/>
<path d="M36.4866 36.4357C30.2739 36.4357 25.2208 31.306 25.2208 24.9992C25.2208 18.6923 30.2739 13.5626 36.4866 13.5626C42.6993 13.5626 47.7525 18.6923 47.7525 24.9992C47.7525 31.306 42.6993 36.4357 36.4866 36.4357ZM36.4866 14.5063C30.7887 14.5063 26.1504 19.2149 26.1504 24.9992C26.1504 30.7834 30.7887 35.492 36.4866 35.492C42.1845 35.492 46.8228 30.7834 46.8228 24.9992C46.8228 19.2149 42.1845 14.5063 36.4866 14.5063Z" fill="#F9D346"/>
<path d="M36.5816 29.3171C38.028 29.3171 39.2006 28.1267 39.2006 26.6583C39.2006 25.19 38.028 23.9996 36.5816 23.9996C35.1351 23.9996 33.9625 25.19 33.9625 26.6583C33.9625 28.1267 35.1351 29.3171 36.5816 29.3171Z" fill="#91E6F0"/>
<path d="M36.5816 29.6874C33.9925 29.6874 31.6134 28.2515 30.3739 25.9429C30.2989 25.8008 30.2989 25.6334 30.3739 25.4913C31.6134 23.1827 33.9925 21.7468 36.5816 21.7468C39.1706 21.7468 41.5498 23.1827 42.7893 25.4913C42.8643 25.6334 42.8643 25.8008 42.7893 25.9429C41.5498 28.2515 39.1706 29.6874 36.5816 29.6874ZM31.3185 25.7146C32.4231 27.5868 34.4174 28.7437 36.5816 28.7437C38.7458 28.7437 40.74 27.5919 41.8446 25.7146C40.74 23.8423 38.7458 22.6905 36.5816 22.6905C34.4174 22.6905 32.4281 23.8423 31.3185 25.7146Z" fill="#5798F7"/>
<path d="M38.6709 21.4626C38.6259 21.4626 38.5809 21.4576 38.5409 21.4474C38.256 21.3713 38.0861 21.077 38.156 20.7929L38.301 20.2144C38.376 19.9252 38.6659 19.7527 38.9457 19.8238C39.2306 19.8999 39.4006 20.1942 39.3306 20.4783L39.1857 21.0567C39.1257 21.3003 38.9058 21.4626 38.6709 21.4626V21.4626Z" fill="#5798F7"/>
<path d="M34.3424 21.4626C34.1075 21.4626 33.8876 21.3003 33.8276 21.0567L33.6827 20.4783C33.6077 20.1891 33.7826 19.8948 34.0675 19.8238C34.3524 19.7477 34.6423 19.9252 34.7123 20.2145L34.8572 20.7929C34.9322 21.0821 34.7573 21.3764 34.4724 21.4474C34.4274 21.4576 34.3824 21.4626 34.3424 21.4626V21.4626Z" fill="#5798F7"/>
<path d="M42.2095 23.2334C42.0246 23.2334 41.8397 23.1319 41.7447 22.9544C41.5998 22.6956 41.6947 22.3658 41.9496 22.2186L42.2895 22.0258C42.5444 21.8787 42.8693 21.9751 43.0142 22.2339C43.1592 22.4926 43.0642 22.8224 42.8093 22.9696L42.4694 23.1624C42.3895 23.208 42.2995 23.2283 42.2095 23.2283V23.2334Z" fill="#5798F7"/>
<path d="M31.0086 23.2334C30.9237 23.2334 30.8337 23.2131 30.7487 23.1675L30.4089 22.9747C30.154 22.8275 30.059 22.5028 30.2039 22.239C30.3489 21.9802 30.6688 21.8838 30.9287 22.0309L31.2685 22.2237C31.5234 22.3709 31.6184 22.6956 31.4735 22.9594C31.3785 23.137 31.1936 23.2385 31.0086 23.2385V23.2334Z" fill="#5798F7"/>
<path d="M30.7837 25.7146C31.9033 23.6292 34.0775 22.2136 36.5816 22.2136C39.0856 22.2136 41.2648 23.6292 42.3794 25.7146L40.3202 24.918C38.081 24.0554 35.6119 24.0148 33.3478 24.8114L30.7837 25.7146V25.7146Z" fill="white"/>
<path d="M42.3795 26.1864C42.3245 26.1864 42.2695 26.1763 42.2145 26.156L40.1553 25.3594C38.0211 24.5374 35.6569 24.5019 33.5027 25.2579L30.9387 26.1611C30.7587 26.227 30.5538 26.1712 30.4338 26.019C30.3089 25.8719 30.2889 25.6588 30.3789 25.4862C31.6184 23.1776 33.9975 21.7417 36.5866 21.7417C39.1756 21.7417 41.5548 23.1776 42.7943 25.4862C42.8893 25.6588 42.8643 25.8719 42.7343 26.0241C42.6444 26.1306 42.5144 26.1864 42.3845 26.1864H42.3795ZM36.5816 22.6854C34.8022 22.6854 33.1328 23.4668 31.9833 24.7911L33.1978 24.3649C35.562 23.5328 38.151 23.5734 40.4851 24.4765L41.1149 24.7201C39.9653 23.4415 38.3309 22.6854 36.5766 22.6854H36.5816Z" fill="#5798F7"/>
<path d="M36.5816 27.8659C37.2386 27.8659 37.7712 27.3253 37.7712 26.6583C37.7712 25.9914 37.2386 25.4507 36.5816 25.4507C35.9246 25.4507 35.392 25.9914 35.392 26.6583C35.392 27.3253 35.9246 27.8659 36.5816 27.8659Z" fill="#5798F7"/>
<path d="M37.6062 27.5868C37.8242 27.5868 38.001 27.4074 38.001 27.186C38.001 26.9646 37.8242 26.7852 37.6062 26.7852C37.3881 26.7852 37.2113 26.9646 37.2113 27.186C37.2113 27.4074 37.3881 27.5868 37.6062 27.5868Z" fill="white"/>
<path d="M39.2006 35.558L36.0068 35.903L36.3766 39.4395L39.3256 36.7503L39.2006 35.558Z" fill="#F9D346"/>
<path d="M48.2073 19.1591C48.0374 19.1591 47.8774 19.0677 47.7925 18.9054C46.8828 17.1397 45.5533 15.5921 43.9539 14.4353C43.7439 14.2831 43.694 13.9888 43.8439 13.7757C43.9938 13.5626 44.2837 13.5118 44.4937 13.664C46.213 14.9122 47.6375 16.5714 48.6172 18.469C48.7371 18.7024 48.6471 18.9866 48.4222 19.1083C48.3522 19.1439 48.2773 19.1642 48.2073 19.1642V19.1591Z" fill="#F9D346"/>
<path d="M43.654 52.449C43.654 52.4947 43.654 52.5353 43.654 52.5809C43.614 53.5551 42.8343 54.3467 41.8596 54.3771L41.5197 54.3872L37.1513 54.5192L37.3713 56.6299C37.5562 58.3906 36.1567 59.9077 34.4123 59.8366C30.3189 59.6641 27.135 56.158 27.305 51.9974L27.3949 49.8106C27.5399 46.269 29.804 43.179 33.1028 42.017L39.8104 39.6577C41.2548 39.1503 42.7393 40.3021 42.6393 41.8496L42.5544 43.1079C43.419 43.2399 44.0988 43.9908 44.1238 44.9092C44.1238 44.9548 44.1238 44.9954 44.1238 45.0411C44.0838 46.0153 43.3041 46.8119 42.3294 46.8373C43.3491 46.8068 44.1988 47.6237 44.2287 48.6588C44.2287 48.7045 44.2287 48.7451 44.2287 48.7907C44.1888 49.7649 43.409 50.5615 42.4344 50.5869L42.0695 50.597V50.6478C42.9442 50.7695 43.634 51.5256 43.659 52.4541L43.654 52.449Z" fill="white"/>
<path d="M34.3274 60.3085C34.2824 60.3085 34.2374 60.3085 34.1925 60.3085C33.9376 60.2983 33.7376 60.0802 33.7476 59.8163C33.7576 59.5576 33.9725 59.3546 34.2324 59.3647C34.9822 59.3952 35.7469 59.0705 36.2767 58.4971C36.7565 57.9796 36.9814 57.3301 36.9165 56.6806L36.6965 54.5699C36.6815 54.438 36.7215 54.3061 36.8065 54.2097C36.8915 54.1082 37.0114 54.0524 37.1414 54.0473L41.8497 53.9052C42.5744 53.8849 43.1592 53.2963 43.1892 52.5606C43.1892 52.5302 43.1892 52.4947 43.1892 52.4642C43.1692 51.7742 42.6693 51.2059 41.9996 51.1146C41.7547 51.0791 41.5797 50.8609 41.5997 50.6123V50.5615C41.6197 50.318 41.8147 50.1302 42.0546 50.1252L42.4194 50.115C43.1442 50.0947 43.734 49.5061 43.7639 48.7704C43.7639 48.74 43.7639 48.7045 43.7639 48.674C43.744 47.9028 43.1092 47.2888 42.3445 47.3091C42.3445 47.3091 42.3345 47.3091 42.3295 47.3091C42.0796 47.3091 41.8696 47.1062 41.8646 46.8474C41.8596 46.5886 42.0596 46.3705 42.3195 46.3603C43.0392 46.34 43.629 45.7514 43.659 45.0157C43.659 44.9853 43.659 44.9498 43.659 44.9193C43.639 44.2394 43.1492 43.6711 42.4894 43.5697C42.2495 43.5341 42.0796 43.316 42.0946 43.0724L42.1795 41.8141C42.2195 41.2357 41.9796 40.708 41.5248 40.3528C41.0749 40.0027 40.5051 39.9114 39.9653 40.0991L33.2578 42.4585C30.119 43.5595 27.9997 46.4516 27.8598 49.8258V49.8512L27.7648 50.9015C27.7398 51.1602 27.5149 51.353 27.26 51.3277C27.0051 51.3023 26.8152 51.074 26.8402 50.8152L26.9351 49.7801C27.0951 46.0254 29.4542 42.8035 32.9579 41.5705L39.6655 39.2112C40.4901 38.922 41.3998 39.0691 42.0946 39.6069C42.7893 40.1448 43.1692 40.9972 43.1092 41.8801L43.0542 42.7426C43.9439 43.0572 44.5687 43.9045 44.5986 44.894C44.5986 44.9498 44.5986 45.0005 44.5986 45.0563C44.5687 45.7565 44.2338 46.3806 43.729 46.7916C44.2987 47.2026 44.6836 47.8774 44.7036 48.6385C44.7036 48.6943 44.7036 48.7501 44.7036 48.8009C44.6686 49.6787 44.1538 50.4296 43.4241 50.8C43.8489 51.216 44.1138 51.7894 44.1288 52.4287C44.1288 52.4845 44.1288 52.5353 44.1288 52.5911C44.0788 53.819 43.0942 54.8033 41.8846 54.8388L41.5448 54.849L37.6812 54.9657L37.8511 56.569C37.9461 57.4975 37.6362 58.4109 36.9664 59.1313C36.2867 59.8671 35.312 60.2983 34.3424 60.2983L34.3274 60.3085Z" fill="#5798F7"/>
<path d="M38.9707 51.2059C38.7208 51.2059 38.5158 51.008 38.5059 50.7543C38.4959 50.4956 38.6958 50.2723 38.9507 50.2622L42.4094 50.115C42.6693 50.1049 42.8842 50.3078 42.8942 50.5666C42.9042 50.8254 42.7043 51.0486 42.4494 51.0588L38.9907 51.2059H38.9707V51.2059Z" fill="#5798F7"/>
<path d="M38.8707 47.5476C38.6258 47.5476 38.4209 47.3497 38.4059 47.1011C38.3909 46.8423 38.5908 46.6191 38.8457 46.6039L42.9492 46.3908C43.2041 46.3755 43.424 46.5785 43.439 46.8373C43.454 47.096 43.2541 47.3193 42.9992 47.3345L38.8957 47.5476H38.8707Z" fill="#5798F7"/>
<path d="M39.0307 43.6458C38.7758 43.6458 38.5709 43.4378 38.5659 43.1841C38.5659 42.9253 38.7658 42.7071 39.0207 42.702L42.5444 42.6361C42.7993 42.6361 43.0142 42.839 43.0192 43.0978C43.0192 43.3566 42.8193 43.5748 42.5644 43.5798L39.0407 43.6458H39.0307Z" fill="#5798F7"/>
<path d="M198.907 71.7857C203.41 65.5143 203.41 57.0105 198.907 50.7391L187.681 35.1013C172.192 14.7194 168.093 12.3499 148.71 15.0746L113.638 28.5052L174.051 75.5099C181.903 81.5479 193.104 79.8684 198.907 71.7857Z" fill="#B6DAFF"/>
<path d="M187.586 52.2156C187.561 52.2156 187.531 52.2156 187.506 52.2055L163.7 47.2026C163.49 47.1569 163.35 46.9489 163.395 46.7307C163.44 46.5176 163.645 46.3755 163.86 46.4212L187.666 51.4241C187.876 51.4698 188.016 51.6778 187.971 51.896C187.931 52.0837 187.771 52.2105 187.586 52.2105V52.2156Z" fill="white"/>
<path d="M184.097 51.3886C184.012 51.3886 183.932 51.3632 183.862 51.3074C183.693 51.1755 183.658 50.9268 183.787 50.7493L185.337 48.6791C185.467 48.5066 185.712 48.4711 185.887 48.603C186.057 48.7349 186.092 48.9835 185.962 49.1611L184.412 51.2313C184.337 51.3328 184.217 51.3886 184.102 51.3886H184.097Z" fill="white"/>
<path d="M163.66 8.33643C163.245 8.07766 162.735 7.94574 162.185 7.96096H161.751C160.466 7.94574 159.416 9.00112 159.416 10.3051V10.4827C158.177 9.80279 157.247 8.39225 157.067 6.68741C157.037 6.38298 157.027 6.08362 157.047 5.78933C156.258 6.09884 155.373 6.32209 154.428 6.42357C150.8 6.81426 147.666 5.29716 147.431 3.0342L160.456 1.62873H160.496L160.566 1.61858C160.846 1.59828 161.096 1.6135 161.331 1.66424V0.471874C161.331 0.213104 161.536 0 161.796 0C162.055 0 162.26 0.213104 162.26 0.471874V1.34459H163.215C163.47 1.34459 163.68 1.55769 163.68 1.81646C163.68 2.07523 163.47 2.28833 163.215 2.28833H162.43C163.14 3.04942 163.47 4.37371 163.63 5.91618C163.72 6.78382 163.745 7.61086 163.655 8.33136L163.66 8.33643Z" fill="#F9D346"/>
<path d="M168.933 18.3371C163.725 18.3473 158.977 21.3561 156.682 26.1053L156.647 26.1814L155.898 19.0119L152.809 19.3468C151.904 19.4432 151.095 18.7785 150.995 17.8652L150.595 14.1308L148.76 14.3287C148.381 14.3693 148.066 14.0243 148.136 13.6438L149.265 7.50432C149.375 6.90052 149.61 6.34239 149.945 5.8553C151.174 6.37791 152.749 6.60624 154.433 6.42358C155.378 6.3221 156.268 6.09885 157.052 5.78934C157.032 6.08362 157.042 6.38298 157.072 6.68742C157.252 8.39733 158.182 9.80787 159.421 10.4827V10.3051C159.421 8.99605 160.471 7.94575 161.756 7.9559H162.19C162.35 7.9559 162.51 7.96604 162.66 7.98634C162.75 8.48358 162.775 9.00112 162.725 9.53388L163.58 12.9283L168.938 18.3371H168.933Z" fill="white"/>
<path d="M156.617 26.4452C156.383 26.4452 156.183 26.2676 156.158 26.0241L155.478 19.5295L153.319 19.7629C151.904 19.9151 150.63 18.8749 150.48 17.439L150.18 14.6484L148.805 14.7955C148.475 14.831 148.156 14.7093 147.936 14.4606C147.716 14.212 147.616 13.8822 147.676 13.5524L148.8 8.07767C148.99 7.14407 149.22 6.6316 149.73 5.96692C149.89 5.75889 150.18 5.72337 150.385 5.88574C150.59 6.0481 150.625 6.34239 150.465 6.55042C150.045 7.09333 149.875 7.48402 149.715 8.27555L148.59 13.7402C148.585 13.7757 148.6 13.8061 148.62 13.8264C148.635 13.8467 148.665 13.867 148.71 13.8619L150.545 13.664C150.8 13.6387 151.03 13.8264 151.055 14.0852L151.404 17.3426C151.504 18.261 152.319 18.9257 153.224 18.8293L155.848 18.5451C155.968 18.5299 156.093 18.5705 156.188 18.6466C156.283 18.7278 156.343 18.8394 156.358 18.9663L157.087 25.9328C157.112 26.1915 156.927 26.4249 156.672 26.4503C156.657 26.4503 156.637 26.4503 156.622 26.4503L156.617 26.4452Z" fill="#5798F7"/>
<path d="M168.728 18.8293C168.608 18.8293 168.483 18.7785 168.393 18.6872L163.235 13.253C163.055 13.0653 163.06 12.7659 163.245 12.5833C163.43 12.4006 163.725 12.4057 163.905 12.5934L169.063 18.0276C169.243 18.2153 169.238 18.5147 169.053 18.6973C168.963 18.7836 168.848 18.8293 168.728 18.8293Z" fill="#5798F7"/>
<path d="M155.888 19.4787C155.653 19.4787 155.453 19.3012 155.428 19.0576C155.403 18.7988 155.588 18.5654 155.843 18.5401L158.152 18.2915C158.407 18.2661 158.637 18.4538 158.662 18.7126C158.687 18.9714 158.502 19.2048 158.247 19.2301L155.938 19.4787C155.938 19.4787 155.903 19.4787 155.888 19.4787V19.4787Z" fill="#5798F7"/>
<path d="M159.416 10.8582V10.3051C159.416 9.00111 160.466 7.94574 161.751 7.95588H162.185C163.43 7.93051 164.48 8.64593 164.625 9.88397L164.695 10.4928C164.714 12.7304 163.46 13.7604 161.611 13.7604L159.416 10.8582V10.8582Z" fill="white"/>
<path d="M162.58 11.9846C162.58 11.9846 162.56 11.9846 162.55 11.9846L160.986 11.8882C160.806 11.878 160.651 11.7613 160.581 11.5939C160.516 11.4265 160.551 11.2336 160.671 11.0966L161.746 9.90935C161.921 9.71655 162.215 9.7064 162.405 9.87891C162.595 10.0565 162.605 10.3559 162.435 10.5487L162.021 11.0053L162.605 11.0408C162.86 11.0561 163.055 11.2793 163.04 11.5432C163.025 11.7918 162.82 11.9846 162.575 11.9846H162.58Z" fill="#5798F7"/>
<path d="M161.611 14.2323C161.356 14.2323 161.146 14.0192 161.146 13.7604C161.146 13.5017 161.356 13.2886 161.611 13.2886C162.46 13.2886 163.11 13.0602 163.555 12.6036C164.01 12.1368 164.235 11.4417 164.23 10.5233L164.16 9.93978C164.035 8.87426 163.075 8.41254 162.19 8.43283C162.19 8.43283 162.18 8.43283 162.175 8.43283H161.741C161.246 8.41761 160.776 8.61549 160.421 8.97067C160.066 9.32584 159.876 9.79771 159.876 10.3051V10.8582C159.876 11.1169 159.666 11.33 159.411 11.33C159.157 11.33 158.947 11.1169 158.947 10.8582V10.3051C158.947 9.54909 159.237 8.83367 159.771 8.30091C160.301 7.76815 161.001 7.47386 161.751 7.48401H162.18C163.735 7.45864 164.919 8.41761 165.084 9.82816L165.154 10.437C165.154 10.437 165.154 10.4725 165.154 10.4878C165.164 11.6751 164.849 12.6137 164.21 13.2683C163.595 13.8974 162.695 14.2323 161.606 14.2323H161.611Z" fill="#5798F7"/>
<path d="M150.73 15.927C150.56 15.927 150.4 15.8357 150.315 15.6733C150.195 15.4399 150.285 15.1558 150.51 15.034L153.279 13.5626C153.504 13.4408 153.789 13.5321 153.908 13.7605C154.028 13.9888 153.938 14.278 153.714 14.3998L150.945 15.8712C150.875 15.9067 150.8 15.927 150.73 15.927Z" fill="#5798F7"/>
<path d="M155.108 14.9224C156.19 14.9224 157.067 14.0319 157.067 12.9334C157.067 11.8349 156.19 10.9444 155.108 10.9444C154.026 10.9444 153.149 11.8349 153.149 12.9334C153.149 14.0319 154.026 14.9224 155.108 14.9224Z" fill="#91E6F0"/>
<path d="M154.018 14.9832C153.878 14.9832 153.739 14.9173 153.649 14.7955L152.894 13.7909C152.739 13.5828 152.779 13.2886 152.984 13.1313C153.189 12.974 153.479 13.0146 153.634 13.2226L154.388 14.2272C154.543 14.4353 154.503 14.7295 154.298 14.8868C154.213 14.9528 154.113 14.9832 154.018 14.9832Z" fill="#5798F7"/>
<path d="M151.454 10.9444C151.219 10.9444 151.02 10.7668 150.995 10.5233C150.965 10.2341 151.045 9.94488 151.229 9.72162C151.409 9.4933 151.669 9.35123 151.954 9.32078C152.239 9.29034 152.524 9.37152 152.744 9.55926C152.969 9.74192 153.109 10.0058 153.139 10.295C153.164 10.5537 152.979 10.7871 152.724 10.8125C152.469 10.8379 152.239 10.6501 152.214 10.3914C152.209 10.3356 152.179 10.3051 152.159 10.2899C152.139 10.2747 152.104 10.2493 152.049 10.2595C151.994 10.2645 151.964 10.295 151.949 10.3153C151.934 10.3356 151.909 10.3711 151.919 10.4269C151.944 10.6857 151.759 10.9191 151.504 10.9444C151.489 10.9444 151.469 10.9444 151.454 10.9444V10.9444Z" fill="#5798F7"/>
<path d="M112.194 112.879L86.6282 117.583L89.827 112.144H111.854L112.194 112.879Z" fill="#B6DAFF"/>
<path d="M123.705 132.353C123.55 132.353 123.395 132.272 123.305 132.125L111.599 112.615H90.0819L78.3762 132.125C78.2413 132.348 77.9564 132.419 77.7365 132.282C77.5165 132.145 77.4466 131.856 77.5815 131.632L89.4222 111.895C89.5071 111.753 89.6571 111.667 89.822 111.667H111.859C112.019 111.667 112.174 111.753 112.259 111.895L124.099 131.632C124.234 131.856 124.164 132.145 123.944 132.282C123.87 132.328 123.785 132.353 123.705 132.353V132.353Z" fill="#5798F7"/>
<path d="M65.4609 24.7302H147.536C152.424 24.7302 156.393 28.7589 156.393 33.7212V103.153C156.393 108.115 152.424 112.144 147.536 112.144H54.2501C49.3619 112.144 45.3933 108.115 45.3933 103.153V45.102C45.3933 33.8582 54.385 24.7302 65.4609 24.7302Z" fill="white"/>
<path d="M45.3934 90.3663C45.1385 90.3663 44.9285 90.1532 44.9285 89.8945V35.9436C44.9285 35.6848 45.1385 35.4717 45.3934 35.4717C45.6483 35.4717 45.8582 35.6848 45.8582 35.9436V89.8894C45.8582 90.1482 45.6483 90.3613 45.3934 90.3613V90.3663Z" fill="#5798F7"/>
<path d="M45.3934 96.5514C45.1385 96.5514 44.9285 96.3383 44.9285 96.0795V93.7354C44.9285 93.4766 45.1385 93.2635 45.3934 93.2635C45.6483 93.2635 45.8582 93.4766 45.8582 93.7354V96.0795C45.8582 96.3383 45.6483 96.5514 45.3934 96.5514Z" fill="#5798F7"/>
<path d="M148.481 112.615H53.3055C48.6871 112.615 44.9285 108.8 44.9285 104.112V99.677C44.9285 99.4182 45.1385 99.2051 45.3934 99.2051C45.6483 99.2051 45.8582 99.4182 45.8582 99.677V104.112C45.8582 108.277 49.197 111.672 53.3055 111.672H148.481C152.584 111.672 155.928 108.282 155.928 104.112V88.9406C155.928 88.6818 156.138 88.4687 156.393 88.4687C156.648 88.4687 156.857 88.6818 156.857 88.9406V104.112C156.857 108.8 153.099 112.615 148.481 112.615Z" fill="#5798F7"/>
<path d="M156.393 78.1686C156.138 78.1686 155.928 77.9555 155.928 77.6968V75.5048C155.928 75.2461 156.138 75.033 156.393 75.033C156.647 75.033 156.857 75.2461 156.857 75.5048V77.6968C156.857 77.9555 156.647 78.1686 156.393 78.1686Z" fill="#5798F7"/>
<path d="M156.393 72.2778C156.138 72.2778 155.928 72.0647 155.928 71.806V32.4375C155.928 28.2718 152.589 24.8774 148.48 24.8774H52.3758C52.1209 24.8774 51.9109 24.6643 51.9109 24.4055C51.9109 24.1467 52.1209 23.9336 52.3758 23.9336H148.48C153.099 23.9336 156.857 27.7492 156.857 32.4375V71.811C156.857 72.0698 156.647 72.2829 156.393 72.2829V72.2778Z" fill="#5798F7"/>
<path d="M130.617 90.6606H71.3788C67.459 90.6606 64.2814 93.8864 64.2814 97.8656C64.2814 101.845 67.459 105.071 71.3788 105.071H130.617C134.537 105.071 137.714 101.845 137.714 97.8656C137.714 93.8864 134.537 90.6606 130.617 90.6606Z" fill="#B6DAFF"/>
<path d="M72.9182 99.0782C72.2585 99.0782 71.7237 98.5353 71.7237 97.8656C71.7237 97.1958 72.2585 96.6529 72.9182 96.6529C73.578 96.6529 74.1128 97.1958 74.1128 97.8656C74.1128 98.5353 73.578 99.0782 72.9182 99.0782ZM72.9182 97.4444C72.6933 97.4444 72.5084 97.6322 72.5084 97.8605C72.5084 98.0888 72.6933 98.2765 72.9182 98.2765C73.1431 98.2765 73.3281 98.0888 73.3281 97.8605C73.3281 97.6322 73.1431 97.4444 72.9182 97.4444Z" fill="white"/>
<path d="M77.7265 99.0782C77.0667 99.0782 76.5319 98.5353 76.5319 97.8656C76.5319 97.1958 77.0667 96.6529 77.7265 96.6529C78.3862 96.6529 78.921 97.1958 78.921 97.8656C78.921 98.5353 78.3862 99.0782 77.7265 99.0782ZM77.7265 97.4444C77.5015 97.4444 77.3166 97.6322 77.3166 97.8605C77.3166 98.0888 77.5015 98.2765 77.7265 98.2765C77.9514 98.2765 78.1363 98.0888 78.1363 97.8605C78.1363 97.6322 77.9514 97.4444 77.7265 97.4444Z" fill="white"/>
<path d="M82.5297 99.0782C81.8699 99.0782 81.3351 98.5353 81.3351 97.8656C81.3351 97.1958 81.8699 96.6529 82.5297 96.6529C83.1895 96.6529 83.7243 97.1958 83.7243 97.8656C83.7243 98.5353 83.1895 99.0782 82.5297 99.0782ZM82.5297 97.4444C82.3048 97.4444 82.1199 97.6322 82.1199 97.8605C82.1199 98.0888 82.3048 98.2765 82.5297 98.2765C82.7546 98.2765 82.9396 98.0888 82.9396 97.8605C82.9396 97.6322 82.7546 97.4444 82.5297 97.4444Z" fill="white"/>
<path d="M130.532 104.624C134.209 104.624 137.19 101.598 137.19 97.8656C137.19 94.133 134.209 91.1071 130.532 91.1071C126.855 91.1071 123.875 94.133 123.875 97.8656C123.875 101.598 126.855 104.624 130.532 104.624Z" fill="white"/>
<path d="M130.532 105.03C126.643 105.03 123.475 101.818 123.475 97.8656C123.475 93.913 126.638 90.7012 130.532 90.7012C134.426 90.7012 137.589 93.913 137.589 97.8656C137.589 101.818 134.426 105.03 130.532 105.03ZM130.532 91.513C127.083 91.513 124.274 94.3646 124.274 97.8656C124.274 101.367 127.083 104.218 130.532 104.218C133.981 104.218 136.79 101.367 136.79 97.8656C136.79 94.3646 133.981 91.513 130.532 91.513Z" fill="#5798F7"/>
<path d="M130.442 100.996C128.478 100.996 126.878 99.3725 126.878 97.3785C126.878 95.3844 128.478 93.7608 130.442 93.7608C132.406 93.7608 134.006 95.3844 134.006 97.3785C134.006 99.3725 132.406 100.996 130.442 100.996ZM130.442 94.5675C128.918 94.5675 127.673 95.8259 127.673 97.3785C127.673 98.9311 128.913 100.189 130.442 100.189C131.972 100.189 133.211 98.9311 133.211 97.3785C133.211 95.8259 131.972 94.5675 130.442 94.5675Z" fill="#F9D346"/>
<path d="M132.116 97.7184C131.897 97.7184 131.717 97.5358 131.717 97.3125C131.717 96.6326 131.172 96.0796 130.502 96.0796C130.282 96.0796 130.102 95.8969 130.102 95.6736C130.102 95.4504 130.282 95.2677 130.502 95.2677C131.612 95.2677 132.516 96.1861 132.516 97.3125C132.516 97.5358 132.336 97.7184 132.116 97.7184V97.7184Z" fill="#F9D346"/>
<path d="M133.696 102.189C133.596 102.189 133.491 102.148 133.416 102.072L131.787 100.418C131.632 100.26 131.632 100.002 131.787 99.8444C131.942 99.6871 132.196 99.6871 132.351 99.8444L133.981 101.498C134.136 101.656 134.136 101.915 133.981 102.072C133.901 102.153 133.801 102.189 133.701 102.189H133.696Z" fill="#F9D346"/>
<path d="M54.8249 33.9089C53.6153 33.9089 52.6357 32.9094 52.6357 31.6866C52.6357 30.4638 53.6203 29.4642 54.8249 29.4642C56.0294 29.4642 57.0141 30.4638 57.0141 31.6866C57.0141 32.9094 56.0294 33.9089 54.8249 33.9089ZM54.8249 30.408C54.1301 30.408 53.5653 30.9813 53.5653 31.6866C53.5653 32.3918 54.1301 32.9652 54.8249 32.9652C55.5196 32.9652 56.0844 32.3918 56.0844 31.6866C56.0844 30.9813 55.5196 30.408 54.8249 30.408V30.408Z" fill="#B6DAFF"/>
<path d="M61.0826 33.9089C59.873 33.9089 58.8934 32.9094 58.8934 31.6866C58.8934 30.4638 59.878 29.4642 61.0826 29.4642C62.2871 29.4642 63.2718 30.4638 63.2718 31.6866C63.2718 32.9094 62.2871 33.9089 61.0826 33.9089ZM61.0826 30.408C60.3878 30.408 59.823 30.9813 59.823 31.6866C59.823 32.3918 60.3878 32.9652 61.0826 32.9652C61.7773 32.9652 62.3421 32.3918 62.3421 31.6866C62.3421 30.9813 61.7773 30.408 61.0826 30.408V30.408Z" fill="#B6DAFF"/>
<path d="M67.3353 33.9089C66.1257 33.9089 65.1461 32.9094 65.1461 31.6866C65.1461 30.4638 66.1307 29.4642 67.3353 29.4642C68.5398 29.4642 69.5245 30.4638 69.5245 31.6866C69.5245 32.9094 68.5398 33.9089 67.3353 33.9089ZM67.3353 30.408C66.6405 30.408 66.0757 30.9813 66.0757 31.6866C66.0757 32.3918 66.6405 32.9652 67.3353 32.9652C68.03 32.9652 68.5948 32.3918 68.5948 31.6866C68.5948 30.9813 68.03 30.408 67.3353 30.408V30.408Z" fill="#B6DAFF"/>
<path d="M135 71.5574H93.0208C91.1015 71.5574 89.5421 69.9743 89.5421 68.0259V35.4311C89.5421 33.5842 91.0216 32.0823 92.8409 32.0823H135C136.82 32.0823 138.299 33.5842 138.299 35.4311V68.2136C138.299 70.0605 136.82 71.5624 135 71.5624V71.5574ZM92.8409 33.0261C91.5364 33.0261 90.4718 34.1018 90.4718 35.4311V68.031C90.4718 69.4568 91.6164 70.6187 93.0208 70.6187H135C136.305 70.6187 137.37 69.543 137.37 68.2136V35.4311C137.37 34.1068 136.31 33.0261 135 33.0261H92.8409Z" fill="#B6DAFF"/>
<path d="M137.829 57.8629L128.593 56.432V53.6312H137.829V57.8629Z" fill="#B6DAFF"/>
<path d="M141.303 86.9668C140.848 86.9668 140.418 86.7892 140.099 86.4594L136.9 83.2121L135.845 84.2827C135.385 84.7495 134.726 84.8814 134.131 84.6277C133.531 84.374 133.156 83.8108 133.156 83.1512V76.2152C133.156 75.789 133.321 75.3881 133.616 75.0837C133.916 74.7793 134.311 74.6169 134.731 74.6169H141.563C142.213 74.6169 142.768 74.9975 143.018 75.6063C143.267 76.2152 143.137 76.885 142.678 77.3467L140.988 79.0617C140.808 79.2443 140.513 79.2443 140.328 79.0617C140.149 78.879 140.149 78.5796 140.328 78.3919L142.018 76.6769C142.303 76.3877 142.198 76.0579 142.158 75.9615C142.118 75.8651 141.963 75.5556 141.563 75.5556H134.731C134.561 75.5556 134.396 75.6215 134.276 75.7484C134.156 75.8752 134.086 76.0376 134.086 76.2101V83.1462C134.086 83.5521 134.391 83.7094 134.486 83.75C134.581 83.7905 134.905 83.8971 135.185 83.6079L136.57 82.2024C136.75 82.0197 137.045 82.0197 137.23 82.2024L140.758 85.7846C140.903 85.9317 141.098 86.0129 141.303 86.0129C141.508 86.0129 141.703 85.9317 141.848 85.7846L144.167 83.4303C144.312 83.2831 144.392 83.0853 144.392 82.8772C144.392 82.6692 144.312 82.4713 144.167 82.3242L141.983 80.1069C141.803 79.9242 141.803 79.6249 141.983 79.4371C142.163 79.2545 142.458 79.2545 142.643 79.4371L144.827 81.6544C145.147 81.9792 145.327 82.4155 145.327 82.8772C145.327 83.339 145.152 83.7753 144.827 84.1001L142.508 86.4543C142.188 86.7791 141.758 86.9617 141.303 86.9617V86.9668Z" fill="#5798F7"/>
<path d="M64.4863 55.7876V42.7274C64.4863 40.2259 66.4856 38.1964 68.9497 38.1964H123.72C126.184 38.1964 128.183 40.2259 128.183 42.7274V79.7923C128.183 82.2937 126.184 84.3233 123.72 84.3233H68.9497C66.4856 84.3233 64.4863 82.2937 64.4863 79.7923V59.3343" fill="white"/>
<path d="M123.72 84.7952H68.9497C66.2307 84.7952 64.0215 82.5525 64.0215 79.7923V59.3343H64.9511V79.7923C64.9511 82.0299 66.7455 83.8514 68.9497 83.8514H123.72C125.924 83.8514 127.718 82.0299 127.718 79.7923V42.7274C127.718 40.4898 125.924 38.6683 123.72 38.6683H68.9497C66.7455 38.6683 64.9511 40.4898 64.9511 42.7274V55.7876H64.0215V42.7274C64.0215 39.9672 66.2307 37.7245 68.9497 37.7245H123.72C126.439 37.7245 128.648 39.9672 128.648 42.7274V79.7923C128.648 82.5525 126.439 84.7952 123.72 84.7952V84.7952Z" fill="#F9D346"/>
<path d="M105.126 44.6859H64.4813C64.2264 44.6859 64.0165 44.4728 64.0165 44.2141C64.0165 43.9553 64.2264 43.7422 64.4813 43.7422H105.126C105.381 43.7422 105.591 43.9553 105.591 44.2141C105.591 44.4728 105.381 44.6859 105.126 44.6859Z" fill="#F9D346"/>
<path d="M76.167 75.1649C76.0321 75.1649 75.9021 75.1091 75.8022 75.0025C75.6122 74.7996 75.6272 74.4799 75.8272 74.2871L91.4064 59.4967C91.6014 59.3089 91.9113 59.314 92.1012 59.5068L103.292 70.8673L113.533 56.7821C113.698 56.5589 114.008 56.5081 114.228 56.6756C114.448 56.843 114.498 57.1576 114.333 57.3808L103.747 71.943C103.662 72.0597 103.527 72.1358 103.382 72.1459C103.237 72.1561 103.097 72.1053 102.992 71.9988L91.7313 60.5673L76.5019 75.0228C76.4069 75.1142 76.282 75.1598 76.162 75.1598L76.167 75.1649Z" fill="#B6DAFF"/>
<path d="M91.4215 63.0636C92.6995 63.0636 93.7356 62.0118 93.7356 60.7144C93.7356 59.417 92.6995 58.3652 91.4215 58.3652C90.1434 58.3652 89.1073 59.417 89.1073 60.7144C89.1073 62.0118 90.1434 63.0636 91.4215 63.0636Z" stroke="#F9D346" stroke-miterlimit="10"/>
<path d="M91.4214 63.5355C89.887 63.5355 88.6425 62.2721 88.6425 60.7144C88.6425 59.1567 89.887 57.8933 91.4214 57.8933C92.9559 57.8933 94.2004 59.1567 94.2004 60.7144C94.2004 62.2721 92.9559 63.5355 91.4214 63.5355ZM91.4214 58.8371C90.4018 58.8371 89.5721 59.6793 89.5721 60.7144C89.5721 61.7495 90.4018 62.5918 91.4214 62.5918C92.4411 62.5918 93.2708 61.7495 93.2708 60.7144C93.2708 59.6793 92.4411 58.8371 91.4214 58.8371Z" stroke="#F9D346" stroke-miterlimit="10"/>
<path d="M103.527 72.6026C104.413 72.6026 105.131 71.8734 105.131 70.9739C105.131 70.0743 104.413 69.3451 103.527 69.3451C102.641 69.3451 101.923 70.0743 101.923 70.9739C101.923 71.8734 102.641 72.6026 103.527 72.6026Z" stroke="#F9D346" stroke-miterlimit="10"/>
<path d="M103.527 73.0745C102.387 73.0745 101.458 72.1307 101.458 70.9739C101.458 69.817 102.387 68.8733 103.527 68.8733C104.667 68.8733 105.596 69.817 105.596 70.9739C105.596 72.1307 104.667 73.0745 103.527 73.0745ZM103.527 69.8221C102.902 69.8221 102.392 70.3396 102.392 70.9739C102.392 71.6081 102.902 72.1256 103.527 72.1256C104.152 72.1256 104.662 71.6081 104.662 70.9739C104.662 70.3396 104.152 69.8221 103.527 69.8221Z" stroke="#F9D346" stroke-miterlimit="10"/>
<path d="M114.578 61.8611C114.323 61.8611 114.113 61.648 114.113 61.3892V57.2844H110.27C110.015 57.2844 109.805 57.0713 109.805 56.8126C109.805 56.5538 110.015 56.3407 110.27 56.3407H115.043V61.3943C115.043 61.6531 114.833 61.8662 114.578 61.8662V61.8611Z" fill="#F9D346"/>
<path d="M164.44 82.2938H147.851C147.596 82.2938 147.386 82.0806 147.386 81.8219C147.386 81.5631 147.596 81.35 147.851 81.35H164.44C164.695 81.35 164.904 81.5631 164.904 81.8219C164.904 82.0806 164.695 82.2938 164.44 82.2938Z" fill="#B6DAFF"/>
<path d="M161.006 85.5715H159.736C159.481 85.5715 159.272 85.3584 159.272 85.0996C159.272 84.8409 159.481 84.6277 159.736 84.6277H161.006C161.261 84.6277 161.471 84.8409 161.471 85.0996C161.471 85.3584 161.261 85.5715 161.006 85.5715Z" fill="#B6DAFF"/>
<path d="M156.817 85.5715H147.671C147.416 85.5715 147.206 85.3584 147.206 85.0996C147.206 84.8409 147.416 84.6277 147.671 84.6277H156.817C157.072 84.6277 157.282 84.8409 157.282 85.0996C157.282 85.3584 157.072 85.5715 156.817 85.5715Z" fill="#B6DAFF"/>
<path d="M109.46 53.5095H128.593V56.432L109.46 53.5095Z" fill="#F9D346"/>
<path d="M140.708 44.2141H111.164C108.603 44.2141 106.526 46.3222 106.526 48.9226C106.526 51.5231 108.603 53.6312 111.164 53.6312H140.708C143.27 53.6312 145.347 51.5231 145.347 48.9226C145.347 46.3222 143.27 44.2141 140.708 44.2141Z" fill="white"/>
<path d="M141.013 54.1031H110.869C108.22 54.1031 106.066 51.9162 106.066 49.2271V48.6233C106.066 45.9341 108.22 43.7473 110.869 43.7473H141.013C143.662 43.7473 145.816 45.9341 145.816 48.6233V49.2271C145.816 51.9162 143.662 54.1031 141.013 54.1031ZM110.869 44.6859C108.735 44.6859 106.996 46.4516 106.996 48.6182V49.222C106.996 51.3886 108.735 53.1543 110.869 53.1543H141.013C143.147 53.1543 144.887 51.3886 144.887 49.222V48.6182C144.887 46.4516 143.147 44.6859 141.013 44.6859H110.869Z" fill="#5798F7"/>
<path d="M125.944 45.995L126.813 47.7861L128.758 48.0753L127.348 49.4655L127.683 51.4342L125.944 50.5057L124.204 51.4342L124.534 49.4655L123.125 48.0753L125.074 47.7861L125.944 45.995Z" fill="#F9D346"/>
<path d="M116.457 45.995L117.327 47.7861L119.271 48.0753L117.867 49.4655L118.197 51.4342L116.457 50.5057L114.718 51.4342L115.048 49.4655L113.643 48.0753L115.588 47.7861L116.457 45.995Z" fill="#F9D346"/>
<path d="M135.425 45.995L136.3 47.7861L138.244 48.0753L136.835 49.4655L137.17 51.4342L135.425 50.5057L133.686 51.4342L134.021 49.4655L132.611 48.0753L134.556 47.7861L135.425 45.995Z" fill="#F9D346"/>
<path d="M70.859 73.2267L64.9311 81.0253C64.7312 81.2587 64.1514 80.7107 64.1514 80.4012V73.2267H70.859Z" fill="#F9D346"/>
<path d="M62.807 77.1386C67.9938 77.1386 72.1985 72.8702 72.1985 67.6048C72.1985 62.3394 67.9938 58.0709 62.807 58.0709C57.6201 58.0709 53.4154 62.3394 53.4154 67.6048C53.4154 72.8702 57.6201 77.1386 62.807 77.1386Z" fill="white"/>
<path d="M62.8069 77.6105C57.3739 77.6105 52.9506 73.1252 52.9506 67.6048C52.9506 62.0844 57.3689 57.599 62.8069 57.599C68.2449 57.599 72.6633 62.0844 72.6633 67.6048C72.6633 73.1252 68.2449 77.6105 62.8069 77.6105ZM62.8069 58.5479C57.8838 58.5479 53.8852 62.6121 53.8852 67.6048C53.8852 72.5975 57.8887 76.6617 62.8069 76.6617C67.7251 76.6617 71.7287 72.5975 71.7287 67.6048C71.7287 62.6121 67.7251 58.5479 62.8069 58.5479Z" fill="#5798F7"/>
<path d="M59.2183 66.5088C58.3136 66.5088 57.5839 65.7629 57.5839 64.8496C57.5839 63.9363 58.3186 63.1905 59.2183 63.1905C60.1179 63.1905 60.8527 63.9363 60.8527 64.8496C60.8527 65.7629 60.1179 66.5088 59.2183 66.5088ZM59.2183 64.1291C58.8284 64.1291 58.5135 64.4488 58.5135 64.8446C58.5135 65.2403 58.8284 65.56 59.2183 65.56C59.6081 65.56 59.923 65.2403 59.923 64.8446C59.923 64.4488 59.6081 64.1291 59.2183 64.1291Z" fill="#5798F7"/>
<path d="M60.108 72.2981H58.3286C57.4639 72.2981 56.6792 71.811 56.2894 71.0297C55.8995 70.2483 55.9695 69.3198 56.4793 68.6094L57.0491 67.8128C57.5589 67.1024 58.3486 66.6915 59.2183 66.6915C60.088 66.6915 60.8777 67.0974 61.3875 67.8128L61.9573 68.6094C62.4671 69.3198 62.5421 70.2483 62.1472 71.0297C61.7524 71.811 60.9726 72.2981 60.108 72.2981ZM57.229 69.1625C56.9241 69.5887 56.8791 70.1265 57.1141 70.5984C57.349 71.0702 57.8038 71.3544 58.3236 71.3544H60.103C60.6228 71.3544 61.0776 71.0702 61.3125 70.5984C61.5474 70.1265 61.5074 69.5887 61.1976 69.1625L60.6278 68.3659C60.2929 67.8991 59.7781 67.6352 59.2133 67.6352C58.6485 67.6352 58.1287 67.8991 57.7988 68.3659L57.229 69.1625Z" fill="#5798F7"/>
<path d="M66.5506 66.5088C65.6459 66.5088 64.9162 65.7629 64.9162 64.8496C64.9162 63.9363 65.6509 63.1905 66.5506 63.1905C67.4502 63.1905 68.185 63.9363 68.185 64.8496C68.185 65.7629 67.4502 66.5088 66.5506 66.5088ZM66.5506 64.1291C66.1607 64.1291 65.8458 64.4488 65.8458 64.8446C65.8458 65.2403 66.1607 65.56 66.5506 65.56C66.9404 65.56 67.2553 65.2403 67.2553 64.8446C67.2553 64.4488 66.9404 64.1291 66.5506 64.1291Z" fill="#F9D346"/>
<path d="M62.8069 65.3164C61.9023 65.3164 61.1725 64.5706 61.1725 63.6573C61.1725 62.744 61.9073 61.9981 62.8069 61.9981C63.7066 61.9981 64.4413 62.744 64.4413 63.6573C64.4413 64.5706 63.7066 65.3164 62.8069 65.3164V65.3164ZM62.8069 62.9368C62.4171 62.9368 62.1022 63.2564 62.1022 63.6522C62.1022 64.048 62.4171 64.3676 62.8069 64.3676C63.1968 64.3676 63.5117 64.048 63.5117 63.6522C63.5117 63.2564 63.1968 62.9368 62.8069 62.9368Z" fill="#B6DAFF"/>
<path d="M64.0015 67.0365C63.8815 67.0365 63.7616 66.9908 63.6716 66.8995C63.1918 66.4124 62.4121 66.4124 61.9323 66.8995C61.7523 67.0822 61.4574 67.0822 61.2725 66.8995C61.0926 66.7168 61.0926 66.4175 61.2725 66.2297C62.1172 65.3773 63.4867 65.3773 64.3264 66.2297C64.5063 66.4124 64.5063 66.7118 64.3264 66.8995C64.2364 66.9908 64.1164 67.0365 63.9965 67.0365H64.0015Z" fill="#B6DAFF"/>
<path d="M67.4452 72.2981H65.6659C64.8012 72.2981 64.0165 71.811 63.6266 71.0297C63.2318 70.2483 63.3068 69.3198 63.8166 68.6094L64.3864 67.8128C64.8962 67.1024 65.6859 66.6915 66.5556 66.6915C67.4252 66.6915 68.2149 67.0974 68.7248 67.8128L69.2946 68.6094C69.8044 69.3198 69.8793 70.2483 69.4845 71.0297C69.0896 71.811 68.3099 72.2981 67.4452 72.2981V72.2981ZM66.5556 67.6352C65.9908 67.6352 65.471 67.8991 65.1411 68.3659L64.5713 69.1625C64.2664 69.5887 64.2214 70.1265 64.4563 70.5984C64.6912 71.0702 65.1461 71.3544 65.6659 71.3544H67.4452C67.965 71.3544 68.4199 71.0702 68.6548 70.5984C68.8897 70.1265 68.8497 69.5887 68.5398 69.1625L67.97 68.3659C67.6352 67.8991 67.1204 67.6352 66.5556 67.6352Z" fill="#F9D346"/>
<path d="M40.1553 116.588C40.3352 116.771 40.3352 117.075 40.1553 117.258C40.0653 117.349 39.9453 117.395 39.8254 117.395C39.7054 117.395 39.5855 117.349 39.4955 117.258L38.8108 116.563L38.126 117.258C38.036 117.349 37.9161 117.395 37.7961 117.395C37.6762 117.395 37.5562 117.349 37.4662 117.258C37.2863 117.075 37.2863 116.776 37.4662 116.588L38.151 115.893L37.4662 115.198C37.2863 115.015 37.2863 114.716 37.4662 114.528C37.6462 114.346 37.9411 114.346 38.126 114.528L38.8108 115.223L39.4955 114.528C39.6754 114.346 39.9703 114.346 40.1553 114.528C40.3352 114.711 40.3352 115.01 40.1553 115.198L39.4705 115.893L40.1553 116.588Z" fill="#F9D346"/>
<path d="M86.7082 13.4306C86.8881 13.6133 86.8881 13.9127 86.7082 14.1004C86.6182 14.1917 86.4983 14.2374 86.3783 14.2374C86.2583 14.2374 86.1384 14.1917 86.0484 14.1004L85.3637 13.4053L84.6789 14.1004C84.589 14.1917 84.469 14.2374 84.349 14.2374C84.2291 14.2374 84.1091 14.1917 84.0192 14.1004C83.8392 13.9177 83.8392 13.6184 84.0192 13.4306L84.7039 12.7355L84.0192 12.0404C83.8392 11.8577 83.8392 11.5584 84.0192 11.3706C84.1991 11.188 84.494 11.188 84.6789 11.3706L85.3637 12.0658L86.0484 11.3706C86.2284 11.188 86.5282 11.188 86.7082 11.3706C86.8881 11.5533 86.8881 11.8527 86.7082 12.0404L86.0234 12.7355L86.7082 13.4306Z" fill="#F9D346"/>
<path d="M165.484 51.1957L165.609 51.6118C166.819 55.676 163.805 59.7706 159.621 59.7453L157.337 59.7301C156.068 59.7199 154.838 59.385 154.228 57.9897C153.764 58.6239 152.524 59.5575 151.709 59.2785L148.505 58.1876C147.741 57.9288 147.141 57.3149 146.886 56.5386L146.626 55.742C146.181 54.3771 146.906 52.9006 148.251 52.4439L147.671 52.6418C146.646 52.9868 145.542 52.4236 145.197 51.3835L144.957 50.6478C144.667 49.7547 145.032 48.8009 145.791 48.329L139.679 50.1911C139.484 50.252 139.284 50.2824 139.084 50.2824C138.249 50.2824 137.475 49.7649 137.16 48.9378C136.775 47.9078 137.24 46.751 138.229 46.2943L151.339 40.2361C152.554 39.6729 153.963 39.7744 155.093 40.4999L159.676 43.4428C162.465 45.2339 164.525 47.989 165.479 51.1957H165.484Z" fill="white"/>
<path d="M159.621 60.2172L157.337 60.2019C155.838 60.1867 154.788 59.725 154.138 58.7863C153.474 59.4053 152.429 60.0244 151.564 59.7301L148.361 58.6392C147.461 58.3347 146.746 57.6041 146.446 56.6908L146.186 55.8942C145.871 54.9403 146.051 53.9407 146.571 53.1695C145.752 52.997 145.042 52.3983 144.757 51.5357L144.517 50.7949C144.342 50.2621 144.357 49.704 144.527 49.2068L139.814 50.6427C139.574 50.7137 139.334 50.7492 139.089 50.7492C138.049 50.7492 137.1 50.0846 136.73 49.1002C136.255 47.8368 136.835 46.4161 138.044 45.858L151.155 39.7997C152.519 39.1706 154.083 39.2822 155.348 40.094C155.358 40.094 155.363 40.1042 155.368 40.1093L164.055 46.4313C164.265 46.5836 164.31 46.8778 164.16 47.091C164.01 47.3041 163.72 47.3497 163.51 47.1975L154.833 40.8856C153.839 40.2513 152.604 40.1651 151.534 40.6623L138.424 46.7206C137.659 47.0707 137.295 47.9738 137.595 48.7704C137.829 49.3945 138.424 49.8106 139.084 49.8106C139.239 49.8106 139.394 49.7852 139.544 49.7395L145.657 47.8774C145.881 47.8064 146.121 47.918 146.216 48.1362C146.311 48.3544 146.236 48.6081 146.036 48.7298C145.442 49.1002 145.182 49.8258 145.402 50.4955L145.642 51.2313C145.901 52.0228 146.746 52.4541 147.526 52.1902L148.106 51.9924C148.351 51.9112 148.61 52.0431 148.695 52.2917C148.775 52.5403 148.645 52.8042 148.401 52.8904C147.301 53.2608 146.701 54.4735 147.071 55.5898L147.331 56.3864C147.541 57.0206 148.036 57.5229 148.66 57.736L151.864 58.8269C152.384 59.0045 153.444 58.2739 153.864 57.7005C153.963 57.5635 154.123 57.4925 154.288 57.5128C154.453 57.5331 154.593 57.6345 154.663 57.7918C155.098 58.7863 155.928 59.2379 157.352 59.248L159.631 59.2633C159.886 59.2633 160.096 59.4764 160.096 59.7402C160.096 59.999 159.886 60.2121 159.631 60.2121L159.621 60.2172Z" fill="#5798F7"/>
<path d="M152.319 59.8569C152.069 59.8569 151.814 59.8163 151.564 59.7301L148.361 58.6392C147.461 58.3347 146.746 57.6041 146.446 56.6908L146.186 55.8942C145.657 54.2807 146.521 52.5353 148.111 52.0025L153.744 50.0998C153.988 50.0186 154.248 50.1505 154.333 50.3991C154.413 50.6478 154.283 50.9167 154.038 50.9979L148.406 52.9006C147.306 53.271 146.706 54.4836 147.071 55.5999L147.331 56.3965C147.541 57.0307 148.036 57.5331 148.66 57.7462L151.864 58.837C152.304 58.9842 152.769 58.9132 153.144 58.6392C153.519 58.3652 153.734 57.939 153.734 57.4722V56.64C153.734 56.3813 153.943 56.1682 154.198 56.1682C154.453 56.1682 154.663 56.3813 154.663 56.64V57.4722C154.663 58.2485 154.308 58.9537 153.684 59.4104C153.274 59.7098 152.799 59.862 152.319 59.862V59.8569Z" fill="#5798F7"/>
<path d="M145.027 49.0393C144.837 49.0393 144.657 48.9176 144.587 48.7248C144.502 48.4761 144.627 48.2072 144.872 48.121L151.469 45.7565C151.709 45.6703 151.979 45.7971 152.064 46.0457C152.149 46.2944 152.024 46.5633 151.779 46.6495L145.182 49.014C145.132 49.0343 145.077 49.0393 145.027 49.0393V49.0393Z" fill="#5798F7"/>
<path d="M152.049 57.3403C151.834 57.3403 151.644 57.1931 151.594 56.9749C151.539 56.7212 151.694 56.4675 151.944 56.4117L155.913 55.4934C156.163 55.4375 156.413 55.5948 156.468 55.8485C156.523 56.1022 156.368 56.3559 156.118 56.4117L152.149 57.3301C152.114 57.3403 152.079 57.3403 152.044 57.3403H152.049Z" fill="#5798F7"/>
<path d="M138.629 49.5772C139.289 49.5772 139.824 49.0343 139.824 48.3645C139.824 47.6948 139.289 47.1519 138.629 47.1519C137.969 47.1519 137.435 47.6948 137.435 48.3645C137.435 49.0343 137.969 49.5772 138.629 49.5772Z" fill="#B6DAFF"/>
<path d="M91.4214 62.5918C92.4428 62.5918 93.2708 61.7512 93.2708 60.7144C93.2708 59.6776 92.4428 58.8371 91.4214 58.8371C90.4001 58.8371 89.5721 59.6776 89.5721 60.7144C89.5721 61.7512 90.4001 62.5918 91.4214 62.5918Z" fill="white"/>
<path d="M103.527 72.4554C104.333 72.4554 104.986 71.7921 104.986 70.9739C104.986 70.1556 104.333 69.4923 103.527 69.4923C102.721 69.4923 102.068 70.1556 102.068 70.9739C102.068 71.7921 102.721 72.4554 103.527 72.4554Z" fill="white"/>
</g>
<defs>
<clipPath id="clip0_1_10">
<rect width="202.286" height="120" fill="white"/>
</clipPath>
</defs>
</svg>
