<svg width="111" height="73" viewBox="0 0 111 73" fill="none" xmlns="http://www.w3.org/2000/svg">
<g clip-path="url(#clip0_3240_27345)">
<path d="M78.3898 5.06775H31.1892C23.4904 5.06775 17.2492 11.2506 17.2492 18.8776V55.8122C17.2492 63.4392 23.4904 69.6221 31.1892 69.6221H78.3898C86.0886 69.6221 92.3298 63.4392 92.3298 55.8122V18.8776C92.3298 11.2506 86.0886 5.06775 78.3898 5.06775Z" fill="#B6DAFF"/>
<path d="M50.1701 61.9656H48.6095V61.5003H50.1701V61.9656ZM47.5642 61.9656H46.5213V61.5003H47.5642V61.9656ZM45.4761 61.9656H44.4332V61.5003H45.4761V61.9656ZM43.388 61.9656H42.3451V61.5003H43.388V61.9656ZM41.2999 61.9656H40.257V61.5003H41.2999V61.9656ZM39.2117 61.9656H38.1689V61.5003H39.2117V61.9656ZM37.1236 61.9656H36.0808V61.5003H37.1236V61.9656ZM35.0355 61.9656H33.9927V61.5003H35.0355V61.9656ZM32.9474 61.9656H31.9045V61.5003H32.9474V61.9656ZM30.8593 61.9656H29.8164V61.5003H30.8593V61.9656ZM28.7712 61.9656H28.5905C28.2678 61.9656 27.9547 61.9011 27.6585 61.7747L27.8463 61.3476C28.0824 61.4478 28.3328 61.5003 28.5905 61.5003H28.7712V61.9656ZM50.7626 61.684L50.5386 61.276C50.8108 61.1281 51.0444 60.9157 51.213 60.6581L51.6056 60.9133C51.3936 61.2355 51.1022 61.5003 50.7626 61.684ZM26.7481 61.0828C26.5072 60.7821 26.3459 60.4218 26.2784 60.0449L26.7409 59.9637C26.7938 60.2644 26.9239 60.5507 27.1166 60.7917L26.7481 61.0804V61.0828ZM51.9789 59.8373L51.5092 59.7991C51.514 59.7466 51.5164 59.6941 51.5164 59.6416V58.7851H51.9861V59.6416C51.9861 59.7061 51.9837 59.7729 51.9789 59.8373ZM26.712 58.9736H26.2423V57.9405H26.712V58.9736ZM51.9861 57.752H51.5164V56.7188H51.9861V57.752ZM26.712 56.9073H26.2423V55.8742H26.712V56.9073ZM51.9861 55.6857H51.5164V54.6526H51.9861V55.6857ZM26.712 54.8411H26.2423V53.808H26.712V54.8411ZM51.9861 53.6195H51.5164V52.5864H51.9861V53.6195ZM26.712 52.7749H26.2423V51.7417H26.712V52.7749ZM51.9861 51.5533H51.5164V50.5201H51.9861V51.5533ZM26.712 50.7086H26.2423V49.6755H26.712V50.7086ZM51.9861 49.487H51.5164V48.4539H51.9861V49.487ZM26.712 48.6424H26.2423V47.6093H26.712V48.6424ZM51.9861 47.4208H51.5164V46.3877H51.9861V47.4208ZM26.712 46.5762H26.2423V45.543H26.712V46.5762ZM51.9861 45.3546H51.5164V44.3214H51.9861V45.3546ZM26.712 44.5099H26.2423V43.6558C26.2423 43.589 26.2447 43.5221 26.2519 43.4553L26.7216 43.4959C26.7168 43.5484 26.7144 43.6033 26.7144 43.6558V44.5099H26.712ZM51.4875 43.3313C51.4346 43.0306 51.3045 42.7443 51.1094 42.5033L51.4779 42.2146C51.7187 42.5153 51.8825 42.8732 51.95 43.2525L51.4875 43.3337V43.3313ZM27.0202 42.6393L26.6277 42.384C26.8396 42.0643 27.1334 41.7971 27.473 41.6158L27.697 42.0262C27.4249 42.1717 27.1912 42.384 27.0202 42.6417V42.6393ZM50.3821 41.9498C50.1484 41.8496 49.898 41.7995 49.6403 41.7995H49.4548V41.3342H49.6403C49.963 41.3342 50.2737 41.3986 50.5675 41.5227L50.3821 41.9498ZM48.412 41.7995H47.3691V41.3342H48.412V41.7995ZM46.3238 41.7995H45.281V41.3342H46.3238V41.7995ZM44.2357 41.7995H43.1929V41.3342H44.2357V41.7995ZM42.1476 41.7995H41.1048V41.3342H42.1476V41.7995ZM40.0595 41.7995H39.0167V41.3342H40.0595V41.7995ZM37.9714 41.7995H36.9285V41.3342H37.9714V41.7995ZM35.8833 41.7995H34.8404V41.3342H35.8833V41.7995ZM33.7952 41.7995H32.7523V41.3342H33.7952V41.7995ZM31.707 41.7995H30.6642V41.3342H31.707V41.7995ZM29.6189 41.7995H28.5809L28.5761 41.3342H29.6189V41.7995Z" fill="white"/>
<path d="M29.354 15.418C31.3625 15.418 32.9908 13.805 32.9908 11.8152C32.9908 9.82543 31.3625 8.2124 29.354 8.2124C27.3455 8.2124 25.7173 9.82543 25.7173 11.8152C25.7173 13.805 27.3455 15.418 29.354 15.418Z" fill="white"/>
<path d="M29.354 11.0136C29.6919 11.0136 29.9658 10.7422 29.9658 10.4075C29.9658 10.0728 29.6919 9.80151 29.354 9.80151C29.0162 9.80151 28.7423 10.0728 28.7423 10.4075C28.7423 10.7422 29.0162 11.0136 29.354 11.0136Z" fill="#FFD14C"/>
<path d="M28.4099 11.9059C28.8771 11.2713 29.8309 11.2713 30.2981 11.9059C30.7726 12.5501 30.3077 13.4568 29.5033 13.4568H29.2071C28.4027 13.4568 27.9378 12.5501 28.4123 11.9059H28.4099Z" fill="#FFD14C"/>
<path d="M49.5319 12.0491H36.6877C36.5577 12.0491 36.4517 11.9441 36.4517 11.8152C36.4517 11.6864 36.5577 11.5814 36.6877 11.5814H49.5319C49.662 11.5814 49.7679 11.6864 49.7679 11.8152C49.7679 11.9441 49.662 12.0491 49.5319 12.0491Z" fill="white"/>
<path d="M45.7049 17.4628H32.0515C28.5519 17.4628 25.7149 20.2733 25.7149 23.7402V31.3633C25.7149 34.8303 28.5519 37.6408 32.0515 37.6408H45.7049C49.2045 37.6408 52.0415 34.8303 52.0415 31.3633V23.7402C52.0415 20.2733 49.2045 17.4628 45.7049 17.4628Z" fill="white"/>
<path d="M50.293 20.0706C50.4014 20.178 50.4014 20.3497 50.293 20.4547C50.24 20.5072 50.1701 20.5358 50.1003 20.5358C50.0305 20.5358 49.9606 20.5096 49.9052 20.4547L49.4789 20.0324L49.0502 20.4547C48.9972 20.5072 48.9274 20.5358 48.8551 20.5358C48.7829 20.5358 48.7154 20.5096 48.6625 20.4547C48.5541 20.3497 48.5541 20.1756 48.6625 20.0706L49.0912 19.6483L48.6625 19.2236C48.5541 19.1162 48.5541 18.9444 48.6625 18.8394C48.7684 18.7321 48.9442 18.7321 49.0502 18.8394L49.4789 19.2641L49.9052 18.8394C50.0136 18.7321 50.187 18.7321 50.293 18.8394C50.4014 18.9444 50.4014 19.1186 50.293 19.2236L49.8667 19.6483L50.293 20.0706Z" fill="#FFB400"/>
<path d="M78.3392 19.8797H61.8053C61.2778 19.8797 60.8467 19.455 60.8467 18.9301V18.7893C60.8467 18.2668 61.2754 17.8397 61.8053 17.8397H78.3392C78.8666 17.8397 79.2977 18.2644 79.2977 18.7893V18.9301C79.2977 19.4526 78.869 19.8797 78.3392 19.8797ZM61.8053 18.3074C61.5355 18.3074 61.3188 18.5245 61.3188 18.7893V18.9301C61.3188 19.1973 61.5379 19.4121 61.8053 19.4121H78.3392C78.6089 19.4121 78.8257 19.1949 78.8257 18.9301V18.7893C78.8257 18.5221 78.6065 18.3074 78.3392 18.3074H61.8053Z" fill="white"/>
<path d="M72.0267 25.5177H61.8221C61.2537 25.5177 60.7937 25.0596 60.7937 24.4989C60.7937 23.9382 61.2562 23.4801 61.8221 23.4801H72.0267C72.5951 23.4801 73.0551 23.9382 73.0551 24.4989C73.0551 25.0596 72.5927 25.5177 72.0267 25.5177ZM61.8221 23.9454C61.5139 23.9454 61.2634 24.1935 61.2634 24.4989C61.2634 24.8043 61.5139 25.0524 61.8221 25.0524H72.0267C72.335 25.0524 72.5854 24.8043 72.5854 24.4989C72.5854 24.1935 72.335 23.9454 72.0267 23.9454H61.8221Z" fill="white"/>
<path d="M78.2115 31.1558H61.8221C61.2537 31.1558 60.7937 30.6977 60.7937 30.137C60.7937 29.5763 61.2562 29.1182 61.8221 29.1182H78.2115C78.7799 29.1182 79.2399 29.5763 79.2399 30.137C79.2399 30.6977 78.7775 31.1558 78.2115 31.1558ZM61.8221 29.5834C61.5139 29.5834 61.2634 29.8316 61.2634 30.137C61.2634 30.4424 61.5139 30.6905 61.8221 30.6905H78.2115C78.5198 30.6905 78.7703 30.4424 78.7703 30.137C78.7703 29.8316 78.5198 29.5834 78.2115 29.5834H61.8221Z" fill="white"/>
<path d="M75.4322 25.5177C74.8638 25.5177 74.4038 25.0596 74.4038 24.4989C74.4038 23.9382 74.8662 23.4801 75.4322 23.4801C75.9982 23.4801 76.4606 23.9382 76.4606 24.4989C76.4606 25.0596 75.9982 25.5177 75.4322 25.5177ZM75.4322 23.9454C75.1239 23.9454 74.8735 24.1935 74.8735 24.4989C74.8735 24.8043 75.1239 25.0524 75.4322 25.0524C75.7405 25.0524 75.991 24.8043 75.991 24.4989C75.991 24.1935 75.7405 23.9454 75.4322 23.9454Z" fill="white"/>
<path d="M81.9687 14.3396H58.1782C56.8222 14.3396 55.7216 13.2469 55.7216 11.906C55.7216 10.5651 56.8247 9.47229 58.1782 9.47229H81.9687C83.3247 9.47229 84.4253 10.5651 84.4253 11.906C84.4253 13.2469 83.3223 14.3396 81.9687 14.3396ZM58.1782 9.93755C57.0824 9.93755 56.1912 10.8204 56.1912 11.906C56.1912 12.9916 57.0824 13.8744 58.1782 13.8744H81.9687C83.0646 13.8744 83.9557 12.9916 83.9557 11.906C83.9557 10.8204 83.0646 9.93755 81.9687 9.93755H58.1782Z" fill="white"/>
<path d="M82.0289 13.4592C82.8948 13.4592 83.5968 12.7638 83.5968 11.9059C83.5968 11.0481 82.8948 10.3527 82.0289 10.3527C81.163 10.3527 80.461 11.0481 80.461 11.9059C80.461 12.7638 81.163 13.4592 82.0289 13.4592Z" fill="white"/>
<path d="M82.9249 12.6575L82.6286 12.2685C82.7611 12.1182 82.8406 11.9202 82.8406 11.7031C82.8406 11.2259 82.4504 10.8394 81.9687 10.8394C81.487 10.8394 81.0969 11.2259 81.0969 11.7031C81.0969 12.1803 81.487 12.5668 81.9687 12.5668C82.0891 12.5668 82.2072 12.5429 82.3107 12.4976L82.6118 12.8913C82.6503 12.9414 82.7081 12.9676 82.7683 12.9676C82.8093 12.9676 82.8526 12.9557 82.8863 12.9271C82.973 12.8626 82.9899 12.741 82.9249 12.6551V12.6575ZM81.4894 11.7031C81.4894 11.4406 81.7062 11.2283 81.9687 11.2283C82.2312 11.2283 82.448 11.443 82.448 11.7031C82.448 11.9631 82.2336 12.1779 81.9687 12.1779C81.7038 12.1779 81.4894 11.9631 81.4894 11.7031Z" fill="#FFD14C"/>
<path d="M58.7008 12.3234C58.9416 12.3234 59.1367 12.1301 59.1367 11.8916C59.1367 11.6531 58.9416 11.4597 58.7008 11.4597C58.4601 11.4597 58.2649 11.6531 58.2649 11.8916C58.2649 12.1301 58.4601 12.3234 58.7008 12.3234Z" fill="#FFD14C"/>
<path d="M60.0616 12.3234C60.3024 12.3234 60.4975 12.1301 60.4975 11.8916C60.4975 11.6531 60.3024 11.4597 60.0616 11.4597C59.8208 11.4597 59.6257 11.6531 59.6257 11.8916C59.6257 12.1301 59.8208 12.3234 60.0616 12.3234Z" fill="#FFD14C"/>
<path d="M61.4223 12.3234C61.6631 12.3234 61.8583 12.1301 61.8583 11.8916C61.8583 11.6531 61.6631 11.4597 61.4223 11.4597C61.1816 11.4597 60.9864 11.6531 60.9864 11.8916C60.9864 12.1301 61.1816 12.3234 61.4223 12.3234Z" fill="#FFD14C"/>
<path d="M61.1358 71.8888C60.9527 71.8888 60.7721 71.8196 60.6324 71.6836L59.5799 70.6409L59.2837 70.9344C59.0934 71.1229 58.8068 71.1801 58.5587 71.0775C58.3082 70.9749 58.1469 70.7363 58.1469 70.4667V68.0784C58.1469 67.7157 58.4455 67.4175 58.814 67.4175H61.2249C61.4946 67.4175 61.7379 67.5773 61.839 67.8255C61.9426 68.0712 61.8872 68.3528 61.6969 68.5413L61.4127 68.8419L62.4556 69.875C62.7325 70.1494 62.7325 70.598 62.4556 70.8723L61.6367 71.6836C61.497 71.8219 61.3164 71.8888 61.1333 71.8888H61.1358ZM59.5823 69.9848C59.6522 69.9848 59.722 70.011 59.7774 70.0635L61.0226 71.297C61.0852 71.3591 61.1887 71.3591 61.2514 71.297L62.0702 70.4858C62.1328 70.4238 62.1328 70.3212 62.0702 70.2592L60.8395 69.0399C60.7335 68.9349 60.7311 68.7679 60.8347 68.6606L61.3043 68.1643L61.3092 68.1571C61.3573 68.1094 61.3453 68.0569 61.3357 68.0307C61.326 68.0044 61.2947 67.9591 61.2273 67.9591H58.8164C58.7514 67.9591 58.6984 68.0116 58.6984 68.076V70.4643C58.6984 70.5311 58.7442 70.5598 58.7707 70.5717C58.7972 70.5836 58.8501 70.5932 58.8983 70.5455L59.3872 70.0611C59.4402 70.0086 59.5101 69.9824 59.5823 69.9824V69.9848Z" fill="#FFD14C"/>
<path d="M88.6136 1.36959C88.722 1.47457 88.722 1.64875 88.6136 1.75373C88.5606 1.80622 88.4908 1.83247 88.4209 1.83247C88.3511 1.83247 88.2812 1.80622 88.2258 1.75373L87.7706 1.30279L87.313 1.75373C87.26 1.80622 87.1902 1.83247 87.1204 1.83247C87.0505 1.83247 86.9807 1.80622 86.9253 1.75373C86.8193 1.64636 86.8193 1.47457 86.9253 1.36959L87.3805 0.916261L86.9253 0.465316C86.8193 0.357948 86.8193 0.18616 86.9253 0.0811778C87.0337 -0.0238041 87.2071 -0.0238041 87.313 0.0811778L87.7706 0.534509L88.2258 0.0811778C88.3342 -0.0238041 88.5076 -0.0238041 88.6136 0.0811778C88.722 0.188546 88.722 0.360334 88.6136 0.465316L88.1584 0.916261L88.6136 1.36959Z" fill="#FFD14C"/>
<path d="M7.98157 16.0026C8.08995 16.1099 8.08995 16.2817 7.98157 16.3867C7.92859 16.4392 7.85874 16.4655 7.7889 16.4655C7.71905 16.4655 7.64921 16.4392 7.59381 16.3867L7.16752 15.962L6.73882 16.3867C6.68583 16.4392 6.61599 16.4655 6.54373 16.4655C6.47148 16.4655 6.40405 16.4392 6.35106 16.3867C6.24268 16.2794 6.24268 16.1076 6.35106 16.0026L6.77976 15.5779L6.35106 15.1532C6.24268 15.0482 6.24268 14.874 6.35106 14.769C6.45703 14.6641 6.63285 14.6641 6.73882 14.769L7.16752 15.1937L7.59381 14.769C7.70219 14.6641 7.8756 14.6641 7.98157 14.769C8.08754 14.874 8.08995 15.0482 7.98157 15.1532L7.55287 15.5779L7.98157 16.0026Z" fill="#B6DAFF"/>
<path d="M108.599 46.4712C108.707 46.5786 108.707 46.7504 108.599 46.8554C108.546 46.9079 108.476 46.9365 108.406 46.9365C108.336 46.9365 108.266 46.9102 108.211 46.8554L107.785 46.433L107.356 46.8554C107.303 46.9079 107.233 46.9365 107.161 46.9365C107.089 46.9365 107.021 46.9102 106.968 46.8554C106.86 46.7504 106.86 46.5762 106.968 46.4712L107.397 46.0489L106.968 45.6242C106.86 45.5168 106.86 45.3451 106.968 45.2401C107.074 45.1327 107.25 45.1327 107.356 45.2401L107.785 45.6648L108.211 45.2401C108.319 45.1327 108.493 45.1327 108.599 45.2401C108.707 45.3451 108.707 45.5192 108.599 45.6242L108.172 46.0489L108.599 46.4712Z" fill="#5798F7"/>
<path d="M89.2422 55.23C89.1507 55.23 89.0616 55.1847 89.011 55.1035L84.9287 48.6996C84.8468 48.5732 84.8853 48.4038 85.0154 48.325C85.143 48.2439 85.314 48.2821 85.3935 48.4109L89.4758 54.8148C89.5577 54.9413 89.5192 55.1107 89.3891 55.1894C89.3433 55.2181 89.2928 55.2324 89.2422 55.2324V55.23Z" fill="#5798F7"/>
<path d="M81.5916 40.6274L68.6828 36.2215C65.3741 35.0922 61.7677 36.834 60.6278 40.1118L58.1213 47.3192C56.9813 50.5971 58.7395 54.1698 62.0482 55.2991L74.957 59.7049C78.2658 60.8342 81.8721 59.0924 83.0121 55.8146L85.5186 48.6072C86.6585 45.3294 84.9003 41.7567 81.5916 40.6274Z" fill="#FFD14C"/>
<path d="M57.0596 50.4844L56.9025 50.9229L81.6834 59.6356L81.8405 59.1971L57.0596 50.4844Z" fill="white"/>
<path d="M74.3749 69.6197H71.7136L65.2445 60.6414L74.3749 69.6197Z" fill="#83B7FF"/>
<path d="M84.9239 43.8657L84.3868 44.1425L84.6662 44.6745C84.736 44.8082 84.683 44.9728 84.5481 45.042C84.5072 45.0635 84.4638 45.073 84.4229 45.073C84.3242 45.073 84.2278 45.0205 84.1796 44.9251L83.9003 44.393L83.3632 44.6698C83.3222 44.6912 83.2813 44.7008 83.2379 44.7008C83.1392 44.7008 83.0429 44.6483 82.9947 44.5529C82.9249 44.4192 82.9778 44.257 83.1127 44.1854L83.6498 43.9087L83.3704 43.3766C83.3006 43.243 83.3536 43.0807 83.4884 43.0092C83.6233 42.94 83.7895 42.9925 83.8593 43.1261L84.1387 43.6581L84.6758 43.3814C84.8107 43.3122 84.9768 43.3647 85.0467 43.4983C85.1165 43.6319 85.0635 43.7965 84.9287 43.8657H84.9239Z" fill="#91E6F0"/>
<path d="M77.8238 58.661C78.1709 58.661 78.4524 58.3822 78.4524 58.0383C78.4524 57.6943 78.1709 57.4155 77.8238 57.4155C77.4766 57.4155 77.1952 57.6943 77.1952 58.0383C77.1952 58.3822 77.4766 58.661 77.8238 58.661Z" fill="#FFB900"/>
<path d="M77.8238 58.8949C77.3469 58.8949 76.9615 58.5107 76.9615 58.0407C76.9615 57.5707 77.3493 57.1865 77.8238 57.1865C78.2982 57.1865 78.686 57.5707 78.686 58.0407C78.686 58.5107 78.2982 58.8949 77.8238 58.8949ZM77.8238 57.6518C77.607 57.6518 77.4312 57.826 77.4312 58.0407C77.4312 58.2554 77.607 58.4296 77.8238 58.4296C78.0405 58.4296 78.2163 58.2554 78.2163 58.0407C78.2163 57.826 78.0405 57.6518 77.8238 57.6518Z" fill="white"/>
<path d="M78.5174 39.3324L78.0526 37.7457C77.9225 37.2995 77.5902 36.9393 77.1519 36.7699C76.6605 36.579 76.1066 36.6553 75.6851 36.9727L74.5483 37.8292C73.9848 38.2539 74.1148 39.1248 74.7771 39.3729C74.9843 39.4493 75.2107 39.4493 75.4178 39.3706L76.9471 38.7836L78.515 39.3348L78.5174 39.3324Z" fill="white"/>
<path d="M78.9317 39.7667L76.9544 39.0724L75.5189 39.6212C75.2492 39.7238 74.953 39.7262 74.6832 39.6259C74.2762 39.4756 73.9968 39.1297 73.9342 38.705C73.8716 38.2803 74.0402 37.8699 74.3846 37.6098L75.5213 36.7533C76.0127 36.3834 76.6774 36.2904 77.253 36.5147C77.766 36.7127 78.1634 37.1446 78.3175 37.6695L78.9317 39.7667ZM76.6051 36.9394C76.3378 36.9394 76.0729 37.0253 75.8537 37.1875L74.7169 38.0441C74.5339 38.1824 74.4424 38.3996 74.4761 38.6262C74.5098 38.8529 74.6591 39.0366 74.8735 39.1153C75.018 39.1678 75.1745 39.1678 75.319 39.1153L76.9447 38.4926L78.1056 38.9006L77.7901 37.8222C77.6841 37.4595 77.4096 37.1613 77.0531 37.0229C76.9086 36.968 76.7569 36.9394 76.6051 36.9394Z" fill="#5798F7"/>
<path d="M80.8801 40.0673L80.7043 38.8194C80.6128 38.1776 80.1648 37.6432 79.5458 37.4356C78.9052 37.2209 78.1971 37.3974 77.7323 37.8842L76.7231 38.9483C76.1981 39.5018 76.41 40.4085 77.1277 40.6757C77.5011 40.8141 77.9201 40.7378 78.2188 40.4753L79.3122 39.5161L80.8801 40.0673Z" fill="white"/>
<path d="M77.5059 41.0146C77.3469 41.0146 77.1856 40.9859 77.0314 40.9287C76.6075 40.7712 76.2945 40.4157 76.1909 39.9791C76.0873 39.5424 76.2126 39.0867 76.5233 38.7598L77.5324 37.6957C78.0671 37.1326 78.8932 36.9274 79.6325 37.1756C80.3551 37.4165 80.8681 38.0321 80.974 38.7789L81.2149 40.4706L79.3724 39.8216L78.3994 40.6734C78.1489 40.8929 77.8286 41.0098 77.5059 41.0098V41.0146ZM78.9919 37.617C78.5969 37.617 78.2092 37.7768 77.9298 38.0703L76.9206 39.1344C76.7328 39.3301 76.6629 39.5949 76.7232 39.8574C76.7834 40.1198 76.9664 40.325 77.2217 40.4205C77.5011 40.5231 77.8118 40.4682 78.0333 40.2725L79.2472 39.2084L80.5429 39.6641L80.4297 38.8601C80.3527 38.3161 79.9794 37.8699 79.4543 37.6957C79.3026 37.6456 79.146 37.6194 78.9895 37.6194L78.9919 37.617Z" fill="#5798F7"/>
<path d="M83.1055 40.9191L82.9297 39.6713C82.8382 39.0294 82.3902 38.495 81.7712 38.2874C81.1306 38.0727 80.4225 38.2492 79.9577 38.736L78.9485 39.8001C78.4235 40.3536 78.6354 41.2603 79.3532 41.5275C79.7265 41.6659 80.1455 41.5896 80.4442 41.3271L81.5376 40.3679L83.1055 40.9191Z" fill="white"/>
<path d="M79.7313 41.8662C79.5723 41.8662 79.4109 41.8376 79.2544 41.7804C78.8305 41.6229 78.5174 41.2674 78.4138 40.8307C78.3103 40.3941 78.4355 39.9384 78.7462 39.6115L79.7554 38.5474C80.29 37.9843 81.1161 37.7791 81.8555 38.0273C82.578 38.2682 83.091 38.8838 83.197 39.6306L83.4379 41.3223L81.5954 40.6733L80.6224 41.5251C80.3719 41.7446 80.0516 41.8615 79.7289 41.8615L79.7313 41.8662ZM81.2173 38.4687C80.8223 38.4687 80.4345 38.6285 80.1552 38.922L79.146 39.9861C78.9606 40.1818 78.8883 40.4466 78.9485 40.7091C79.0111 40.9715 79.1918 41.1767 79.4471 41.2721C79.7264 41.3747 80.0371 41.3199 80.2587 41.1242L81.4726 40.0601L82.7683 40.5158L82.6551 39.7117C82.578 39.1677 82.2047 38.7216 81.6797 38.5474C81.528 38.4973 81.3714 38.471 81.2149 38.471L81.2173 38.4687Z" fill="#5798F7"/>
<path d="M75.018 39.101C75.3119 39.101 75.5502 38.8649 75.5502 38.5737C75.5502 38.2825 75.3119 38.0464 75.018 38.0464C74.724 38.0464 74.4857 38.2825 74.4857 38.5737C74.4857 38.8649 74.724 39.101 75.018 39.101Z" fill="#FFD14C"/>
<path d="M77.3855 40.3345C77.6901 40.3345 77.937 40.0898 77.937 39.7881C77.937 39.4863 77.6901 39.2417 77.3855 39.2417C77.0809 39.2417 76.8339 39.4863 76.8339 39.7881C76.8339 40.0898 77.0809 40.3345 77.3855 40.3345Z" fill="#FFD14C"/>
<path d="M79.6157 41.203C79.9323 41.203 80.1889 40.9487 80.1889 40.6351C80.1889 40.3215 79.9323 40.0673 79.6157 40.0673C79.2991 40.0673 79.0425 40.3215 79.0425 40.6351C79.0425 40.9487 79.2991 41.203 79.6157 41.203Z" fill="#FFD14C"/>
<path d="M110.725 75.8566H91.7445L91.3351 70.1565L86.8554 73.3012C83.9147 75.3651 79.8999 75.0382 77.3421 72.5234L65.2445 60.6414L58.1541 58.0335C57.5135 57.7973 57.0221 57.2748 56.8343 56.6234C56.5573 55.669 56.1527 54.2804 55.9143 53.4668C55.8998 53.4143 55.8926 53.3618 55.8926 53.3117C55.8926 53.0278 56.1142 52.7749 56.4176 52.7534C57.0872 52.7057 57.6556 53.2306 57.6556 53.8963C57.6556 53.6314 57.6556 53.3475 57.6556 53.1208C57.6556 52.8751 57.8579 52.6794 58.1035 52.6794H58.1156C59.0934 52.7033 59.8761 53.4931 59.8858 54.4617V54.4785L63.3419 55.5187C63.6718 55.6189 63.9103 55.2109 63.6622 54.9747L61.7499 53.1757C61.2971 52.7486 61.721 52.0066 62.3231 52.1736L65.3072 52.992C65.8515 53.1423 66.3621 53.3976 66.8076 53.7436L81.1209 63.3661L95.0513 48.943C95.5451 48.4993 96.1135 48.1557 96.7228 47.9219C97.3345 47.688 97.9872 47.564 98.6544 47.564C100.964 47.564 102.542 49.0218 103.103 50.544L110.723 75.8566H110.725Z" fill="white"/>
<path d="M91.6169 70.2209L96.2965 66.4177L91.9926 75.8566L91.6169 70.2209Z" fill="#B6DAFF"/>
<path d="M91.7445 76.1286C91.6024 76.1286 91.482 76.0188 91.47 75.8757L91.0943 70.6648L87.1107 73.5184C85.6343 74.5753 83.8208 75.0812 82.0048 74.9428C80.1889 74.802 78.4765 74.0266 77.1831 72.7549L65.0904 60.8752L58.0553 58.2864C57.3352 58.0216 56.7789 57.4275 56.5669 56.6974C56.367 56.0055 56.0997 55.0893 55.8757 54.3258L55.6469 53.5432C55.6252 53.4668 55.6132 53.3905 55.6132 53.3117C55.6132 52.8775 55.9552 52.5148 56.3935 52.4838C56.7885 52.4552 57.1811 52.5936 57.4701 52.8608C57.7591 53.128 57.9253 53.505 57.9277 53.8987C57.9277 54.049 57.8049 54.1707 57.6531 54.1707C57.5014 54.1707 57.3786 54.049 57.3786 53.8987C57.3786 53.6529 57.2774 53.4263 57.0968 53.2592C56.9162 53.0922 56.6801 53.0111 56.4321 53.0278C56.2803 53.0397 56.1623 53.1638 56.1623 53.3141C56.1623 53.3404 56.1671 53.3666 56.1744 53.3952L56.4032 54.1802C56.6247 54.9437 56.8921 55.8623 57.0944 56.5519C57.2581 57.1173 57.6893 57.5778 58.2456 57.7806L65.3914 60.4099L65.4324 60.4505L77.5685 72.3707C80.0636 74.8211 83.9412 75.1193 86.788 73.0793L91.5711 69.6531L92.0167 75.8399C92.0263 75.9902 91.9131 76.119 91.7614 76.131C91.7542 76.131 91.7494 76.131 91.7421 76.131L91.7445 76.1286Z" fill="#5798F7"/>
<path d="M81.1595 63.7169L80.9668 63.5881L66.6462 53.9607L66.639 53.9536C66.2199 53.6267 65.7479 53.3905 65.2349 53.2497L62.2508 52.4313C62.0702 52.3812 61.9426 52.4767 61.8799 52.584C61.8197 52.689 61.8029 52.8489 61.9377 52.9777L63.85 54.7767C64.0572 54.97 64.0981 55.2635 63.956 55.5068C63.8139 55.7502 63.5345 55.8576 63.2624 55.7764L59.6112 54.6789V54.4618C59.604 53.6362 58.9441 52.9729 58.1083 52.9515H58.1035C58.0096 52.9515 57.9301 53.0278 57.9301 53.1233V56.4898C57.9301 57.1603 58.3323 57.7568 58.9585 58.0121C59.0982 58.0693 59.1656 58.2292 59.1078 58.3676C59.05 58.506 58.8911 58.5728 58.749 58.5155C57.9181 58.1767 57.381 57.3822 57.381 56.4922V53.1257C57.381 52.732 57.7061 52.4123 58.1035 52.4123H58.1156C59.1921 52.4385 60.0495 53.245 60.1507 54.2781L63.4237 55.2611C63.4358 55.2659 63.4623 55.273 63.484 55.2372C63.5056 55.2014 63.484 55.1823 63.4743 55.1752L61.562 53.3762C61.2658 53.097 61.2032 52.6723 61.4031 52.3216C61.6054 51.9709 62.0028 51.8062 62.3978 51.9136L65.3818 52.732C65.9622 52.8918 66.4969 53.1591 66.9714 53.5265L81.0848 63.0154L94.8611 48.7522L94.8683 48.745C95.8341 47.8766 97.1418 47.4185 98.6543 47.4185C98.8061 47.4185 98.9289 47.5401 98.9289 47.6905C98.9289 47.8408 98.8061 47.9625 98.6543 47.9625C97.2839 47.9625 96.1038 48.3705 95.244 49.1411L81.1595 63.7217V63.7169Z" fill="#5798F7"/>
<path d="M59.8881 55.8456C59.7364 55.8456 59.6136 55.724 59.6136 55.5736V54.4761C59.6136 54.3258 59.7364 54.2041 59.8881 54.2041C60.0399 54.2041 60.1627 54.3258 60.1627 54.4761V55.5736C60.1627 55.724 60.0399 55.8456 59.8881 55.8456Z" fill="#5798F7"/>
<path d="M82.1614 64.4112C82.106 64.4112 82.0482 64.3945 82 64.3588L80.514 63.2875C80.3912 63.1992 80.3647 63.0298 80.4538 62.9081C80.5429 62.7864 80.7139 62.7602 80.8367 62.8485L82.3227 63.9197C82.4456 64.008 82.4721 64.1774 82.383 64.2991C82.33 64.3731 82.2457 64.4112 82.1614 64.4112Z" fill="#5798F7"/>
<path d="M91.3351 70.4285C91.2556 70.4285 91.1786 70.3951 91.1232 70.3307C91.0268 70.2138 91.0437 70.0444 91.1593 69.9489L95.9641 66.0217C96.0797 65.9262 96.2531 65.9429 96.3495 66.0575C96.4458 66.1744 96.429 66.3438 96.3133 66.4392L91.5085 70.3665C91.4579 70.4094 91.3953 70.4285 91.3351 70.4285Z" fill="#5798F7"/>
<path d="M57.9325 53.0731C58.2889 53.0731 58.578 53.3332 58.578 53.6529C58.578 53.9726 58.2889 54.2327 57.9325 54.2327V53.0731Z" fill="#FFB400"/>
<path d="M56.1479 53.326C56.461 53.2354 56.7885 53.4119 56.88 53.7197C56.9715 54.0275 56.7885 54.3496 56.4754 54.4403L56.1503 53.3284L56.1479 53.326Z" fill="#FFB400"/>
<path d="M63.2889 52.6913C63.1925 53.0325 62.8626 53.2377 62.5519 53.1518C62.2412 53.0659 62.0654 52.72 62.1617 52.3788L63.2889 52.6913Z" fill="#FFB400"/>
<path d="M70.0903 57.3273L69.7652 57.6757C69.6158 57.5397 69.4111 57.4681 69.1968 57.4776C68.9824 57.4872 68.7825 57.5755 68.6452 57.7234C68.5056 57.8737 68.4333 58.067 68.4429 58.2698C68.4526 58.4726 68.5393 58.6611 68.6886 58.7995L68.3635 59.1502C68.2117 59.0118 68.019 58.9402 67.8119 58.9498C67.6072 58.9593 67.4169 59.0452 67.2773 59.1931C67.1376 59.3434 67.0653 59.5367 67.0749 59.7395C67.0822 59.9423 67.1713 60.1308 67.3206 60.2692L66.9955 60.6199C66.8437 60.4816 66.6366 60.4052 66.4247 60.4124C66.0803 60.4505 65.9141 60.639 65.7792 60.7822L65.4155 60.4219C65.6371 60.2024 65.9526 59.9423 66.415 59.9352C66.4849 59.9352 66.5523 59.9352 66.6197 59.9471C66.5475 59.5749 66.6487 59.1717 66.928 58.8734C67.2074 58.5728 67.6048 58.4416 67.9877 58.4845C67.9757 58.4225 67.9685 58.3581 67.9661 58.2936C67.9516 57.9644 68.0696 57.647 68.296 57.4061C68.52 57.1675 68.8403 57.0219 69.1799 57.0076H69.2016C69.2666 57.0052 69.3316 57.0076 69.3943 57.0148C69.322 56.6569 69.4111 56.2727 69.664 55.9745L70.0686 56.2393C69.7844 56.5471 69.7868 57.0458 70.0975 57.3297L70.0903 57.3273Z" fill="#FFD14C"/>
<path d="M103.165 41.1458V41.2913C103.165 42.0119 102.575 42.5964 101.848 42.5964H101.121L102.289 46.8792H96.4964L96.6529 43.7131C95.7666 43.7131 95.1164 42.9925 95.1164 42.1932C95.1164 41.9856 95.1597 41.7709 95.2561 41.5633L96.8769 38.0321C97.0527 37.648 97.4405 37.4022 97.8644 37.4022C98.5821 37.4022 99.2324 37.8126 99.7044 38.4019C100.176 38.9913 100.466 39.7572 100.466 40.4706V41.1052L100.605 40.7139C100.791 40.1914 101.289 39.8407 101.848 39.8407C102.212 39.8407 102.542 39.9862 102.78 40.2224C103.018 40.4586 103.165 40.7855 103.165 41.1458Z" fill="white"/>
<path d="M96.4362 48.3585C96.4362 48.3585 96.4266 48.3585 96.4217 48.3585C96.27 48.3513 96.1544 48.2225 96.1616 48.0745L96.3639 43.9635C95.8606 43.8848 95.4126 43.5985 95.1308 43.1643C94.796 42.6489 94.7503 42.0095 95.0056 41.4535L96.6265 37.9223C96.6891 37.7863 96.8529 37.7243 96.9901 37.7863C97.1274 37.8484 97.19 38.0106 97.1274 38.1466L95.5065 41.6778C95.3283 42.0667 95.362 42.5105 95.5932 42.8708C95.8269 43.2287 96.2218 43.4434 96.653 43.4434H96.942L96.7132 48.1032C96.7059 48.2487 96.5855 48.3609 96.4386 48.3609L96.4362 48.3585Z" fill="#5798F7"/>
<path d="M95.2657 40.943L94.8683 40.6256C94.7455 40.535 94.6997 40.3775 94.7503 40.2367C94.8009 40.0936 94.9357 40.0005 95.0899 40.0077C95.4319 40.0196 95.7522 39.824 95.8967 39.5138L95.2681 40.9454L95.2657 40.943Z" fill="#5798F7"/>
<path d="M96.6891 43.4601L98.6423 43.2836L96.5686 45.3975L96.6891 43.4601Z" fill="#5798F7"/>
<path d="M98.558 42.4366C99.0887 42.4366 99.519 42.0104 99.519 41.4846C99.519 40.9588 99.0887 40.5326 98.558 40.5326C98.0273 40.5326 97.597 40.9588 97.597 41.4846C97.597 42.0104 98.0273 42.4366 98.558 42.4366Z" fill="#B6DAFF"/>
<path d="M102.005 41.7232H101.472C101.381 41.7232 101.297 41.6778 101.248 41.6015C101.2 41.5251 101.195 41.4297 101.234 41.3486L101.487 40.8308C101.55 40.702 101.708 40.6471 101.839 40.7091C101.969 40.7712 102.024 40.9287 101.961 41.0575L101.892 41.2007H102.002C102.147 41.2007 102.265 41.3176 102.265 41.4607C102.265 41.6039 102.147 41.7208 102.002 41.7208L102.005 41.7232Z" fill="#5798F7"/>
<path d="M97.06 40.0792C97.205 40.0792 97.3225 39.9628 97.3225 39.8191C97.3225 39.6755 97.205 39.5591 97.06 39.5591C96.915 39.5591 96.7975 39.6755 96.7975 39.8191C96.7975 39.9628 96.915 40.0792 97.06 40.0792Z" fill="#5798F7"/>
<path d="M96.0003 41.6324C95.9834 41.6324 95.9641 41.6324 95.9473 41.6324C95.7233 41.6181 95.5089 41.5203 95.3476 41.3557C95.2416 41.2483 95.244 41.0765 95.3548 40.9715C95.4632 40.8665 95.6366 40.8689 95.7426 40.9787C95.8076 41.0455 95.8943 41.086 95.981 41.0908C96.0605 41.0956 96.1303 41.0717 96.1833 41.0216C96.2917 40.9166 96.4651 40.919 96.5711 41.0288C96.677 41.1362 96.6746 41.3079 96.5638 41.4129C96.4121 41.5585 96.2146 41.6348 96.0003 41.6348V41.6324Z" fill="#5798F7"/>
<path d="M108.404 31.8095C108.404 32.6947 107.857 33.568 106.87 33.8615C106.477 33.9784 106.082 33.9808 105.721 33.8901C105.868 34.1859 105.94 34.5057 105.94 34.8254C105.94 35.7106 105.393 36.5838 104.406 36.8797C102.987 37.302 101.571 36.214 101.631 34.749C101.682 33.5227 102.708 32.6971 103.794 32.6971C103.967 32.6971 104.141 32.7186 104.314 32.7615C104.162 32.4561 104.083 32.1078 104.097 31.7332C104.148 30.5068 105.174 29.6813 106.26 29.6813C106.708 29.6813 107.168 29.822 107.573 30.1322C108.141 30.5688 108.409 31.194 108.409 31.8095H108.404Z" fill="#FFD14C"/>
<path d="M103.435 39.7811C103.435 40.232 103.336 40.6615 103.161 41.0504C103.139 40.7283 102.997 40.4372 102.778 40.2225C102.539 39.9863 102.209 39.8407 101.846 39.8407C101.287 39.8407 100.788 40.1914 100.603 40.714L100.538 40.8977L100.465 41.1029L100.239 40.9001C100.384 40.4444 100.136 39.9552 99.6803 39.7978L95.5932 38.3996L95.9738 37.4953C96.5036 36.2308 97.9463 35.6104 99.242 36.0852L101.325 36.8273C102.558 37.2734 103.438 38.4282 103.438 39.7811H103.435Z" fill="#FFD14C"/>
<path d="M97.6789 39.3467C97.6525 39.3467 97.6284 39.342 97.6043 39.33C97.5176 39.2895 97.4815 39.1845 97.5224 39.0986L98.1173 37.8722C98.1582 37.7863 98.2642 37.7505 98.3509 37.7911C98.4376 37.8317 98.4737 37.9366 98.4328 38.0225L97.8379 39.2489C97.809 39.311 97.7464 39.3467 97.6814 39.3467H97.6789Z" fill="#FFD14C"/>
<path d="M98.3967 39.7142C98.3702 39.7142 98.3461 39.7094 98.322 39.6975C98.2353 39.6569 98.1992 39.5519 98.2401 39.4661L98.5725 38.7813C98.6134 38.6954 98.7194 38.6596 98.8061 38.7002C98.8928 38.7407 98.9289 38.8457 98.888 38.9316L98.5556 39.6164C98.5267 39.6784 98.4641 39.7142 98.3991 39.7142H98.3967Z" fill="#FFD14C"/>
<path d="M101.889 46.2565C101.571 46.2899 101.301 46.5571 101.301 46.8792H100.865C100.865 46.5333 100.557 46.2326 100.208 46.2326C99.8586 46.2326 99.572 46.5142 99.572 46.8625H99.1361C99.1361 46.5166 98.8519 46.2326 98.5002 46.2326C98.1486 46.2326 97.8644 46.5142 97.8644 46.8625H97.4285C97.4285 46.5046 97.1611 46.2231 96.8071 46.2064L96.8288 45.7745C97.1756 45.7912 97.4718 45.9559 97.6573 46.2112C97.8524 45.963 98.1582 45.8008 98.5026 45.8008C98.847 45.8008 99.1601 45.9654 99.3552 46.2207C99.5503 45.9654 99.861 45.8008 100.208 45.8008C100.555 45.8008 100.882 45.975 101.082 46.2422C101.241 46.0322 101.494 45.8795 101.766 45.8318L101.886 46.2565H101.889Z" fill="#FFD14C"/>
<path d="M110.725 76.1286C110.605 76.1286 110.497 76.0499 110.463 75.9306L100.757 42.3244H101.85C102.426 42.3244 102.893 41.8616 102.893 41.2913V41.1458C102.893 40.5755 102.426 40.1127 101.85 40.1127C101.407 40.1127 101.012 40.3894 100.865 40.8046L100.783 41.0336C100.733 41.1744 100.576 41.2508 100.434 41.2006C100.292 41.1505 100.215 40.9955 100.266 40.8547L100.348 40.6256C100.571 39.9957 101.174 39.571 101.85 39.571C102.727 39.571 103.442 40.2773 103.442 41.1482V41.2937C103.442 42.1622 102.729 42.8708 101.85 42.8708H101.487L110.993 75.7826C111.034 75.9258 110.949 76.0785 110.805 76.1191C110.781 76.1262 110.754 76.1286 110.73 76.1286H110.725Z" fill="#5798F7"/>
<path d="M43.2868 60.7845L37.7089 69.6221H34.903L43.2868 60.7845Z" fill="#83B7FF"/>
<path d="M43.5132 60.7845L32.8414 71.8267C29.0241 75.8065 25.0261 76.0689 21.1292 72.5783H0.500946L10.0865 25.7182C10.3105 24.6278 10.7994 23.6066 11.5147 22.7477L17.4756 15.5779V35.3312L19.636 38.8171L26.7071 59.8707L37.5138 53.5145L43.5132 60.7869V60.7845Z" fill="white"/>
<path d="M17.0204 28.734L17.2588 28.4739V14.7571L15.6958 16.8281L17.0204 28.734Z" fill="#83B7FF"/>
<path d="M20.5656 72.5783H15.0479L10.2575 62.314L20.5656 72.5783Z" fill="#83B7FF"/>
<path d="M39.9632 63.5022C38.2243 63.5022 36.5841 62.7697 35.3799 61.4312C33.9951 59.8922 33.4652 57.8689 33.9324 55.8743C33.9613 55.7478 34.089 55.6715 34.2142 55.7001C34.3419 55.7287 34.4189 55.8552 34.39 55.9793C33.9589 57.8236 34.4478 59.6966 35.7315 61.1186C36.996 62.5215 38.7758 63.2063 40.6159 62.9963C40.7435 62.982 40.8615 63.0727 40.876 63.2015C40.8904 63.3304 40.7989 63.4449 40.6688 63.4592C40.4328 63.4855 40.1968 63.4998 39.9632 63.4998V63.5022Z" fill="#B6DAFF"/>
<path d="M39.7946 62.6122C39.3466 62.6122 38.9805 62.2495 38.9805 61.8057C38.9805 61.3619 39.3466 60.9993 39.7946 60.9993C40.2425 60.9993 40.6086 61.3619 40.6086 61.8057C40.6086 62.2495 40.2425 62.6122 39.7946 62.6122ZM39.7946 61.4645C39.6043 61.4645 39.4502 61.6172 39.4502 61.8057C39.4502 61.9942 39.6043 62.1469 39.7946 62.1469C39.9848 62.1469 40.139 61.9942 40.139 61.8057C40.139 61.6172 39.9848 61.4645 39.7946 61.4645Z" fill="#B6DAFF"/>
<path d="M22.7188 62.302C22.6249 62.302 22.5333 62.2543 22.4828 62.1684C22.4057 62.0396 22.449 61.8726 22.5791 61.7962L37.1477 53.2807C37.2778 53.2044 37.4464 53.2473 37.5234 53.3762C37.6005 53.505 37.5572 53.672 37.4271 53.7484L22.8585 62.2639C22.8151 62.2901 22.767 62.302 22.7188 62.302Z" fill="#5798F7"/>
<path d="M25.645 60.5984H22.3672C22.2154 60.5984 22.0926 60.4768 22.0926 60.3264C22.0926 60.1761 22.2154 60.0544 22.3672 60.0544H25.645C25.7968 60.0544 25.9196 60.1761 25.9196 60.3264C25.9196 60.4768 25.7968 60.5984 25.645 60.5984Z" fill="#5798F7"/>
<path d="M26.5674 75.2887C24.3131 75.2887 22.1191 74.2318 20.0478 72.1441L10.0624 62.0897C9.95645 61.9823 9.95645 61.8105 10.0648 61.7055C10.1732 61.6005 10.3466 61.6005 10.4526 61.7079L20.438 71.7623C22.4201 73.7593 24.501 74.7614 26.6228 74.7447C28.7519 74.7257 30.8256 73.6806 32.7836 71.6382L40.7218 63.4687C40.8278 63.3614 41.0012 63.3566 41.1096 63.4616C41.218 63.5666 41.2228 63.7383 41.1168 63.8457L33.181 72.0152C31.117 74.1673 28.9108 75.2697 26.6276 75.2887C26.6084 75.2887 26.5867 75.2887 26.565 75.2887H26.5674Z" fill="#5798F7"/>
<path d="M0.274554 72.8503C0.257695 72.8503 0.238428 72.8503 0.221569 72.8455C0.0722455 72.8169 -0.0240919 72.6737 0.00721777 72.5258L9.46755 25.6657C9.69876 24.5347 10.2118 23.4658 10.9536 22.5759L16.7868 15.4085C16.8831 15.2916 17.0541 15.2725 17.1721 15.3679C17.2902 15.461 17.3094 15.6328 17.2131 15.7497L11.3774 22.9195C10.6934 23.7426 10.219 24.7304 10.0046 25.7731L0.544299 72.6308C0.517806 72.7596 0.40461 72.8503 0.274554 72.8503Z" fill="#5798F7"/>
<path d="M39.0118 5.07486L40.3798 3.91051C40.9458 3.42855 41.8201 3.63136 42.1115 4.31135L42.6173 5.49002C42.9231 6.20341 42.3957 6.99317 41.613 6.99317C41.2228 6.99317 40.8639 6.78797 40.6688 6.45394L39.8644 5.07486H39.0143H39.0118Z" fill="#FFD14C"/>
<path d="M36.536 5.07486L37.904 3.91051C38.47 3.42855 39.3442 3.63136 39.6356 4.31135L40.1414 5.49002C40.4473 6.20341 39.9198 6.99317 39.1371 6.99317C38.7469 6.99317 38.3881 6.78797 38.193 6.45394L37.3886 5.07486H36.5384H36.536Z" fill="#FFD14C"/>
<path d="M34.0625 5.07486L35.4305 3.91051C35.9965 3.42855 36.8707 3.63136 37.1622 4.31135L37.6679 5.49002C37.9738 6.20341 37.4464 6.99317 36.6636 6.99317C36.2734 6.99317 35.9146 6.78797 35.7195 6.45394L35.2571 5.6618C35.0451 5.29914 34.655 5.07725 34.2335 5.07725H34.0673L34.0625 5.07486Z" fill="#FFD14C"/>
<path d="M40.3991 5.86234C40.3148 5.86234 40.2329 5.81224 40.1992 5.73111L39.6934 4.55245C39.6453 4.4427 39.6983 4.31625 39.809 4.26853C39.9198 4.22081 40.0475 4.2733 40.0956 4.38305L40.6014 5.56171C40.6496 5.67147 40.5966 5.79792 40.4858 5.84564C40.4569 5.85757 40.428 5.86234 40.4015 5.86234H40.3991Z" fill="#5798F7"/>
<path d="M37.8943 6.16292C37.8004 6.16292 37.7161 6.10327 37.6872 6.01022L37.22 4.53093C37.1838 4.4164 37.2489 4.29472 37.3621 4.25893C37.4777 4.22314 37.6005 4.28756 37.6366 4.3997L38.1039 5.87899C38.14 5.99352 38.075 6.1152 37.9618 6.15099C37.9401 6.15815 37.9184 6.16054 37.8967 6.16054L37.8943 6.16292Z" fill="#5798F7"/>
<path d="M36.2542 6.8334C36.1579 6.8334 36.0712 6.76898 36.0447 6.67354L35.9435 6.3061C35.8833 6.08421 35.9122 5.85516 36.0278 5.65474C36.1434 5.4567 36.3289 5.31355 36.5528 5.2539C37.0129 5.12983 37.4897 5.40183 37.615 5.85754L37.7089 6.20112C37.7402 6.31565 37.6728 6.43494 37.5547 6.46596C37.4391 6.49698 37.3187 6.43017 37.2874 6.31326L37.1935 5.96968C37.1309 5.74302 36.8948 5.6094 36.6684 5.67144C36.5577 5.70007 36.4661 5.77165 36.4083 5.86947C36.3505 5.9673 36.3361 6.08182 36.3674 6.19158L36.4685 6.55901C36.4999 6.67354 36.4324 6.79284 36.3144 6.82385C36.2951 6.82863 36.2759 6.83101 36.2566 6.83101L36.2542 6.8334Z" fill="#5798F7"/>
<path d="M38.6963 6.83333C38.6 6.83333 38.5133 6.76891 38.4868 6.67347L38.3856 6.30604C38.3254 6.08414 38.3543 5.85509 38.4699 5.65467C38.5855 5.45664 38.771 5.31348 38.995 5.25383C39.219 5.19418 39.4502 5.22281 39.6525 5.33734C39.8524 5.45186 39.9969 5.63558 40.0571 5.85748L40.151 6.20105C40.1823 6.31558 40.1149 6.43488 39.9969 6.46589C39.8813 6.49691 39.7609 6.4301 39.7296 6.31319L39.6356 5.96962C39.573 5.74295 39.337 5.60934 39.1106 5.67137C38.9998 5.7 38.9083 5.77158 38.8505 5.86941C38.7927 5.96723 38.7782 6.08176 38.8095 6.19151L38.9107 6.55895C38.942 6.67347 38.8746 6.79277 38.7565 6.82379C38.7373 6.82856 38.718 6.83094 38.6987 6.83094L38.6963 6.83333Z" fill="#5798F7"/>
<path d="M41.177 6.8334C41.0807 6.8334 40.994 6.76898 40.9675 6.67354L40.8663 6.3061C40.8061 6.08421 40.835 5.85516 40.9506 5.65474C41.0662 5.4567 41.2517 5.31355 41.4757 5.2539C41.9357 5.12983 42.4125 5.40183 42.5378 5.85754L42.6317 6.20112C42.663 6.31565 42.5956 6.43494 42.4776 6.46596C42.362 6.49698 42.2415 6.43017 42.2102 6.31326L42.1163 5.96968C42.0537 5.74302 41.8177 5.6094 41.5913 5.67144C41.4805 5.70007 41.389 5.77165 41.3312 5.86947C41.2734 5.9673 41.2589 6.08182 41.2902 6.19158L41.3914 6.55901C41.4227 6.67354 41.3552 6.79284 41.2372 6.82385C41.218 6.82863 41.1987 6.83101 41.1794 6.83101L41.177 6.8334Z" fill="#5798F7"/>
<path d="M37.9545 51.2837C38.4459 50.2696 39.6067 49.7543 40.6977 50.0644L41.8514 50.3913L44.8595 48.5207C45.1702 48.3275 45.5724 48.3776 45.8253 48.6376L45.8373 48.652C46.1384 48.9621 46.136 49.4512 45.8325 49.7543C44.78 50.8136 42.5643 53.0469 42.4944 53.1161C42.5354 53.0827 43.1712 52.5387 43.689 52.0973C44.0647 51.7776 44.6283 51.8038 44.9727 52.1593L45.0161 52.2046C45.3557 52.5578 45.3605 53.1137 45.0233 53.4716L43.86 54.7099L44.9607 53.5384C45.3219 53.1542 45.9313 53.1447 46.3046 53.5169L46.3865 53.598C46.7405 53.9488 46.7477 54.5142 46.4106 54.8745C46.7622 54.5262 47.3306 54.5142 47.6991 54.8459C47.9014 55.0272 48.0025 55.2777 48.0025 55.5259C48.0025 55.7549 47.9182 55.984 47.7448 56.1653L43.282 60.7821L42.1356 60.9086C38.6169 61.2975 35.7725 58.1123 36.5914 54.7003L37.9497 51.2813L37.9545 51.2837Z" fill="#FFD14C"/>
<path d="M45.3243 56.2322C45.2521 56.2322 45.1822 56.2036 45.1269 56.1487C45.0209 56.0413 45.0233 55.8695 45.1317 55.7645L46.5502 54.3998C46.6586 54.2948 46.832 54.2972 46.938 54.4046C47.044 54.5119 47.0416 54.6837 46.9332 54.7887L45.5146 56.1535C45.4616 56.2036 45.3918 56.2298 45.3243 56.2298V56.2322Z" fill="#5798F7"/>
<path d="M43.8648 54.9843C43.7974 54.9843 43.7276 54.9581 43.6746 54.908C43.5662 54.803 43.5614 54.6312 43.6673 54.5238L45.1582 52.9896C45.2641 52.8823 45.4375 52.8775 45.5459 52.9825C45.6543 53.0875 45.6591 53.2593 45.5532 53.3666L44.0623 54.9008C44.0093 54.9557 43.9371 54.9843 43.8648 54.9843Z" fill="#5798F7"/>
<path d="M42.4993 53.3928C42.4246 53.3928 42.3499 53.3618 42.297 53.3045C42.1958 53.1924 42.203 53.0206 42.3138 52.9204L43.7926 51.5866C43.9034 51.4864 44.0792 51.4936 44.1804 51.6033C44.2815 51.7131 44.2743 51.8873 44.1635 51.9875L42.6847 53.3212C42.6317 53.3689 42.5667 53.3928 42.4993 53.3928Z" fill="#5798F7"/>
<path d="M45.3268 49.8306C45.3027 49.8306 45.2786 49.8306 45.2545 49.8259C45.0715 49.8068 44.9077 49.7185 44.7921 49.5777C44.6765 49.4369 44.6235 49.258 44.6428 49.0791C44.662 48.9001 44.7511 48.7355 44.8932 48.6209L45.1148 48.442C45.1991 48.3752 45.3219 48.3871 45.3918 48.4706C45.4592 48.5541 45.4472 48.6758 45.3629 48.745L45.1413 48.924C45.0811 48.9741 45.0426 49.0433 45.0329 49.1196C45.0257 49.1983 45.0474 49.2723 45.098 49.3343C45.1485 49.394 45.2184 49.4322 45.2954 49.4417C45.3725 49.4513 45.4496 49.4274 45.5122 49.3773L45.7555 49.1816C45.8398 49.1148 45.9626 49.1268 46.0324 49.2103C46.0999 49.2938 46.0878 49.4155 46.0035 49.4847L45.7603 49.6803C45.6374 49.7805 45.4857 49.833 45.3268 49.833V49.8306Z" fill="#5798F7"/>
<path d="M40.0788 51.5438C39.9897 51.5438 39.9005 51.5009 39.8476 51.4197C39.7657 51.2933 39.8018 51.1263 39.9294 51.0427L41.2998 50.1647C41.4275 50.0836 41.5961 50.1194 41.6804 50.2458C41.7647 50.3723 41.7261 50.5393 41.5985 50.6228L40.2281 51.5009C40.1823 51.5295 40.1294 51.5438 40.0788 51.5438Z" fill="#5798F7"/>
<path d="M15.5874 33.1791V30.8719C15.5874 29.8364 16.281 28.9249 17.2878 28.641L21.3291 27.4981C21.936 27.3263 22.5381 27.7773 22.5381 28.4024V32.8069L15.5874 33.1791Z" fill="white"/>
<path d="M15.3128 33.4678V30.8742C15.3128 29.7218 16.0932 28.6983 17.2107 28.3809L21.252 27.2381C21.6253 27.1331 22.0155 27.2047 22.3262 27.4361C22.6369 27.6675 22.8127 28.0207 22.8127 28.4048V33.0669L15.3128 33.4702V33.4678ZM21.5892 27.7343C21.5266 27.7343 21.464 27.7439 21.4014 27.7606L17.36 28.9035C16.4761 29.154 15.8595 29.9628 15.8595 30.8742V32.8952L22.2612 32.5516V28.4048C22.2612 28.1924 22.1624 27.9992 21.9938 27.8703C21.8758 27.7821 21.7337 27.7343 21.5892 27.7343Z" fill="#5798F7"/>
<path d="M19.4096 38.817V35.732L21.541 36.0684C22.0565 36.1495 22.5237 35.7558 22.5261 35.2381L22.5357 29.2947C22.5357 28.963 22.1624 28.7626 21.8855 28.9487C21.3243 29.3257 20.3705 29.6168 18.8894 29.0489C18.8894 29.0489 19.4529 30.8861 18.0633 31.8763L18.044 31.7975C17.9091 31.2416 17.4082 30.8503 16.8326 30.8503C16.1437 30.8503 15.5874 31.4039 15.5874 32.0839V33.1814L11.982 37.9151L12.678 37.4666C14.7372 36.1376 17.4708 36.5384 19.0531 38.3995L19.4096 38.8194V38.817Z" fill="#FFD14C"/>
<path d="M19.4096 39.0891C19.3301 39.0891 19.253 39.0557 19.2 38.9913L18.8436 38.5713C17.3528 36.8177 14.7661 36.4407 12.8273 37.6909L12.1313 38.1395C12.0205 38.2111 11.8712 38.1944 11.7821 38.0965C11.6905 38.0011 11.6833 37.8532 11.7628 37.7482L15.3128 33.086V32.0816C15.3128 31.2512 15.9944 30.576 16.8325 30.576C17.4178 30.576 17.938 30.9029 18.1909 31.4039C18.5112 31.0675 18.6895 30.6261 18.7232 30.0893C18.7569 29.5572 18.6292 29.1277 18.6268 29.1254C18.5979 29.0251 18.6268 28.9178 18.7039 28.8486C18.781 28.777 18.8918 28.7579 18.9881 28.7937C20.3778 29.3258 21.2472 29.049 21.7313 28.7221C21.9433 28.579 22.2154 28.5647 22.4418 28.684C22.6706 28.8033 22.8103 29.0371 22.8103 29.2924L22.8007 35.2358C22.8007 35.5627 22.6561 35.8704 22.4057 36.0828C22.1552 36.2951 21.8252 36.3858 21.5001 36.3357L19.6865 36.0494V38.8171C19.6865 38.9316 19.6143 39.0342 19.5059 39.0724C19.4746 39.0843 19.4433 39.0891 19.412 39.0891H19.4096ZM15.3273 36.4121C16.7386 36.4121 18.1355 36.9847 19.135 38.0774V35.7321C19.135 35.6533 19.1711 35.577 19.2314 35.5245C19.2916 35.472 19.3734 35.4505 19.4529 35.4624L21.5844 35.7989C21.7506 35.8251 21.9192 35.7774 22.0492 35.67C22.1793 35.5627 22.2515 35.4028 22.2515 35.2358L22.2612 29.2924C22.2612 29.2136 22.2058 29.1778 22.1841 29.1659C22.1552 29.1516 22.0998 29.1325 22.0396 29.1731C21.5049 29.5334 20.6018 29.8507 19.2482 29.457C19.2699 29.6407 19.2843 29.8626 19.2723 30.106C19.2241 30.953 18.8629 31.6425 18.2246 32.0959C18.15 32.1484 18.0536 32.1603 17.9693 32.1293C17.8826 32.0983 17.82 32.0267 17.7983 31.9384L17.7791 31.8597C17.6731 31.4254 17.2853 31.12 16.835 31.12C16.3003 31.12 15.8644 31.5519 15.8644 32.0816V33.1791C15.8644 33.2387 15.8451 33.296 15.809 33.3437L13.0778 36.9298C13.7931 36.5838 14.5638 36.4144 15.3297 36.4144L15.3273 36.4121Z" fill="#5798F7"/>
<path d="M17.6394 34.0643H16.888C16.0209 34.0643 15.3152 33.3652 15.3152 32.5062H15.8644C15.8644 33.0669 16.3244 33.5226 16.8904 33.5226H17.6418V34.0666L17.6394 34.0643Z" fill="#5798F7"/>
<path d="M19.5902 35.5006L18.1789 34.959L19.4096 37.6909L19.5902 35.5006Z" fill="#5798F7"/>
<path d="M22.5381 30.9076L23.4847 32.95C23.5955 33.191 23.4196 33.4677 23.1499 33.4677H22.5381V30.91V30.9076Z" fill="#FFB400"/>
<path d="M23.1499 33.7374H22.5381C22.3864 33.7374 22.2636 33.6157 22.2636 33.4654V30.9076C22.2636 30.7788 22.3527 30.6691 22.4803 30.6428C22.6056 30.6166 22.7356 30.6786 22.7886 30.7955L23.7351 32.8379C23.8267 33.0359 23.8098 33.2626 23.6918 33.4463C23.5738 33.63 23.3715 33.7398 23.1499 33.7398V33.7374ZM22.8127 33.1934H23.1499C23.1956 33.1934 23.2173 33.1671 23.2294 33.1504C23.239 33.1337 23.2534 33.1027 23.2366 33.0622L22.8127 32.1507V33.1934Z" fill="#5798F7"/>
<path d="M20.7704 32.561C20.4332 32.561 20.149 32.2795 20.149 31.9455C20.149 31.7951 20.2718 31.6735 20.4235 31.6735C20.5753 31.6735 20.6981 31.7951 20.6981 31.9455C20.6981 31.9717 20.7342 32.017 20.7704 32.017C20.792 32.0147 20.8354 31.9669 20.8426 31.9383C20.8474 31.7928 20.9679 31.6735 21.1172 31.6735C21.2665 31.6735 21.3917 31.7951 21.3917 31.9455C21.3917 32.2294 21.1196 32.561 20.7704 32.561Z" fill="#5798F7"/>
<path d="M19.4289 34.3554C19.925 34.3554 20.3272 33.9569 20.3272 33.4654C20.3272 32.9739 19.925 32.5754 19.4289 32.5754C18.9327 32.5754 18.5305 32.9739 18.5305 33.4654C18.5305 33.9569 18.9327 34.3554 19.4289 34.3554Z" fill="#B6DAFF"/>
<path d="M22.5791 33.6515C22.5791 33.6515 22.0372 33.6778 21.5218 33.3724C21.3002 33.2411 21.0401 33.4702 21.1437 33.7016C21.3219 34.0977 21.7169 34.5295 22.5791 34.7061V33.6515Z" fill="white"/>
<path d="M22.5791 34.9399C22.5622 34.9399 22.5478 34.9399 22.5309 34.9352C21.5387 34.7324 21.1124 34.2051 20.9269 33.7995C20.8354 33.599 20.886 33.3748 21.0497 33.2292C21.2135 33.0837 21.4495 33.0622 21.6374 33.1743C22.083 33.4368 22.5598 33.4201 22.5646 33.4201C22.6297 33.4201 22.6923 33.4416 22.7381 33.4845C22.7838 33.5275 22.8103 33.5895 22.8103 33.6515V34.7061C22.8103 34.7753 22.779 34.8421 22.7236 34.8875C22.6802 34.9209 22.6297 34.9399 22.5743 34.9399H22.5791ZM21.3845 33.568C21.3845 33.568 21.3725 33.568 21.3652 33.5776C21.3508 33.5919 21.3556 33.6014 21.358 33.6086C21.529 33.9856 21.859 34.2552 22.3431 34.4055V33.8734C22.1119 33.8496 21.7506 33.7804 21.399 33.5728C21.3941 33.5728 21.3893 33.568 21.3845 33.568Z" fill="#5798F7"/>
<path d="M17.2637 32.8212H16.7314C16.5797 32.8212 16.4568 32.6995 16.4568 32.5492C16.4568 32.3989 16.5797 32.2772 16.7314 32.2772H16.8253L16.7627 32.1484C16.6977 32.0124 16.7531 31.8501 16.8904 31.7857C17.0276 31.7213 17.1914 31.7761 17.2564 31.9121L17.5093 32.4299C17.5503 32.5134 17.5455 32.6136 17.4949 32.6923C17.4443 32.7711 17.3576 32.8188 17.2613 32.8188L17.2637 32.8212Z" fill="#5798F7"/>
<path d="M69.0258 45.5764C68.3948 45.3163 67.9323 44.6244 68.2719 43.806C68.6212 42.9877 69.4424 42.8254 70.0734 43.0855C70.7045 43.3455 71.1669 44.0375 70.8273 44.8559C70.4805 45.6742 69.6592 45.8365 69.0282 45.5764H69.0258ZM69.8254 43.6772C69.5749 43.5746 69.0932 43.5364 68.874 44.0518C68.6597 44.5672 69.0258 44.8797 69.2763 44.9823C69.5267 45.0849 70.0084 45.1231 70.2276 44.6101C70.4419 44.0947 70.0759 43.7822 69.8254 43.6772Z" fill="#5798F7"/>
<path d="M67.7782 50.6131L66.2946 49.9999C65.6058 49.716 65.1434 49.0814 65.0856 48.3441C65.0302 47.6116 65.3842 46.9221 66.0128 46.5355C67.0244 45.784 68.0431 45.5597 68.8837 45.908C69.7242 46.2564 70.283 47.1296 70.4564 48.3703C70.6226 49.0837 70.3769 49.821 69.8133 50.2958C69.2449 50.7754 68.4646 50.8971 67.7758 50.6131H67.7782ZM68.6356 46.5021C68.0118 46.2445 67.2146 46.4425 66.3909 47.0605L66.3644 47.0795C65.9309 47.342 65.6949 47.7977 65.7334 48.2988C65.772 48.7998 66.0754 49.215 66.5427 49.4082L68.0263 50.0214C68.4959 50.2147 69.0065 50.1359 69.3918 49.8091C69.7796 49.4822 69.9386 48.9955 69.8205 48.5063L69.8157 48.4753C69.676 47.4613 69.257 46.7622 68.6356 46.5045V46.5021Z" fill="#5798F7"/>
<path d="M75.8151 48.3776C75.1841 48.1175 74.7217 47.4256 75.0613 46.6072C75.4105 45.7888 76.2318 45.6266 76.8628 45.8866C77.4938 46.1467 77.9562 46.8386 77.6166 47.657C77.2698 48.4754 76.4486 48.6376 75.8175 48.3776H75.8151ZM76.6147 46.4783C76.3643 46.3757 75.8826 46.3376 75.6634 46.8529C75.4491 47.3683 75.8151 47.6809 76.0656 47.7835C76.3161 47.886 76.7978 47.9242 77.0169 47.4112C77.2313 46.8959 76.8652 46.5833 76.6147 46.4783Z" fill="#83B7FF"/>
<path d="M72.7589 45.982C72.1279 45.722 71.6654 45.0301 72.005 44.2117C72.3542 43.3933 73.1755 43.231 73.8065 43.4911C74.4375 43.7512 74.9 44.4431 74.5604 45.2615C74.2136 46.0799 73.3923 46.2421 72.7613 45.982H72.7589ZM73.5561 44.0828C73.3056 43.9802 72.8239 43.9421 72.6047 44.4574C72.3904 44.9728 72.7565 45.2853 73.0069 45.3879C73.2574 45.4905 73.7391 45.5287 73.9583 45.0157C74.1726 44.5004 73.8065 44.1878 73.5561 44.0828Z" fill="white"/>
<path d="M73.1635 47.8097C73.0864 47.7787 73.0214 47.7167 72.9877 47.6356C72.7348 47.0271 72.0267 46.7337 71.4125 46.9866C71.2464 47.0534 71.0561 46.977 70.9887 46.8124C70.9212 46.6478 70.9983 46.4593 71.1645 46.3925C72.111 46.0059 73.1972 46.4545 73.5874 47.3922C73.6548 47.5568 73.5777 47.7453 73.4115 47.8121C73.3297 47.8455 73.2405 47.8431 73.1635 47.8121V47.8097Z" fill="white"/>
<path d="M74.5676 53.4143L73.084 52.8011C72.3952 52.5172 71.9328 51.8825 71.875 51.1452C71.8196 50.4128 72.1736 49.7232 72.8022 49.3367C73.8137 48.5851 74.8325 48.3608 75.6731 48.7092C76.5136 49.0575 77.0724 49.9308 77.2458 51.1715C77.412 51.8849 77.1663 52.6221 76.6027 53.0969C76.0343 53.5765 75.254 53.6982 74.5652 53.4143H74.5676ZM75.425 49.3033C74.8012 49.0456 74.0064 49.2436 73.1803 49.8616L73.1538 49.8807C72.7203 50.1431 72.4843 50.5989 72.5228 51.0999C72.5614 51.601 72.8648 52.0161 73.3321 52.2094L74.8157 52.8226C75.2853 53.0158 75.7959 52.9371 76.1812 52.6102C76.5666 52.2833 76.728 51.7966 76.6099 51.3075L76.6051 51.2765C76.4654 50.2624 76.0464 49.5634 75.425 49.3057V49.3033Z" fill="#83B7FF"/>
<path d="M38.6963 35.5077C36.5263 35.5077 34.4864 34.6703 32.9522 33.1504C31.4181 31.6306 30.5727 29.6097 30.5727 27.4599C30.5727 25.3102 31.4181 23.2893 32.9522 21.7694C34.4864 20.2496 36.5263 19.4121 38.6963 19.4121C40.8663 19.4121 42.9063 20.2496 44.4405 21.7694C45.9746 23.2893 46.82 25.3102 46.82 27.4599C46.82 29.6097 45.9746 31.6306 44.4405 33.1504C42.9063 34.6703 40.8663 35.5077 38.6963 35.5077ZM38.6963 19.6316C36.5866 19.6316 34.602 20.4452 33.1088 21.9245C31.6155 23.4038 30.7943 25.3698 30.7943 27.4599C30.7943 29.55 31.6155 31.516 33.1088 32.9953C34.602 34.4746 36.5866 35.2882 38.6963 35.2882C40.8061 35.2882 42.7907 34.4746 44.2839 32.9953C45.7771 31.516 46.5984 29.55 46.5984 27.4599C46.5984 25.3698 45.7771 23.4038 44.2839 21.9245C42.7907 20.4452 40.8061 19.6316 38.6963 19.6316Z" fill="#B6DAFF" stroke="#B6DAFF" stroke-width="0.5" stroke-miterlimit="10"/>
<path d="M38.6964 35.5077C38.6819 35.5077 38.665 35.5053 38.6506 35.4982C36.7238 34.6368 35.2186 32.6255 34.6237 30.1202C34.6092 30.0606 34.6454 30.0033 34.7056 29.989C34.7658 29.9747 34.8236 30.0105 34.838 30.0701C35.4185 32.5109 36.878 34.465 38.7421 35.3001C38.7975 35.324 38.8216 35.3884 38.7975 35.4433C38.7782 35.4838 38.7397 35.5077 38.6964 35.5077Z" fill="#B6DAFF" stroke="#B6DAFF" stroke-width="0.5" stroke-miterlimit="10"/>
<path d="M34.602 25.9234C34.602 25.9234 34.5924 25.9234 34.5851 25.9234C34.5249 25.9138 34.484 25.8589 34.4912 25.7993C34.9271 22.8216 36.5191 20.3784 38.6482 19.424C38.7036 19.4002 38.7686 19.424 38.7927 19.4789C38.8168 19.5338 38.7927 19.5982 38.7373 19.6221C36.6757 20.5454 35.1319 22.9242 34.708 25.8279C34.7007 25.8828 34.6526 25.921 34.5996 25.921L34.602 25.9234Z" fill="#B6DAFF" stroke="#B6DAFF" stroke-width="0.5" stroke-miterlimit="10"/>
<path d="M38.6963 35.5078C38.6554 35.5078 38.6145 35.4839 38.5952 35.4434C38.5711 35.3885 38.5952 35.3241 38.6506 35.3002C39.8428 34.7658 40.8712 33.7493 41.6226 32.3583C42.3933 30.9315 42.8003 29.2375 42.8003 27.46C42.8003 27.4003 42.8485 27.3502 42.9111 27.3502C42.9737 27.3502 43.0219 27.3979 43.0219 27.46C43.0219 29.2757 42.6052 31.0055 41.8201 32.4609C41.047 33.8949 39.9824 34.9447 38.7445 35.4982C38.7301 35.5054 38.7156 35.5078 38.6988 35.5078H38.6963Z" fill="#B6DAFF" stroke="#B6DAFF" stroke-width="0.5" stroke-miterlimit="10"/>
<path d="M42.0874 23.3895C42.0441 23.3895 42.0031 23.3632 41.9863 23.3227C41.2397 21.5666 40.0547 20.2519 38.6506 19.6221C38.5952 19.5982 38.5711 19.5338 38.5952 19.4789C38.6193 19.424 38.6843 19.4002 38.7397 19.424C40.1968 20.0778 41.4203 21.4306 42.1886 23.2392C42.2127 23.294 42.1862 23.3585 42.1308 23.3823C42.1163 23.3871 42.1019 23.3919 42.0874 23.3919V23.3895Z" fill="#B6DAFF" stroke="#B6DAFF" stroke-width="0.5" stroke-miterlimit="10"/>
<path d="M38.6964 35.5077C38.6361 35.5077 38.5856 35.46 38.5856 35.398V19.5219C38.5856 19.4622 38.6337 19.4121 38.6964 19.4121C38.759 19.4121 38.8071 19.4598 38.8071 19.5219V35.398C38.8071 35.4576 38.759 35.5077 38.6964 35.5077Z" fill="#B6DAFF" stroke="#B6DAFF" stroke-width="0.5" stroke-miterlimit="10"/>
<path d="M46.7092 27.5697H36.3216C36.2614 27.5697 36.2108 27.522 36.2108 27.46C36.2108 27.3979 36.259 27.3502 36.3216 27.3502H46.7092C46.7694 27.3502 46.82 27.3979 46.82 27.46C46.82 27.522 46.7718 27.5697 46.7092 27.5697Z" fill="#B6DAFF" stroke="#B6DAFF" stroke-width="0.5" stroke-miterlimit="10"/>
<path d="M32.6247 27.5697H30.6835C30.6233 27.5697 30.5727 27.522 30.5727 27.46C30.5727 27.3979 30.6209 27.3502 30.6835 27.3502H32.6247C32.6849 27.3502 32.7355 27.3979 32.7355 27.46C32.7355 27.522 32.6873 27.5697 32.6247 27.5697Z" fill="#B6DAFF" stroke="#B6DAFF" stroke-width="0.5" stroke-miterlimit="10"/>
<path d="M38.7445 23.2224C36.8491 23.2224 35.0331 22.4923 33.7639 21.2206C33.7205 21.1777 33.7205 21.1085 33.7639 21.0655C33.8072 21.0226 33.8771 21.0226 33.9204 21.0655C35.1487 22.2967 36.9069 23.0029 38.7445 23.0029C40.5821 23.0029 42.2994 22.311 43.5277 21.1061C43.571 21.0631 43.6409 21.0631 43.6842 21.1061C43.7276 21.149 43.7276 21.2182 43.6842 21.2612C43.0628 21.872 42.3234 22.3539 41.4877 22.6928C40.6231 23.0435 39.7007 23.2201 38.7469 23.2201L38.7445 23.2224Z" fill="#B6DAFF" stroke="#B6DAFF" stroke-width="0.5" stroke-miterlimit="10"/>
<path d="M33.8144 33.8519C33.7855 33.8519 33.7591 33.8423 33.7374 33.8208C33.694 33.7779 33.694 33.7087 33.7374 33.6658C35.0066 32.394 36.8226 31.6639 38.718 31.6639C39.6718 31.6639 40.5942 31.8405 41.4588 32.1912C42.2945 32.53 43.0339 33.012 43.6553 33.6228C43.6987 33.6658 43.6987 33.7349 43.6553 33.7779C43.612 33.8208 43.5421 33.8208 43.4988 33.7779C42.2729 32.573 40.5292 31.8811 38.7156 31.8811C36.9021 31.8811 35.1198 32.5873 33.8915 33.8185C33.8698 33.8399 33.8409 33.8519 33.8144 33.8519Z" fill="#B6DAFF" stroke="#B6DAFF" stroke-width="0.5" stroke-miterlimit="10"/>
<path d="M44.1666 25.8257L42.9472 27.0337L41.7278 25.8257C41.3293 25.4309 41.3276 24.7881 41.7278 24.3916L42.2234 23.9007C42.6219 23.5059 43.2708 23.5042 43.671 23.9007L44.1666 24.3916C44.5651 24.7864 44.5668 25.4292 44.1666 25.8257Z" fill="#FFB400"/>
<path d="M42.9472 26.026C43.4554 26.026 43.8673 25.6179 43.8673 25.1146C43.8673 24.6112 43.4554 24.2031 42.9472 24.2031C42.4391 24.2031 42.0272 24.6112 42.0272 25.1146C42.0272 25.6179 42.4391 26.026 42.9472 26.026Z" fill="#5798F7"/>
<path d="M42.9472 25.0954C43.0895 25.0954 43.2049 24.9811 43.2049 24.8401C43.2049 24.6991 43.0895 24.5848 42.9472 24.5848C42.8049 24.5848 42.6895 24.6991 42.6895 24.8401C42.6895 24.9811 42.8049 25.0954 42.9472 25.0954Z" fill="white"/>
<path d="M43.5277 25.8208C43.3687 25.9496 43.1664 26.026 42.9472 26.026C42.7281 26.026 42.5257 25.9496 42.3668 25.8208C42.3475 25.7206 42.3668 25.6132 42.4342 25.5177L42.4968 25.4319C42.7184 25.1288 43.1736 25.1288 43.3976 25.4319L43.4602 25.5177C43.5301 25.6132 43.5493 25.7206 43.5277 25.8208Z" fill="white"/>
<path d="M35.6665 26.7131C35.6473 26.7131 35.628 26.7059 35.6111 26.6916C35.5774 26.6606 35.575 26.6105 35.6039 26.5747C35.6858 26.4841 35.7749 26.3934 35.864 26.3075C35.8977 26.2765 35.9483 26.2765 35.982 26.3075C36.0133 26.3409 36.0133 26.391 35.982 26.4244C35.8953 26.5079 35.811 26.5938 35.7315 26.6821C35.7147 26.7012 35.693 26.7107 35.6689 26.7107L35.6665 26.7131ZM36.1964 26.2073C36.1723 26.2073 36.1482 26.1977 36.1313 26.1787C36.1024 26.1429 36.1073 26.0928 36.1434 26.0641C36.2397 25.9854 36.3385 25.909 36.4396 25.8398C36.4758 25.8136 36.5287 25.8231 36.5552 25.8589C36.5817 25.8947 36.5721 25.9472 36.536 25.9735C36.4372 26.0427 36.3409 26.1142 36.2494 26.1906C36.2349 26.2025 36.2156 26.2097 36.1964 26.2097V26.2073ZM36.7985 25.7874C36.7696 25.7874 36.7431 25.773 36.7262 25.7468C36.7021 25.7086 36.7166 25.6585 36.7551 25.6347C36.8611 25.5702 36.9719 25.5106 37.0827 25.4557C37.1236 25.4342 37.1742 25.4509 37.1935 25.4915C37.2151 25.5321 37.1983 25.5822 37.1573 25.6013C37.049 25.6537 36.943 25.7134 36.8394 25.773C36.825 25.7802 36.8105 25.785 36.7961 25.785L36.7985 25.7874ZM41.3938 25.5273C41.3938 25.5273 41.3697 25.5249 41.3601 25.5201C41.2517 25.47 41.1385 25.4247 41.0253 25.3841C40.9819 25.3674 40.9603 25.3221 40.9771 25.2791C40.994 25.2362 41.0397 25.2147 41.0831 25.2314C41.1987 25.2744 41.3167 25.3221 41.4299 25.3722C41.4709 25.3913 41.4901 25.439 41.4709 25.482C41.4564 25.513 41.4275 25.5297 41.3962 25.5297L41.3938 25.5273ZM37.456 25.4605C37.4223 25.4605 37.3934 25.4414 37.3789 25.4104C37.3621 25.3674 37.3813 25.3197 37.4247 25.303C37.5403 25.2553 37.6583 25.2123 37.7763 25.1742C37.8197 25.1598 37.8654 25.1837 37.8799 25.2267C37.8943 25.2696 37.8702 25.3149 37.8269 25.3293C37.7137 25.365 37.5981 25.408 37.4873 25.4533C37.4777 25.4581 37.4656 25.4605 37.456 25.4605ZM40.7026 25.2744C40.7026 25.2744 40.6881 25.2744 40.6809 25.272C40.5653 25.2386 40.4473 25.21 40.3293 25.1861C40.2835 25.1765 40.2546 25.1336 40.2642 25.0883C40.2739 25.0429 40.3172 25.0143 40.363 25.0238C40.4858 25.0477 40.6062 25.0787 40.7266 25.1121C40.77 25.1241 40.7965 25.1694 40.7844 25.2123C40.7748 25.2481 40.7411 25.272 40.705 25.272L40.7026 25.2744ZM38.1544 25.2338C38.1183 25.2338 38.0822 25.2076 38.075 25.1718C38.0629 25.1288 38.0918 25.0835 38.1352 25.0716C38.2556 25.0429 38.3784 25.0167 38.5012 24.9952C38.547 24.9881 38.588 25.0167 38.5976 25.062C38.6048 25.1074 38.5759 25.1479 38.5301 25.1575C38.4121 25.1766 38.2917 25.2028 38.1761 25.229C38.1689 25.229 38.1617 25.2314 38.1568 25.2314L38.1544 25.2338ZM39.9824 25.1288C39.9824 25.1288 39.9752 25.1288 39.9728 25.1288C39.8548 25.1145 39.732 25.1026 39.6115 25.0978C39.5658 25.0978 39.5297 25.0573 39.5321 25.0119C39.5321 24.9666 39.573 24.9332 39.6188 24.9332C39.744 24.9403 39.8692 24.9499 39.9921 24.9666C40.0378 24.9714 40.0691 25.0143 40.0643 25.0573C40.0595 25.0978 40.0234 25.1288 39.9824 25.1288ZM38.8794 25.1121C38.836 25.1121 38.8023 25.0811 38.7975 25.0382C38.7927 24.9928 38.8264 24.9523 38.8721 24.9475C38.995 24.9356 39.1226 24.9284 39.2455 24.926C39.2912 24.926 39.3273 24.9618 39.3273 25.0071C39.3273 25.0525 39.2912 25.0907 39.2455 25.0907C39.125 25.093 39.0046 25.1002 38.8842 25.1121H38.877H38.8794Z" fill="#FFB400"/>
<path d="M35.7382 28.4448L34.5188 29.6528L33.2994 28.4448C32.9009 28.05 32.8992 27.4072 33.2994 27.0108L33.795 26.5198C34.1935 26.125 34.8424 26.1233 35.2426 26.5198L35.7382 27.0108C36.1367 27.4055 36.1384 28.0483 35.7382 28.4448Z" fill="#FFB400"/>
<path d="M34.5177 28.6457C35.0258 28.6457 35.4377 28.2377 35.4377 27.7343C35.4377 27.2309 35.0258 26.8229 34.5177 26.8229C34.0096 26.8229 33.5977 27.2309 33.5977 27.7343C33.5977 28.2377 34.0096 28.6457 34.5177 28.6457Z" fill="#5798F7"/>
<path d="M34.5177 27.6985C34.66 27.6985 34.7754 27.5842 34.7754 27.4432C34.7754 27.3022 34.66 27.1879 34.5177 27.1879C34.3754 27.1879 34.26 27.3022 34.26 27.4432C34.26 27.5842 34.3754 27.6985 34.5177 27.6985Z" fill="white"/>
<path d="M35.0933 28.4476C34.9368 28.5717 34.7369 28.6481 34.5177 28.6481C34.2986 28.6481 34.1011 28.5741 33.9421 28.4476C33.9132 28.3427 33.9301 28.2234 34.0047 28.1208L34.0673 28.0349C34.2889 27.7319 34.7441 27.7319 34.9657 28.0349L35.0283 28.1208C35.103 28.2234 35.1198 28.3403 35.0909 28.4476H35.0933Z" fill="white"/>
</g>
<defs>
<clipPath id="clip0_3240_27345">
<rect width="111" height="73" fill="white"/>
</clipPath>
</defs>
</svg>
