<svg width="117" height="73" viewBox="0 0 117 73" fill="none" xmlns="http://www.w3.org/2000/svg">
<g clip-path="url(#clip0_3240_26171)">
<path d="M33.9372 4.08943C34.0584 4.21014 34.0584 4.40446 33.9372 4.52517C33.8781 4.58406 33.7984 4.6135 33.7186 4.6135C33.6388 4.6135 33.559 4.58406 33.4999 4.52517L33.0596 4.08649L32.6193 4.52517C32.5602 4.58406 32.4805 4.6135 32.4007 4.6135C32.3209 4.6135 32.2411 4.58406 32.182 4.52517C32.0609 4.40446 32.0609 4.21014 32.182 4.08943L32.6223 3.65075L32.182 3.21206C32.0609 3.09135 32.0609 2.89704 32.182 2.77632C32.3032 2.65561 32.4982 2.65561 32.6193 2.77632L33.0596 3.21501L33.4999 2.77632C33.6211 2.65561 33.8161 2.65561 33.9372 2.77632C34.0584 2.89704 34.0584 3.09135 33.9372 3.21206L33.497 3.65075L33.9372 4.08943Z" fill="#B6DAFF"/>
<path d="M9.02432 52.6862C9.14548 52.8069 9.14548 53.0013 9.02432 53.122C8.96522 53.1809 8.88544 53.2103 8.80566 53.2103C8.72588 53.2103 8.64609 53.1809 8.587 53.122L8.14671 52.6833L7.70643 53.122C7.64438 53.1809 7.56755 53.2103 7.48777 53.2103C7.40798 53.2103 7.3282 53.1809 7.2691 53.122C7.14795 53.0013 7.14795 52.8069 7.2691 52.6862L7.70938 52.2476L7.2691 51.8089C7.14795 51.6882 7.14795 51.4938 7.2691 51.3731C7.39025 51.2524 7.58528 51.2524 7.70643 51.3731L8.14671 51.8118L8.587 51.3731C8.70815 51.2524 8.90317 51.2524 9.02432 51.3731C9.14548 51.4938 9.14548 51.6882 9.02432 51.8089L8.58404 52.2476L9.02432 52.6862Z" fill="#B6DAFF"/>
<path d="M78.1398 62.9674C78.261 63.0881 78.261 63.2824 78.1398 63.4031C78.0807 63.462 78.001 63.4944 77.9212 63.4944C77.8414 63.4944 77.7616 63.4649 77.7025 63.4031L77.2622 62.9644L76.822 63.4031C76.7629 63.462 76.6831 63.4944 76.6033 63.4944C76.5235 63.4944 76.4437 63.4649 76.3846 63.4031C76.2635 63.2824 76.2635 63.0881 76.3846 62.9674L76.8249 62.5287L76.3846 62.09C76.2635 61.9693 76.2635 61.775 76.3846 61.6543C76.5058 61.5335 76.7008 61.5335 76.822 61.6543L77.2622 62.0929L77.7025 61.6543C77.8237 61.5335 78.0187 61.5335 78.1398 61.6543C78.261 61.775 78.261 61.9693 78.1398 62.09L77.6996 62.5287L78.1398 62.9674Z" fill="#B6DAFF"/>
<path d="M110.47 24.9226C110.591 25.0433 110.591 25.2376 110.47 25.3583C110.411 25.4201 110.331 25.4496 110.251 25.4496C110.171 25.4496 110.091 25.4201 110.032 25.3583L109.592 24.9196L109.152 25.3583C109.09 25.4201 109.013 25.4496 108.933 25.4496C108.853 25.4496 108.773 25.4201 108.714 25.3583C108.593 25.2376 108.593 25.0433 108.714 24.9226L109.155 24.4839L108.714 24.0452C108.593 23.9245 108.593 23.7302 108.714 23.6095C108.836 23.4887 109.031 23.4887 109.152 23.6095L109.592 24.0481L110.032 23.6095C110.153 23.4887 110.348 23.4887 110.47 23.6095C110.591 23.7302 110.591 23.9245 110.47 24.0452L110.029 24.4839L110.47 24.9226Z" fill="#B6DAFF"/>
<path d="M114.14 77.2112L108.339 82.078L103.342 82.1162L97.8108 74.8323C94.6638 70.8253 94.3624 66.0439 94.7317 60.9682L95.172 42.9438H105.287V60.6001C105.287 65.9085 107.488 70.9813 111.368 74.6174L114.14 77.2142V77.2112Z" fill="white"/>
<path d="M103.189 82.4254L97.5655 75.0179C96.0733 73.1189 95.1159 70.9372 94.649 68.3552C94.2737 66.2766 94.2028 63.9948 94.4244 60.9535L94.8736 42.6348H105.6V60.5973C105.6 65.7996 107.781 70.8254 111.584 74.3908L114.607 77.2231L108.454 82.3842L103.192 82.4254H103.189ZM95.4764 43.2501L95.042 60.9888C94.7022 65.6554 94.8322 70.5398 98.056 74.641L103.496 81.8072L108.227 81.7689L113.679 77.1966L111.161 74.8383C107.234 71.158 104.982 65.9674 104.982 60.5973V43.2501H95.4793H95.4764Z" fill="#F9D346"/>
<path d="M104.917 44.8223L87.176 82.8435H78.657L76.0803 80.3498L93.8482 42.0106L94.2294 35.9426H104.855L105.635 38.3981C106.105 40.5621 105.851 42.8173 104.914 44.8223H104.917Z" fill="white"/>
<path d="M87.371 83.1527H78.5299L75.705 80.4205L93.5409 41.9341L93.9369 35.6335H105.08L105.937 38.3304C106.418 40.5444 106.152 42.8969 105.195 44.9519L87.371 83.1527ZM78.7811 82.5374H86.978L104.637 44.6928C105.538 42.7644 105.786 40.5562 105.337 38.4776L104.628 36.2518H94.519L94.1526 42.0901L94.1289 42.1431L76.4526 80.2851L78.7811 82.5403V82.5374Z" fill="#F9D346"/>
<path d="M105.352 37.9564H94.123C93.9516 37.9564 93.8128 37.818 93.8128 37.6473C93.8128 37.4765 93.9516 37.3381 94.123 37.3381H105.352C105.523 37.3381 105.662 37.4765 105.662 37.6473C105.662 37.818 105.523 37.9564 105.352 37.9564Z" fill="#F9D346"/>
<path d="M94.401 43.5061L93.6564 40.5207L93.9785 36.3135L95.057 36.2841L94.401 43.5061Z" fill="#F9D346"/>
<path d="M105.863 40.5532H101.723C101.552 40.5532 101.413 40.4148 101.413 40.2441V39.1812C101.413 39.0104 101.552 38.8721 101.723 38.8721H105.774C105.946 38.8721 106.085 39.0104 106.085 39.1812C106.085 39.352 105.946 39.4904 105.774 39.4904H102.03V39.9379H105.86C106.031 39.9379 106.17 40.0762 106.17 40.247C106.17 40.4178 106.031 40.5561 105.86 40.5561L105.863 40.5532Z" fill="#F9D346"/>
<path d="M99.6132 43.2501C99.501 43.2501 99.3916 43.1883 99.3384 43.0823L96.6288 37.7916C96.552 37.6414 96.6111 37.453 96.7647 37.3765C96.9184 37.2999 97.1045 37.3588 97.1814 37.5119L99.891 42.8026C99.9678 42.9528 99.9087 43.1412 99.7551 43.2177C99.7108 43.2413 99.6635 43.2501 99.6162 43.2501H99.6132Z" fill="#F9D346"/>
<path d="M88.7569 24.9637H78.7545C75.8853 24.9637 73.3056 23.2178 72.2507 20.5563L67.5347 8.67353H67.4106C65.9952 8.67353 64.8486 7.53119 64.8486 6.12092V3.63897L69.4731 2.3877L79.2864 16.985H86.3664" fill="white"/>
<path d="M88.7569 25.2287H78.7545C75.7552 25.2287 73.1047 23.4328 72.0025 20.6564L67.3544 8.94149C65.8208 8.91205 64.5857 7.66077 64.5857 6.12685V3.63901C64.5857 3.52125 64.6654 3.41525 64.7807 3.38287L69.4051 2.13159C69.5145 2.10215 69.6327 2.14631 69.6947 2.24052L79.4312 16.72H86.3693V17.247H79.2893C79.2007 17.247 79.1179 17.2029 79.0677 17.1293L69.3608 2.69393L65.1175 3.84216V6.12685C65.1175 7.38991 66.1488 8.41448 67.4135 8.41448H67.5376C67.647 8.41448 67.7445 8.47926 67.7829 8.5823L72.4989 20.465C73.5213 23.0412 75.9769 24.7047 78.7574 24.7047H88.7598V25.2317L88.7569 25.2287Z" fill="#004D89"/>
<path d="M101.883 16.9585L95.6625 17.4296L95.4586 13.2606L94.3801 10.4842L93.733 10.2899C93.4345 10.2016 93.337 9.82473 93.5586 9.60686L96.3806 6.79517L100.24 9.60392L99.6133 10.5196C99.956 10.019 100.645 9.90128 101.138 10.2575L101.176 10.287C101.676 10.652 101.841 11.3204 101.566 11.8739C101.348 12.3155 100.899 12.5805 100.426 12.5805L101.883 16.9585Z" fill="white"/>
<path d="M95.6625 17.6946C95.5975 17.6946 95.5355 17.671 95.4882 17.6298C95.435 17.5827 95.4025 17.515 95.3995 17.4443L95.1986 13.3166L94.1821 10.6992L93.6591 10.5431C93.4286 10.4754 93.2543 10.2958 93.1952 10.0632C93.1361 9.83065 93.204 9.58923 93.3725 9.42141L96.1944 6.60971C96.286 6.51844 96.4338 6.50667 96.5372 6.58321L100.396 9.39197C100.512 9.47735 100.538 9.63634 100.458 9.7541L100.435 9.78943C100.742 9.77177 101.043 9.86009 101.295 10.0456L101.333 10.075C101.939 10.5166 102.137 11.3234 101.806 11.9917C101.599 12.4098 101.221 12.7012 100.78 12.8043L102.137 16.8731C102.163 16.9497 102.152 17.0351 102.107 17.1028C102.063 17.1705 101.989 17.2147 101.906 17.2206L95.6862 17.6916C95.6862 17.6916 95.6714 17.6916 95.6655 17.6916L95.6625 17.6946ZM96.4072 7.14261L93.7477 9.79238C93.6946 9.84537 93.7034 9.9072 93.7093 9.9337C93.7152 9.95725 93.7389 10.0161 93.8098 10.0397L94.4569 10.234C94.5367 10.2576 94.5988 10.3164 94.6283 10.393L95.7069 13.1694C95.7157 13.1959 95.7216 13.2224 95.7246 13.2518L95.9137 17.1499L101.525 16.7259L100.175 12.6688C100.148 12.5894 100.163 12.501 100.21 12.4304C100.26 12.3627 100.34 12.3214 100.426 12.3214C100.813 12.3214 101.159 12.1065 101.33 11.762C101.549 11.3234 101.419 10.7934 101.02 10.5049L100.981 10.4754C100.801 10.3459 100.582 10.2929 100.367 10.3312C100.148 10.3694 99.959 10.4902 99.8349 10.6727C99.7521 10.7934 99.5867 10.8258 99.4655 10.7434C99.3444 10.6609 99.3118 10.496 99.3946 10.3753L99.8762 9.67167L96.4072 7.14555V7.14261Z" fill="#5798F7"/>
<path d="M98.0176 12.0004L99.1907 10.4842C98.7563 10.1633 98.4993 9.65393 98.4993 9.11514L98.5318 8.04346L100.745 9.5185L97.9644 13.1722C97.6482 13.5785 97.1311 13.7728 96.6229 13.6786L95.4586 13.5079L94.0846 13.1251C93.4759 12.9573 93.2099 12.2448 93.5586 11.7207L94.3919 10.2163L94.9563 10.3458C95.8723 10.5696 96.0023 11.1437 96.2446 11.7443C96.5313 12.4892 97.5271 12.6334 98.0176 12.0004Z" fill="#5798F7"/>
<path d="M100.527 11.8121C100.503 11.8121 100.479 11.8092 100.456 11.8003L99.9976 11.6472C99.9179 11.6207 99.8617 11.553 99.8499 11.4706C99.8381 11.3882 99.8735 11.3057 99.9415 11.2586L100.4 10.9406C100.5 10.87 100.636 10.8965 100.707 10.9966C100.778 11.0967 100.751 11.2321 100.651 11.3028L100.553 11.3705L100.595 11.3852C100.71 11.4235 100.772 11.5471 100.733 11.662C100.704 11.7532 100.615 11.8121 100.524 11.8121H100.527Z" fill="#5798F7"/>
<path d="M96.0673 9.51852C96.2371 9.51852 96.3747 9.38143 96.3747 9.21232C96.3747 9.04322 96.2371 8.90613 96.0673 8.90613C95.8976 8.90613 95.76 9.04322 95.76 9.21232C95.76 9.38143 95.8976 9.51852 96.0673 9.51852Z" fill="#5798F7"/>
<path d="M95.76 6.71566L96.5874 6.08855C97.465 5.39372 98.9691 5.2524 100.089 5.89423C101.168 6.50957 101.702 7.53415 101.472 8.80309L101.218 9.98077L103.239 11.4175C103.351 11.497 103.378 11.6531 103.298 11.7679C103.251 11.8356 103.171 11.8739 103.094 11.8739C103.044 11.8739 102.994 11.8592 102.949 11.8268L95.76 6.71861V6.71566Z" fill="#F9D346"/>
<path d="M97.2227 12.08C97.6699 12.08 98.0324 11.7188 98.0324 11.2733C98.0324 10.8277 97.6699 10.4666 97.2227 10.4666C96.7756 10.4666 96.4131 10.8277 96.4131 11.2733C96.4131 11.7188 96.7756 12.08 97.2227 12.08Z" fill="#B6DAFF"/>
<path d="M97.5684 7.96699L95.1779 6.31236C94.5722 5.89428 93.7477 6.32413 93.7448 7.05724C93.7448 7.56069 94.1526 7.96699 94.6579 7.96699H97.5684Z" fill="#5798F7"/>
<path d="M99.6148 12.0298L99.4451 12.5289L100.346 12.8332L100.516 12.3341L99.6148 12.0298Z" fill="#5798F7"/>
<path d="M105.352 36.3106H93.8719L91.8507 25.5996L88.7539 25.211L86.1625 16.72H95.8842C96.1442 16.3961 96.4515 16.1164 96.7972 15.8927C97.4207 15.4864 98.1594 15.2567 98.9336 15.2567C100.89 15.2567 102.545 16.6994 102.802 18.6308L105.352 36.3106Z" fill="#B6DAFF"/>
<path d="M88.3136 23.7626L86.1654 16.7201H88.2309L88.3136 23.7626Z" fill="#95CAF9"/>
<path d="M94.5067 19.0909L91.6178 25.4957L92.1003 25.7118L94.9892 19.307L94.5067 19.0909Z" fill="white"/>
<path d="M100.74 23.4034L98.2382 28.421L98.7119 28.6555L101.214 23.6379L100.74 23.4034Z" fill="white"/>
<path d="M101.498 24.6252H100.39V25.1523H101.498V24.6252Z" fill="white"/>
<path d="M76.3054 0.68872L29.3177 14.9307C26.9117 15.6599 25.5546 18.1944 26.2865 20.5917L38.6291 61.0175C39.361 63.4148 41.9047 64.7669 44.3107 64.0377L91.2984 49.7957C93.7044 49.0665 95.0615 46.532 94.3296 44.1347L81.987 3.70889C81.2551 1.31164 78.7114 -0.0405328 76.3054 0.68872Z" fill="white"/>
<path d="M42.477 64.7338C41.8121 64.7338 41.1531 64.5719 40.5503 64.251C39.5811 63.7357 38.8749 62.876 38.5558 61.8309L25.7698 19.9616C25.1109 17.8035 26.3372 15.5129 28.5031 14.8564L76.9372 0.176651C79.1032 -0.479902 81.4021 0.741935 82.061 2.90002L94.844 44.7664C95.503 46.9244 94.2767 49.215 92.1107 49.8716L92.0221 49.5772L92.1107 49.8716L43.6766 64.5513C43.2807 64.672 42.8788 64.7309 42.477 64.7309V64.7338ZM78.131 0.615335C77.7941 0.615335 77.4543 0.665386 77.1175 0.765488L28.6834 15.4452C26.8425 16.0017 25.8023 17.9478 26.3608 19.782L39.1438 61.6483C39.4157 62.5375 40.0185 63.2676 40.8399 63.7034C41.6614 64.1391 42.607 64.2333 43.4964 63.9624L91.9305 49.2827C92.8229 49.0119 93.5557 48.4113 93.993 47.5928C94.4303 46.7743 94.5249 45.8321 94.253 44.9459L81.4701 3.07962C81.012 1.58103 79.6262 0.615335 78.131 0.615335Z" fill="#F9D346"/>
<path d="M82.7939 6.35941L27.6137 23.0853C27.4394 23.1383 27.268 23.2002 27.1055 23.2708L26.0683 19.8732C25.4566 17.8741 26.5884 15.7602 28.5977 15.1537L77.0259 0.47104C79.0323 -0.138406 81.1539 0.989217 81.7626 2.98832L82.7909 6.35647L82.7939 6.35941Z" fill="#F9D346"/>
<path d="M77.865 4.99336C77.6848 4.99336 77.5045 4.9492 77.3391 4.86087C77.0761 4.71955 76.8811 4.48696 76.7954 4.20137C76.7097 3.91579 76.7392 3.61548 76.8781 3.35345C77.0199 3.09142 77.2534 2.8971 77.54 2.81172C77.8266 2.72634 78.128 2.75578 78.391 2.89415C78.654 3.03548 78.849 3.26807 78.9347 3.55365C79.0204 3.83924 78.9909 4.13955 78.852 4.40158C78.7131 4.66361 78.4767 4.85793 78.1901 4.94331C78.0837 4.97569 77.9714 4.99336 77.8621 4.99336H77.865ZM77.865 3.20329C77.8 3.20329 77.7321 3.21213 77.6671 3.23274C77.3095 3.34167 77.1086 3.71853 77.2179 4.07477C77.2711 4.24848 77.3863 4.3898 77.5459 4.47224C77.7055 4.55762 77.8887 4.57528 78.0601 4.52229C78.2344 4.46929 78.3762 4.35447 78.459 4.19548C78.5447 4.0365 78.5624 3.85396 78.5092 3.6832C78.456 3.50949 78.3408 3.36817 78.1812 3.28573C78.0807 3.23274 77.9744 3.20624 77.865 3.20624V3.20329Z" fill="white"/>
<path d="M74.3605 6.05627C74.1803 6.05627 74 6.01211 73.8345 5.92378C73.5716 5.78246 73.3765 5.54987 73.2908 5.26428C73.2051 4.9787 73.2347 4.67839 73.3736 4.41636C73.5125 4.15433 73.7488 3.96001 74.0355 3.87463C74.6265 3.69503 75.2499 4.02773 75.4302 4.61656C75.5159 4.90215 75.4863 5.20246 75.3475 5.46449C75.2086 5.72652 74.9722 5.92084 74.6856 6.00622C74.5792 6.0386 74.4669 6.05627 74.3576 6.05627H74.3605ZM74.3605 4.2662C74.2955 4.2662 74.2275 4.27504 74.1625 4.29565C73.805 4.40458 73.6041 4.78144 73.7134 5.13768C73.7666 5.31139 73.8818 5.45271 74.0414 5.53515C74.201 5.62053 74.3842 5.6382 74.5555 5.5852C74.7299 5.5322 74.8717 5.41738 74.9545 5.2584C75.0401 5.09941 75.0579 4.91687 75.0047 4.74611C74.9515 4.5724 74.8363 4.43108 74.6767 4.34864C74.5762 4.29565 74.4698 4.26915 74.3605 4.26915V4.2662Z" fill="white"/>
<path d="M70.856 7.11616C70.6757 7.11616 70.4955 7.072 70.33 6.98367C70.067 6.84235 69.872 6.60976 69.7863 6.32418C69.6061 5.73534 69.94 5.11412 70.5309 4.93452C70.8176 4.84914 71.119 4.87858 71.382 5.01696C71.645 5.15828 71.84 5.39087 71.9257 5.67646C72.0114 5.96204 71.9818 6.26235 71.8429 6.52438C71.7011 6.78641 71.4677 6.98073 71.181 7.06611C71.0746 7.0985 70.9624 7.11616 70.853 7.11616H70.856ZM70.856 5.3261C70.791 5.3261 70.726 5.33493 70.658 5.35554C70.3005 5.46447 70.0995 5.84133 70.2089 6.19758C70.262 6.37128 70.3773 6.5126 70.5369 6.59504C70.6964 6.68042 70.8796 6.69809 71.051 6.64509C71.2253 6.5921 71.3672 6.47727 71.4499 6.31829C71.5356 6.1593 71.5533 5.97676 71.5002 5.806C71.4115 5.51452 71.1426 5.32904 70.853 5.32904L70.856 5.3261Z" fill="white"/>
<path d="M57.0033 49.7126L51.9534 51.2436C51.3654 51.4114 50.7507 51.0816 50.5705 50.4957L46.8 38.139C46.6198 37.5502 46.9537 36.926 47.5446 36.7464L52.5798 35.2213C53.1708 35.0417 53.7973 35.3744 53.9775 35.9632L57.7509 48.32C57.9312 48.9088 57.5973 49.533 57.0063 49.7126H57.0033Z" fill="#B6DAFF"/>
<path d="M67.6263 46.4151L62.5763 47.9461C61.9883 48.1139 61.3737 47.7841 61.1934 47.1982L54.3173 25.7263C54.1371 25.1374 54.471 24.5133 55.0619 24.3337L60.0971 22.8086C60.6881 22.629 61.3146 22.9617 61.4948 23.5505L68.3709 45.0225C68.5512 45.6113 68.2172 46.2355 67.6263 46.4151Z" fill="#B6DAFF"/>
<path d="M78.9702 43.0499L73.9202 44.5809C73.3322 44.7487 72.7176 44.4189 72.5373 43.833L67.2805 26.8156C67.1003 26.2268 67.4342 25.6026 68.0252 25.423L73.0604 23.8979C73.6513 23.7183 74.2778 24.051 74.458 24.6399L79.7148 41.6573C79.8951 42.2461 79.5612 42.8703 78.9702 43.0499Z" fill="#B6DAFF"/>
<path d="M47.4146 48.6055C47.3496 48.6055 47.2817 48.5849 47.2255 48.5407C47.0896 48.4347 47.0659 48.2434 47.1723 48.1079L59.9021 31.8325C59.9612 31.7589 60.0499 31.7147 60.1474 31.7147H79.2155L81.3814 27.5958C81.4612 27.4456 81.6474 27.3867 81.7981 27.4662C81.9488 27.5457 82.0079 27.7312 81.9281 27.8814L79.6735 32.1652C79.6203 32.2653 79.5139 32.33 79.3987 32.33H60.2951L47.6569 48.4848C47.5949 48.5613 47.5062 48.6026 47.4117 48.6026L47.4146 48.6055Z" fill="#F9D346"/>
<path d="M82.4304 29.3094C82.3063 29.3094 82.1881 29.2328 82.1408 29.1092L81.6237 27.7431L80.3649 28.1847C80.2024 28.2406 80.028 28.1552 79.9719 27.9963C79.9158 27.8343 79.9985 27.6606 80.161 27.6047L81.7035 27.0629C81.8601 27.007 82.0374 27.0894 82.0965 27.2455L82.72 28.8942C82.7791 29.0532 82.6993 29.2299 82.5397 29.2917C82.5043 29.3064 82.4659 29.3123 82.4304 29.3123V29.3094Z" fill="#F9D346"/>
<path d="M39.9919 34.3557C42.918 34.3557 45.29 31.9922 45.29 29.0768C45.29 26.1613 42.918 23.7979 39.9919 23.7979C37.0658 23.7979 34.6937 26.1613 34.6937 29.0768C34.6937 31.9922 37.0658 34.3557 39.9919 34.3557Z" fill="#B6DAFF"/>
<path d="M38.4494 24.0245L39.9919 29.0768L45.0625 27.5399C44.2115 24.7517 41.2507 23.1766 38.4524 24.0245H38.4494Z" fill="#F9D346"/>
<path d="M69.4167 14.188C69.2837 14.188 69.1626 14.1026 69.1212 13.9701C69.071 13.8082 69.1626 13.6345 69.328 13.5844L79.1059 10.6197C79.2684 10.5696 79.4427 10.6609 79.493 10.8257C79.5432 10.9877 79.4516 11.1614 79.2861 11.2114L69.5083 14.1762C69.4787 14.1851 69.4492 14.191 69.4196 14.191L69.4167 14.188Z" fill="#B6DAFF"/>
<path d="M69.9604 15.7278C69.8274 15.7278 69.7063 15.6424 69.6649 15.5099C69.6147 15.348 69.7063 15.1743 69.8717 15.1242L79.6496 12.1594C79.8121 12.1094 79.9864 12.2007 80.0367 12.3655C80.0869 12.5275 79.9953 12.7012 79.8298 12.7512L70.052 15.716C70.0224 15.7249 69.9929 15.7307 69.9633 15.7307L69.9604 15.7278Z" fill="#B6DAFF"/>
<path d="M26.0121 38.0713H25.495V39.8466L21.0567 38.4452L21.5561 36.661C21.0242 36.5757 20.6194 36.1164 20.6194 35.5629C20.6194 35.2567 20.7435 34.977 20.9474 34.7738C21.1513 34.5736 21.4291 34.447 21.7393 34.447C21.8132 34.447 21.8871 34.4558 21.958 34.4676L21.893 33.9171C21.7127 32.3507 22.939 30.9788 24.5199 30.9788H24.6588C25.953 30.9788 27.0552 31.9121 27.268 33.184L27.7437 36.0369C27.921 37.1027 27.0966 38.0713 26.0121 38.0713Z" fill="white"/>
<path d="M26.9902 32.3743C25.9383 31.6294 24.4933 31.7855 23.6246 32.7364L23.2641 33.1339C24.1181 34.6855 22.8533 35.5599 22.8533 35.5599C22.8533 35.2508 22.7292 34.974 22.5254 34.7709C22.3717 34.6178 22.1737 34.5088 21.9521 34.4676L21.8871 33.9171C21.7068 32.3507 22.9331 30.9788 24.514 30.9788H24.6529C25.6517 30.9788 26.5381 31.5352 26.9873 32.3743H26.9902Z" fill="#5798F7"/>
<path d="M24.8597 34.921C24.9984 34.921 25.1109 34.809 25.1109 34.6708C25.1109 34.5326 24.9984 34.4205 24.8597 34.4205C24.721 34.4205 24.6086 34.5326 24.6086 34.6708C24.6086 34.809 24.721 34.921 24.8597 34.921Z" fill="#5798F7"/>
<path d="M26.7538 34.4676C26.8811 34.4676 26.9843 34.3648 26.9843 34.2379C26.9843 34.1111 26.8811 34.0083 26.7538 34.0083C26.6265 34.0083 26.5233 34.1111 26.5233 34.2379C26.5233 34.3648 26.6265 34.4676 26.7538 34.4676Z" fill="#5798F7"/>
<path d="M24.3515 36.5992C24.7807 36.5992 25.1286 36.2525 25.1286 35.8249C25.1286 35.3972 24.7807 35.0505 24.3515 35.0505C23.9223 35.0505 23.5743 35.3972 23.5743 35.8249C23.5743 36.2525 23.9223 36.5992 24.3515 36.5992Z" fill="#FFB400"/>
<path d="M25.4597 40.1999H25.4538C25.306 40.1999 25.1908 40.0763 25.1937 39.932L25.2262 38.0683C25.2262 37.9241 25.3474 37.8092 25.4922 37.8092H26.0093C26.4466 37.8092 26.8603 37.6179 27.144 37.2852C27.4276 36.9525 27.5488 36.5138 27.4779 36.081L27.0021 33.2281C26.8101 32.0798 25.8231 31.2437 24.653 31.2437H24.5141C23.8345 31.2437 23.1873 31.5322 22.7382 32.0386C22.2861 32.5421 22.0733 33.2163 22.1502 33.8876L22.2152 34.4381C22.224 34.5206 22.1945 34.606 22.1324 34.6619C22.0704 34.7178 21.9847 34.7443 21.9019 34.7267C21.6183 34.6707 21.3316 34.7591 21.1307 34.9593C20.9711 35.1182 20.8795 35.3332 20.8795 35.5599C20.8795 35.978 21.1809 36.3313 21.5946 36.399C21.6685 36.4107 21.7335 36.4549 21.7749 36.5167C21.8162 36.5815 21.8281 36.6581 21.8074 36.7287L21.308 38.5129C21.2696 38.6542 21.1218 38.7367 20.983 38.6954C20.8411 38.6572 20.7584 38.51 20.7998 38.3716L21.2282 36.8435C20.7082 36.6404 20.3536 36.1399 20.3536 35.5599C20.3536 35.1919 20.4984 34.8444 20.7584 34.5854C21.0007 34.3439 21.3169 34.2026 21.6567 34.1849L21.6301 33.9465C21.5355 33.125 21.7956 32.3007 22.3481 31.6853C22.9007 31.067 23.6926 30.7137 24.52 30.7137H24.6589C26.0891 30.7137 27.2947 31.7324 27.5311 33.1398L28.0068 35.9927C28.1043 36.5786 27.9388 37.1703 27.5547 37.6238C27.1706 38.0742 26.6091 38.3362 26.0152 38.3362H25.7581L25.7286 39.9408C25.7286 40.0851 25.6074 40.1999 25.4626 40.1999H25.4597Z" fill="#5798F7"/>
<path d="M25.7314 38.3363H25.7226C25.2823 38.3216 24.8479 38.1508 24.4254 37.824C24.3101 37.7357 24.2894 37.5679 24.3781 37.453C24.4667 37.3382 24.6352 37.3176 24.7504 37.4059C25.0814 37.6621 25.4123 37.7975 25.7373 37.8093C25.8851 37.8152 25.9974 37.9359 25.9944 38.0801C25.9885 38.2244 25.8733 38.3363 25.7285 38.3363H25.7314Z" fill="#5798F7"/>
<path d="M26.0479 35.7513C25.9651 35.7513 25.8853 35.7042 25.8499 35.6276C25.7967 35.5187 25.844 35.3862 25.9533 35.3332L26.2547 35.1889L25.7169 33.9641C25.6667 33.8523 25.7169 33.7227 25.8322 33.6756C25.9444 33.6256 26.0745 33.6756 26.1217 33.7904L26.7452 35.2095C26.7925 35.3185 26.7452 35.4451 26.6388 35.4951L26.1454 35.7307C26.1158 35.7454 26.0833 35.7513 26.0508 35.7513H26.0479Z" fill="#5798F7"/>
<path d="M22.2978 36.9407H21.7334C20.9711 36.9407 20.3505 36.3224 20.3505 35.5628C20.3505 34.8032 20.9711 34.1849 21.7334 34.1849C22.4958 34.1849 23.1163 34.8032 23.1163 35.5628C23.1163 35.71 22.9981 35.8278 22.8504 35.8278C22.7026 35.8278 22.5844 35.71 22.5844 35.5628C22.5844 35.0947 22.2033 34.7119 21.7305 34.7119C21.2577 34.7119 20.8765 35.0917 20.8765 35.5628C20.8765 36.0339 21.2577 36.4137 21.7305 36.4137H22.2949C22.4426 36.4137 22.5608 36.5315 22.5608 36.6787C22.5608 36.8259 22.4426 36.9436 22.2949 36.9436L22.2978 36.9407Z" fill="#5798F7"/>
<path d="M21.6566 35.9868C21.562 35.9868 21.4734 35.925 21.4438 35.8308C21.4084 35.713 21.4763 35.5923 21.5916 35.557L21.6625 35.5363L21.565 35.4245C21.4852 35.3332 21.4941 35.1948 21.5886 35.1153C21.6802 35.0358 21.8191 35.0447 21.8989 35.1389L22.221 35.5099C22.2712 35.5658 22.286 35.6453 22.2653 35.7159C22.2446 35.7866 22.1885 35.8425 22.1176 35.8661L21.7157 35.9839C21.695 35.9898 21.6743 35.9927 21.6536 35.9927L21.6566 35.9868Z" fill="#5798F7"/>
<path d="M26.0269 36.4696C25.823 36.4696 25.235 36.4284 24.9632 35.9632C24.9011 35.8572 24.9366 35.7247 25.0429 35.6629C25.1493 35.601 25.2823 35.6364 25.3443 35.7424C25.5305 36.0603 26.0594 36.0309 26.0653 36.0309C26.1865 36.025 26.2929 36.1133 26.3017 36.234C26.3106 36.3548 26.219 36.4607 26.0978 36.4696C26.0919 36.4696 26.0653 36.4696 26.0269 36.4696Z" fill="#5798F7"/>
<path d="M21.7807 21.5456L21.9816 16.5022C22.026 15.4246 22.8888 14.562 23.9703 14.5149L28.4588 14.3205C28.9759 14.297 29.4073 14.7092 29.4073 15.2244C29.4073 15.5924 29.1857 15.9222 28.843 16.0635L26.8513 16.879C26.5086 17.0204 26.2722 17.3413 26.2426 17.7093L26.0683 19.8703L26.2219 17.9596C26.2604 17.4797 26.6622 17.1057 27.1468 17.1057C27.6639 17.1057 28.0835 17.5209 28.0835 18.0361V21.7517C28.0835 22.5289 27.8265 23.2826 27.3537 23.9009L26.9016 24.4868L21.7807 21.5485V21.5456Z" fill="white"/>
<path d="M27.1114 24.6458L26.6918 24.3249L27.1439 23.739C27.5783 23.1708 27.8206 22.4671 27.8206 21.7517V18.0361C27.8206 17.8565 27.7496 17.6916 27.6226 17.565C27.4955 17.4384 27.3271 17.3678 27.1498 17.3707C26.8011 17.3707 26.5145 17.6357 26.4879 17.9831L26.3342 19.6613L25.8053 19.6142L25.9796 17.6887C26.0181 17.2206 26.3135 16.8172 26.7509 16.6376L28.7425 15.8221C28.9848 15.722 29.1414 15.4894 29.1414 15.2273C29.1414 15.0507 29.0705 14.8858 28.9434 14.7651C28.8164 14.6414 28.6479 14.5796 28.4706 14.5884L23.9821 14.7828C23.0484 14.824 22.286 15.5836 22.2476 16.5169L22.0466 21.5603L21.5177 21.5397L21.7186 16.4963C21.7659 15.2921 22.7499 14.3088 23.9585 14.2558L28.447 14.0614C28.7691 14.0467 29.0764 14.1615 29.3098 14.3853C29.5433 14.6091 29.6733 14.9094 29.6733 15.2303C29.6733 15.7072 29.3867 16.1312 28.9464 16.3108L27.5132 16.8996C27.6935 16.9556 27.8619 17.0557 28.0008 17.1941C28.2283 17.4208 28.3524 17.7211 28.3524 18.039V21.7546C28.3524 22.5849 28.0747 23.4033 27.5664 24.0628L27.1143 24.6487L27.1114 24.6458Z" fill="#5798F7"/>
<path d="M24.2658 16.9291L23.7753 16.7318L24.0796 15.9781C24.2953 15.4452 24.7356 15.0507 25.2882 14.8917L28.1367 14.0762L28.2845 14.5826L25.4359 15.3981C25.04 15.51 24.7268 15.7926 24.5731 16.1724L24.2687 16.9261L24.2658 16.9291Z" fill="#5798F7"/>
<path d="M27.138 18.3864C27.404 18.3864 27.6196 18.1716 27.6196 17.9065C27.6196 17.6415 27.404 17.4266 27.138 17.4266C26.872 17.4266 26.6563 17.6415 26.6563 17.9065C26.6563 18.1716 26.872 18.3864 27.138 18.3864Z" fill="#91E6F0"/>
<path d="M54.6453 55.9513L57.5795 54.4203L61.0841 55.071C61.6721 55.1858 61.7164 56.0072 61.1432 56.1839L58.7201 56.9228C58.404 57.02 58.4335 57.4734 58.7586 57.5293L60.6911 58.4509C61.2141 58.6982 61.8376 58.551 62.1892 58.0946C62.6177 57.2614 63.6312 56.914 64.4822 57.3085C64.7009 57.4116 64.7925 57.6707 64.6861 57.8885C64.4231 58.4155 63.9888 59.2841 63.9888 59.2841L64.3493 58.5628C64.6359 57.9886 65.3539 57.7767 65.9095 58.1035C66.2049 58.2772 66.267 58.6805 66.0336 58.9337C65.478 59.5373 64.5295 60.447 63.8765 61.1536C63.4303 61.6365 62.7831 61.7601 62.1301 61.6895L54.6423 61.7248" fill="white"/>
<path d="M54.7665 61.9839C54.6217 61.9839 54.5035 61.8662 54.5005 61.7219C54.5005 61.5747 54.6187 61.4569 54.7635 61.4569L62.1331 61.4039C62.1331 61.4039 62.1538 61.4039 62.1626 61.4039C62.7329 61.4658 63.4569 61.2008 63.8499 60.7915C64.0863 60.5442 64.3699 60.2586 64.6684 59.9583C65.085 59.5373 65.5165 59.1016 65.8415 58.7512C65.8976 58.6894 65.9242 58.604 65.9124 58.5216C65.9006 58.4391 65.8504 58.3655 65.7794 58.3243C65.5756 58.2036 65.3362 58.1742 65.1087 58.2419C64.8811 58.3096 64.6979 58.4627 64.5916 58.6747L64.234 59.3872V59.396H64.2311C64.1661 59.5255 64.0065 59.5785 63.8765 59.5138C63.7465 59.449 63.6933 59.29 63.7583 59.1605C63.7583 59.1605 64.1927 58.2919 64.4556 57.7679C64.4763 57.7267 64.4793 57.6825 64.4645 57.6413C64.4497 57.6 64.4202 57.5647 64.3788 57.5471C63.6519 57.2085 62.7979 57.5029 62.4345 58.2124L62.4138 58.2537C62.2601 58.5628 61.9942 58.7895 61.6632 58.8984C61.3352 59.0044 60.9836 58.975 60.6763 58.816L58.6463 57.762H58.6374C58.2296 57.5264 58.1912 57.2644 58.206 57.129C58.2296 56.9199 58.3951 56.7462 58.6492 56.6697L61.0723 55.9307C61.2407 55.8806 61.3707 55.6186 61.3471 55.3742C61.3323 55.2123 61.2525 55.0121 60.9511 54.9738L58.2621 54.6971C57.7007 54.6382 57.1452 54.756 56.6547 55.0298L54.601 56.178C54.4739 56.2487 54.3114 56.2045 54.2405 56.0779C54.1696 55.9513 54.2139 55.7894 54.341 55.7187L56.3946 54.5705C56.9827 54.2437 57.6446 54.1053 58.3153 54.173L61.0102 54.4498C61.5037 54.5087 61.8317 54.8472 61.876 55.3271C61.9203 55.8335 61.6426 56.3105 61.2259 56.4341L58.8029 57.1731C58.7822 57.179 58.7645 57.1879 58.7526 57.1938C58.7733 57.2173 58.8147 57.2526 58.8915 57.2968L60.9186 58.3479C61.0989 58.4421 61.3027 58.4568 61.4978 58.395C61.6898 58.3332 61.8464 58.1977 61.938 58.0181L61.9587 57.974C62.4552 57.0053 63.6135 56.6079 64.6004 57.0672C64.7718 57.1466 64.9018 57.288 64.9639 57.4676C64.9934 57.5529 65.0053 57.6413 65.0023 57.7267C65.3569 57.6354 65.7381 57.6854 66.0513 57.8739C66.2611 57.9975 66.4029 58.2066 66.4384 58.448C66.4738 58.6894 66.4 58.9308 66.2315 59.1134C65.9006 59.4696 65.4662 59.9083 65.0466 60.3323C64.7482 60.6326 64.4675 60.9152 64.234 61.1596C63.7258 61.6895 62.86 62.0075 62.1213 61.9339L54.7665 61.9869V61.9839Z" fill="#5798F7"/>
<path d="M61.7135 61.9339C61.5716 61.9339 61.4534 61.822 61.4475 61.6777C61.4416 61.5305 61.5569 61.4098 61.7017 61.4039C62.5674 61.3745 62.7004 61.2567 62.99 60.6767L64.1129 58.4362C64.1779 58.3066 64.3374 58.2536 64.4675 58.3184C64.5975 58.3832 64.6507 58.5422 64.5857 58.6717L63.4628 60.9122C63.0698 61.6954 62.727 61.8956 61.7194 61.9309H61.7105L61.7135 61.9339Z" fill="#5798F7"/>
<path d="M64.4704 57.7266C64.1631 57.5735 63.8026 57.6736 63.6637 57.9504C63.5248 58.2271 63.6637 58.5745 63.9681 58.7276L64.4704 57.7266Z" fill="#B6DAFF"/>
<path d="M65.939 58.6482C65.7085 58.4362 65.351 58.4479 65.1412 58.6746C64.9314 58.9014 64.9461 59.2576 65.1766 59.4696L65.939 58.6452V58.6482Z" fill="#B6DAFF"/>
<path d="M60.1267 54.8914C60.0942 55.2299 60.3158 55.5302 60.6261 55.5626C60.8743 55.5862 61.1018 55.4301 61.1993 55.1887C61.2377 55.0974 61.1727 54.9944 61.0723 54.9856L60.1267 54.8943V54.8914Z" fill="#B6DAFF"/>
<path d="M53.159 61.9957C52.7926 62.6523 51.7672 63.1204 50.4168 63.2559L45.4023 63.8535C42.7518 64.1685 40.0776 63.4884 37.9027 61.9457L32.2677 57.9445L16.9376 64.0213C15.8975 63.3206 15.2858 61.5777 15.5754 60.3647L18.2407 49.1709L10.1442 41.1509C7.96351 38.9899 7.94873 35.4804 10.1117 33.3017L19.3577 22.8557C19.7684 22.3905 20.4096 22.0785 21.0124 22.2404L21.5443 21.0686L27.2355 24.4809L17.7177 36.6816L20.6106 39.2195L20.8145 38.3598L25.7314 39.3697V40.565C26.7036 40.565 27.6285 40.989 28.2608 41.725L36.5819 51.4084C37.9412 52.9924 39.8619 53.9905 41.9421 54.1966L54.7665 55.4744V61.9692L53.159 61.9928V61.9957Z" fill="#B6DAFF"/>
<path d="M22.1117 23.1237C22.0732 23.1237 22.0348 23.1148 21.9994 23.0942C21.893 23.0324 21.8575 22.897 21.9196 22.7939L22.6081 21.6221C22.6701 21.5161 22.8061 21.4808 22.9095 21.5426C23.0159 21.6045 23.0513 21.7399 22.9893 21.8429L22.3008 23.0147C22.2594 23.0854 22.1855 23.1237 22.1087 23.1237H22.1117Z" fill="#B6DAFF"/>
<path d="M23.5802 24.0187C23.5359 24.0187 23.4946 24.0069 23.4561 23.9804C23.3557 23.9127 23.3291 23.7743 23.4 23.6742L24.2096 22.5024C24.2776 22.4023 24.4165 22.3758 24.517 22.4465C24.6174 22.5142 24.644 22.6526 24.5731 22.7527L23.7634 23.9245C23.7221 23.9863 23.6512 24.0187 23.5802 24.0187Z" fill="#B6DAFF"/>
<path d="M25.1109 24.8932C25.0695 24.8932 25.0282 24.8814 24.9897 24.8578C24.8863 24.7901 24.8597 24.6547 24.9247 24.5546L25.6132 23.5006C25.6812 23.3975 25.8171 23.371 25.9176 23.4358C26.021 23.5035 26.0476 23.6389 25.9826 23.739L25.2941 24.7931C25.2527 24.8578 25.1818 24.8932 25.1079 24.8932H25.1109Z" fill="#B6DAFF"/>
<path d="M22.5342 42.2138C22.4781 42.2138 22.4219 42.1932 22.3776 42.149C22.2919 42.0636 22.2919 41.9253 22.3776 41.8369C24.4076 39.8084 26.1185 40.147 26.1895 40.1617C26.3076 40.1882 26.3845 40.303 26.3579 40.4237C26.3313 40.5415 26.216 40.618 26.0978 40.5916C26.0742 40.5857 24.5317 40.303 22.6908 42.1461C22.6465 42.1902 22.5904 42.2109 22.5342 42.2109V42.2138Z" fill="#B6DAFF"/>
<path d="M21.9935 39.8555C21.9757 39.8555 21.961 39.8555 21.9432 39.8496C21.825 39.8231 21.7512 39.7024 21.7778 39.5847L22.0023 38.6249C22.0289 38.5071 22.1501 38.4335 22.2683 38.46C22.3865 38.4865 22.4603 38.6072 22.4337 38.725L22.2092 39.6848C22.1855 39.7849 22.0939 39.8555 21.9935 39.8555Z" fill="#B6DAFF"/>
<path d="M23.7251 40.1941C23.7251 40.1941 23.7044 40.1941 23.6925 40.1941C23.5714 40.1764 23.4887 40.0645 23.5064 39.9438L23.6482 38.984C23.666 38.8633 23.7782 38.7809 23.8994 38.7985C24.0205 38.8162 24.1033 38.9281 24.0856 39.0488L23.9437 40.0086C23.9289 40.1175 23.8344 40.197 23.7251 40.197V40.1941Z" fill="#B6DAFF"/>
<path d="M19.86 41.9106C19.8452 41.9106 19.8275 41.9106 19.8127 41.9047C19.6945 41.8782 19.6177 41.7604 19.6443 41.6427L20.3003 38.672C20.3269 38.5542 20.4451 38.4777 20.5633 38.5042C20.6815 38.5306 20.7583 38.6484 20.7317 38.7662L20.0757 41.7369C20.0521 41.8399 19.9605 41.9106 19.86 41.9106Z" fill="#B6DAFF"/>
<path d="M54.7665 57.1732H53.3658C53.2447 57.1732 53.1442 57.076 53.1442 56.9524C53.1442 56.8287 53.2417 56.7316 53.3658 56.7316H54.7665C54.8876 56.7316 54.9881 56.8287 54.9881 56.9524C54.9881 57.076 54.8906 57.1732 54.7665 57.1732Z" fill="#B6DAFF"/>
<path d="M54.7665 59.0074H53.3658C53.2447 59.0074 53.1442 58.9103 53.1442 58.7866C53.1442 58.663 53.2417 58.5658 53.3658 58.5658H54.7665C54.8876 58.5658 54.9881 58.663 54.9881 58.7866C54.9881 58.9103 54.8906 59.0074 54.7665 59.0074Z" fill="#B6DAFF"/>
<path d="M54.7665 60.8446H53.3658C53.2447 60.8446 53.1442 60.7474 53.1442 60.6238C53.1442 60.5001 53.2417 60.403 53.3658 60.403H54.7665C54.8876 60.403 54.9881 60.5001 54.9881 60.6238C54.9881 60.7474 54.8906 60.8446 54.7665 60.8446Z" fill="#B6DAFF"/>
<path d="M32.2677 58.2124C32.2086 58.2124 32.1495 58.1947 32.1022 58.1535L23.728 51.4408C23.6128 51.3495 23.595 51.1846 23.6866 51.0698C23.7782 50.955 23.9437 50.9373 24.059 51.0286L32.4332 57.7413C32.5484 57.8326 32.5662 57.9975 32.4746 58.1123C32.4214 58.1771 32.3445 58.2095 32.2677 58.2095V58.2124Z" fill="#B6DAFF"/>
<path d="M50.6384 80.0907C49.7106 81.3685 48.0381 82.4549 46.2977 82.4785L38.8306 82.5756L36.6971 66.7447L32.578 68.1874L37.5482 77.4203C39.7555 81.5216 36.774 86.4884 32.1022 86.4884H10.6791C10.7293 86.2853 10.7027 86.0174 10.7027 86.0174C9.45574 84.9339 10.0881 82.1575 11.1253 81.1124L16.2786 75.8069H25.2882L19.2277 70.8224C17.7857 69.7184 16.9376 68.0107 16.9376 66.2001V64.0272L38.015 55.4479C40.7247 54.3438 43.7919 55.8365 44.5897 58.6423L50.6384 80.0907Z" fill="#5798F7"/>
<path d="M36.5287 67.2952C36.4755 67.2952 36.4223 67.2805 36.375 67.2481C36.2834 67.1834 36.2421 67.0715 36.2716 66.9655L36.7001 65.3786C36.7385 65.2372 36.8833 65.1548 37.0251 65.1931C37.167 65.2314 37.2497 65.3756 37.2113 65.5169L36.969 66.412L37.7077 65.9056C37.8289 65.8231 37.9943 65.8526 38.0771 65.9733C38.1598 66.094 38.1303 66.2589 38.0091 66.3413L36.6794 67.254C36.6351 67.2864 36.5819 67.3011 36.5287 67.3011V67.2952Z" fill="white"/>
<path d="M23.004 71.1522C21.8487 71.1522 20.6933 70.8548 20.2471 70.0775C20.1732 69.9509 20.2175 69.789 20.3446 69.7183C20.4717 69.6447 20.6342 69.6889 20.7051 69.8155C21.2281 70.7282 23.332 70.7783 24.6086 70.4132L36.4489 66.78C36.5878 66.7359 36.7385 66.8154 36.7799 66.9538C36.8242 67.0921 36.7444 67.2423 36.6055 67.2835L24.7593 70.9166C24.2481 71.0638 23.6246 71.1492 23.0011 71.1492L23.004 71.1522Z" fill="white"/>
<path d="M2.94901 86.5679C2.098 86.5679 1.27948 86.2293 0.676681 85.6199C0.626448 85.5698 0.599854 85.5021 0.599854 85.4315C0.599854 85.3608 0.629403 85.2931 0.679636 85.246L13.1287 73.0247C13.2321 72.9216 13.4006 72.9246 13.504 73.0247L16.2698 75.8216L15.8916 76.1926L13.3119 73.5841L1.24994 85.4285C1.77 85.8584 2.43781 86.0762 3.1204 86.035C3.12631 86.035 3.13222 86.035 3.13517 86.035L10.7234 85.9997V86.5267L3.14699 86.562C3.08199 86.565 3.01402 86.5679 2.94901 86.5679Z" fill="#F9D346"/>
<path d="M13.9147 73.6488L1.30014 86.032C1.25287 86.0791 1.18786 86.1056 1.12285 86.1056C1.05784 86.1056 0.992832 86.0791 0.942599 86.032C0.886455 85.9731 0.862816 85.8966 0.87168 85.82L-0.00297546 84.9368C0.132951 84.716 0.378209 84.5688 0.658926 84.5688H0.904185C1.33265 84.5688 1.68133 84.2213 1.68133 83.7944V83.5501C1.68133 83.1232 2.03001 82.7758 2.46143 82.7758H2.70669C3.13515 82.7758 3.48383 82.4313 3.48383 82.0044V81.76C3.48383 81.3361 3.95071 81.0004 4.34075 81.0711H4.51214C4.9406 81.0711 5.28928 80.7237 5.28928 80.2968V80.0524C5.28928 79.6255 5.64092 79.2781 6.06938 79.2781H6.31464C6.7431 79.2781 7.09178 78.9307 7.09178 78.5037V78.2594C7.09178 77.8325 7.44342 77.4851 7.87188 77.488H8.11714C8.5456 77.488 8.89429 77.1406 8.89429 76.7137V76.4693C8.89429 76.0424 9.24297 75.695 9.67438 75.695H9.91964C10.3481 75.695 10.6968 75.3476 10.6968 74.9207V74.6763C10.6968 74.2494 11.0455 73.9049 11.4739 73.9049H11.7399C12.1624 73.9049 12.5052 73.5693 12.52 73.1512L12.5288 72.8332C12.5347 72.6213 12.6263 72.4269 12.7741 72.2915L13.696 73.2248C13.7729 73.213 13.8526 73.2366 13.9117 73.2984C14.0092 73.3956 14.0092 73.5546 13.9117 73.6517L13.9147 73.6488Z" fill="#5798F7"/>
<path d="M91.8507 25.5997L80.8377 50.5871C80.5836 51.1523 80.8791 51.8118 81.47 52.0032L81.804 52.1121L83.5326 49.8392L81.804 52.1121L80.0665 52.6392C79.4932 52.8129 79.1889 53.4341 79.4016 53.9905C79.5937 54.491 80.1374 54.7619 80.6545 54.6147L85.6335 53.1809C86.4314 52.9512 87.0962 52.4007 87.4656 51.6587L98.4756 28.541L91.8507 25.5968V25.5997Z" fill="white"/>
<path d="M80.3738 54.9179C79.8478 54.9179 79.3484 54.594 79.1534 54.0847C79.0263 53.752 79.0441 53.3751 79.2007 53.0542C79.3573 52.7333 79.6469 52.4889 79.9896 52.3859L80.95 52.0944C80.6515 51.9442 80.3974 51.691 80.2733 51.4084C80.164 51.164 80.1581 50.9167 80.2585 50.6959L91.6084 25.4907L92.093 25.7056L80.7461 50.9108C80.7077 50.9933 80.7136 51.0875 80.7609 51.1935C80.8525 51.3966 81.0889 51.5998 81.3253 51.6763C81.5528 51.7499 81.801 51.6734 81.9487 51.4849L83.3257 49.6772L83.7483 49.9952L82.3772 51.797L82.3713 51.8029L81.9665 52.3329L80.1492 52.8834C79.9424 52.9453 79.7769 53.0866 79.6823 53.278C79.5878 53.4693 79.5759 53.6872 79.6528 53.8874C79.7946 54.2584 80.2053 54.4615 80.5865 54.3496L85.4946 52.9364C86.2659 52.7156 86.9101 52.1768 87.2706 51.4614L98.2422 28.4172L98.7209 28.6439L87.7463 51.694C87.3208 52.5449 86.5555 53.1808 85.6424 53.4428L80.7343 54.856C80.6161 54.8914 80.4979 54.9061 80.3797 54.9061L80.3738 54.9179Z" fill="#5798F7"/>
<path d="M81.1273 50.0865C81.4376 50.2308 81.5824 50.5753 81.4494 50.855C81.343 51.0817 81.0889 51.1936 80.8348 51.1553C80.7372 51.1406 80.6811 51.0346 80.7225 50.9433L81.1273 50.0865Z" fill="#B6DAFF"/>
<path d="M80.3856 54.4263C80.2438 54.4675 80.1049 54.3468 80.1315 54.2026C80.1729 53.9582 80.3502 53.7492 80.6043 53.6785C80.9559 53.5784 81.3253 53.7845 81.4257 54.1348L80.3856 54.4293V54.4263Z" fill="#B6DAFF"/>
<path d="M64.7068 3.63907L63.8144 3.07968C62.9959 2.56739 61.9144 2.97663 61.6426 3.90111L61.1609 5.54102C60.9511 6.2594 61.6219 6.92773 62.3429 6.7128C62.6413 6.62448 62.8777 6.39778 62.9752 6.10336L63.6962 3.94232L64.7098 3.63613L64.7068 3.63907Z" fill="white"/>
<path d="M62.0651 7.01895C61.7489 7.01895 61.4475 6.89529 61.2141 6.6627C60.8949 6.34473 60.7797 5.89721 60.9068 5.46736L61.3884 3.82745C61.5421 3.30633 61.9203 2.89708 62.4286 2.70571C62.9368 2.51434 63.4923 2.56733 63.9562 2.85587L65.3421 3.72146L63.906 4.1572L63.2264 6.18868C63.1023 6.56554 62.7979 6.85407 62.4167 6.96595C62.2985 7.00128 62.1833 7.016 62.0651 7.016V7.01895ZM63.0402 3.12084C62.8984 3.12084 62.7536 3.14734 62.6147 3.20034C62.2631 3.33282 62.0001 3.61547 61.8937 3.9776L61.4121 5.61751C61.3411 5.86188 61.4061 6.11214 61.5864 6.29173C61.7666 6.47133 62.0208 6.5361 62.2631 6.46249C62.4788 6.40067 62.6472 6.23579 62.7181 6.02381L63.4835 3.73323L64.0715 3.55658L63.6696 3.30633C63.4775 3.18561 63.2589 3.12379 63.0373 3.12379L63.0402 3.12084Z" fill="#5798F7"/>
<path d="M62.1006 6.37122C62.3894 6.37122 62.6236 6.13791 62.6236 5.8501C62.6236 5.56229 62.3894 5.32898 62.1006 5.32898C61.8117 5.32898 61.5775 5.56229 61.5775 5.8501C61.5775 6.13791 61.8117 6.37122 62.1006 6.37122Z" fill="#B6DAFF"/>
<path d="M67.1801 2.87356L66.2138 2.27C65.3273 1.71649 64.1572 2.16106 63.8646 3.15914L63.3446 4.93154C63.117 5.70881 63.841 6.43013 64.6211 6.20049C64.9432 6.10627 65.1973 5.85896 65.3037 5.54099L66.0838 3.20625L67.1801 2.87356Z" fill="white"/>
<path d="M64.3227 6.50664C63.9887 6.50664 63.6667 6.3771 63.4185 6.12979C63.0786 5.79121 62.9545 5.31719 63.0905 4.8579L63.6105 3.0855C63.773 2.52905 64.1808 2.09331 64.7245 1.88721C65.2682 1.68112 65.8622 1.74001 66.3556 2.04914L67.8154 2.96184L66.2965 3.42114L65.5608 5.62633C65.4278 6.02674 65.1057 6.33588 64.7009 6.45365C64.5768 6.48898 64.4497 6.50959 64.3286 6.50959L64.3227 6.50664ZM65.3776 2.29057C65.221 2.29057 65.0614 2.32001 64.9107 2.37595C64.5236 2.52316 64.234 2.8323 64.1188 3.22976L63.5987 5.00216C63.5189 5.27303 63.5928 5.55273 63.7908 5.75293C63.9917 5.95314 64.2724 6.0238 64.5443 5.9443C64.7836 5.87364 64.9727 5.6911 65.0525 5.45557L65.8769 2.99128L66.5477 2.78814L66.072 2.49077C65.8592 2.35828 65.6199 2.29057 65.3776 2.29057Z" fill="#5798F7"/>
<path d="M64.3256 5.8501C64.6145 5.8501 64.8487 5.61679 64.8487 5.32898C64.8487 5.04118 64.6145 4.80786 64.3256 4.80786C64.0368 4.80786 63.8026 5.04118 63.8026 5.32898C63.8026 5.61679 64.0368 5.8501 64.3256 5.8501Z" fill="#B6DAFF"/>
<path d="M69.4731 2.38772L68.5068 1.78416C67.6204 1.23065 66.4502 1.67523 66.1577 2.6733L65.6376 4.4457C65.4101 5.22297 66.134 5.94429 66.9141 5.71465C67.2362 5.62043 67.4903 5.37312 67.5967 5.05515L68.3768 2.72041L69.4731 2.38772Z" fill="white"/>
<path d="M66.6157 6.0208C66.2818 6.0208 65.9597 5.89126 65.7115 5.64395C65.3717 5.30537 65.2476 4.83135 65.3835 4.37206L65.9035 2.59966C66.0661 2.04321 66.4738 1.60747 67.0176 1.40137C67.5613 1.19528 68.1552 1.25417 68.6487 1.5633L70.1084 2.476L68.5896 2.9353L67.8538 5.14049C67.7208 5.5409 67.3987 5.85004 66.9939 5.96781C66.8698 6.00314 66.7427 6.02375 66.6216 6.02375L66.6157 6.0208ZM67.6706 1.80473C67.514 1.80473 67.3544 1.83417 67.2037 1.89011C66.8166 2.03732 66.527 2.34646 66.4118 2.74392L65.8917 4.51632C65.8119 4.78719 65.8858 5.06689 66.0838 5.26709C66.2818 5.4673 66.5655 5.53796 66.8373 5.45846C67.0767 5.3878 67.2658 5.20526 67.3456 4.96973L68.17 2.50544L68.8407 2.3023L68.365 2.00493C68.1522 1.87244 67.9129 1.80473 67.6706 1.80473Z" fill="#5798F7"/>
<path d="M66.6157 5.43494C66.9045 5.43494 67.1387 5.20163 67.1387 4.91382C67.1387 4.62601 66.9045 4.3927 66.6157 4.3927C66.3268 4.3927 66.0927 4.62601 66.0927 4.91382C66.0927 5.20163 66.3268 5.43494 66.6157 5.43494Z" fill="#B6DAFF"/>
</g>
<defs>
<clipPath id="clip0_3240_26171">
<rect width="117" height="73" fill="white"/>
</clipPath>
</defs>
</svg>
